<?xml version="1.0" encoding="UTF-8" standalone="no"?>
<!-- Created with Inkscape (http://www.inkscape.org/) -->

<svg
   xmlns:dc="http://purl.org/dc/elements/1.1/"
   xmlns:cc="http://creativecommons.org/ns#"
   xmlns:rdf="http://www.w3.org/1999/02/22-rdf-syntax-ns#"
   xmlns:svg="http://www.w3.org/2000/svg"
   xmlns="http://www.w3.org/2000/svg"
   xmlns:sodipodi="http://sodipodi.sourceforge.net/DTD/sodipodi-0.dtd"
   xmlns:inkscape="http://www.inkscape.org/namespaces/inkscape"
   width="250"
   height="250"
   id="svg3318"
   version="1.1"
   inkscape:version="0.48.5 r10040"
   sodipodi:docname="New document 6">
  <defs
     id="defs3320" />
  <sodipodi:namedview
     id="base"
     pagecolor="#ffffff"
     bordercolor="#666666"
     borderopacity="1.0"
     inkscape:pageopacity="0.0"
     inkscape:pageshadow="2"
     inkscape:zoom="1.01"
     inkscape:cx="375"
     inkscape:cy="163.56436"
     inkscape:document-units="px"
     inkscape:current-layer="layer1"
     showgrid="false"
     inkscape:window-width="1366"
     inkscape:window-height="715"
     inkscape:window-x="-8"
     inkscape:window-y="-8"
     inkscape:window-maximized="1" />
  <metadata
     id="metadata3323">
    <rdf:RDF>
      <cc:Work
         rdf:about="">
        <dc:format>image/svg+xml</dc:format>
        <dc:type
           rdf:resource="http://purl.org/dc/dcmitype/StillImage" />
        <dc:title></dc:title>
      </cc:Work>
    </rdf:RDF>
  </metadata>
  <g
     inkscape:label="Layer 1"
     inkscape:groupmode="layer"
     id="layer1"
     transform="translate(0,-802.36218)">
    <path
       style="fill:#000000;fill-opacity:1;stroke:none"
       id="path3172"
       d="m 42.116729,834.91525 c 0.41157,3.17327 0.33783,6.3698 0.488416,9.55719 0.147597,2.51456 0.643091,4.99554 1.152401,7.46373 0.548706,2.55213 1.139005,5.09625 1.723621,7.64135 0.632707,2.75206 1.260801,5.50504 1.888893,8.25803 0.655633,2.87545 1.3104,5.75109 1.965217,8.62672 0.385988,2.61218 1.423136,5.00174 2.624755,7.36124 0.960206,2.33707 2.600756,4.26519 4.167866,6.251 2.106126,2.37916 3.759422,5.05657 5.467238,7.68802 1.441818,2.92023 3.30316,5.59112 5.094035,8.32421 1.48968,1.97419 3.021223,3.92057 4.540499,5.87574 2.050771,2.07272 3.78288,4.39194 5.477379,6.72102 1.562744,1.96871 3.257421,3.85118 4.970448,5.70828 1.924859,1.787 3.988224,3.45096 6.051277,5.0997 1.726568,1.70712 3.753039,3.06714 5.745168,4.47566 1.517486,0.89139 2.895288,1.96523 4.469889,2.77403 3.392749,1.89585 4.921849,3.76671 5.808939,7.40242 0.21358,2.50276 -0.46123,4.98241 -0.92439,7.43414 -0.3266,1.84824 -0.0371,3.69551 0.27188,5.52452 0.66101,2.55586 0.71075,5.17995 0.90752,7.78829 -0.0634,2.26523 -0.13653,4.51568 0.10828,6.77277 0.44274,2.1535 0.56424,4.43229 1.38363,6.49999 -0.41868,-1.45299 1.44916,4.30238 1.79156,3.09995 1.27332,0.18748 2.56933,0.18594 3.80871,-0.1638 1.68519,-0.69113 2.97642,-1.8896 4.3583,-2.99153 1.04021,-0.87986 1.90374,-2.10055 2.09223,-3.44208 0.75904,-1.86706 1.19896,-3.74256 1.5531,-5.69785 0.35994,-1.76341 0.1938,-3.54012 -0.0565,-5.30267 -0.53506,-2.67921 -0.35483,-5.29968 0.55501,-7.86802 3.31702,-4.83359 7.67102,-4.71049 13.14199,-3.66115 3.15479,0.77835 6.12842,2.0289 9.13144,3.19505 2.06209,0.89675 4.22524,1.18236 6.44028,1.48208 1.98721,0.31599 3.98173,0.16048 5.9625,-0.0921 0.85155,-0.22712 1.869,-0.0977 2.65155,-0.54548 0.0494,-0.0282 0.12498,-0.11397 0.0776,-0.14519 -0.13468,-0.0888 -0.50952,0.16685 -0.56155,0.19523 -0.46447,0.13531 -0.17931,-1.92091 -0.72668,-2.39009 -1.24761,-2.11419 -2.34361,-4.29574 -3.57024,-6.41939 -1.67708,-2.34268 -2.79203,-4.95179 -4.03828,-7.49938 -2.06989,-3.69367 -1.48889,-7.8748 2.22384,-10.4391 0.60887,-0.42053 1.35116,-0.63862 2.02673,-0.95791 2.91146,-0.78743 5.9269,-0.52381 8.89482,-0.23275 3.06815,0.64745 6.2087,0.30894 9.29274,-0.04 3.70358,-0.49286 7.3693,-1.20107 11.02952,-1.91671 0.99626,-0.30205 2.55392,-0.77391 2.57374,-1.96681 0.0768,-1.18847 -0.22185,-2.11475 -1.00098,-3.03104 -1.77315,-1.82902 -4.04248,-3.13787 -6.11641,-4.63812 -1.67349,-1.06388 -3.54808,-1.97252 -5.51912,-2.44021 -1.96131,-0.2099 -3.94016,0.0124 -5.91359,0.0136 -2.57889,-0.01 -5.10578,0.50723 -7.67054,0.66187 -2.38519,0.11128 -4.7591,-0.0354 -7.14098,-0.11092 -2.20628,-0.0286 -4.3664,0.4062 -6.56105,0.52508 -4.44515,-0.17119 -6.80955,-3.00357 -8.21837,-6.60986 -1.04694,-2.06001 -1.88088,-4.1981 -2.59682,-6.37571 -1.10863,-1.92863 -1.87369,-4.00035 -2.57191,-6.08309 -0.66402,-2.74232 -1.78236,-5.34864 -2.76051,-8.00004 -0.95811,-2.66417 -2.19658,-5.22446 -3.15052,-7.89298 -1.00874,-2.09908 -1.98172,-4.2089 -3.03033,-6.29058 -1.53113,-2.79375 -3.63779,-5.24808 -5.54003,-7.82104 -2.09203,-3.20135 -4.65297,-6.08033 -7.14099,-9.0109 -2.37819,-2.81741 -4.75668,-5.6395 -7.34952,-8.28863 -1.941632,-1.91328 -3.951059,-3.85238 -6.284048,-5.35683 -2.052196,-1.38599 -4.14575,-2.74338 -6.320978,-3.95887 -2.031811,-1.0429 -4.176459,-1.87641 -6.28183,-2.78167 -2.064462,-0.87037 -4.236593,-1.45319 -6.394252,-2.07706 -2.287156,-0.63705 -4.622078,-1.05947 -6.940838,-1.57648 -2.581946,-0.68072 -5.280812,-0.87587 -7.928575,-1.28105 -2.573925,-0.31073 -5.157281,-0.10645 -7.712972,0.22849 -2.532758,0.13679 -5.062461,0.17325 -7.583221,0.45901 -0.736905,0.16643 -4.560909,0.45043 -4.730214,0.99016 -0.797516,0.62451 -2.108456,1.3529 -2.317897,2.38147 -2.972867,5.65707 -11.529811,1.7263 -8.556944,-3.93079 l 0,0 c 1.439092,-2.50184 3.410335,-4.61565 6.020065,-6.1223 2.661389,-1.31681 5.469585,-1.86944 8.455873,-2.1696 2.462267,-0.27096 4.931428,-0.3995 7.410329,-0.43823 3.500766,-0.44524 7.039676,-0.66877 10.555882,-0.1948 2.872809,0.44014 5.798492,0.67188 8.60352,1.40793 2.520839,0.56418 5.061714,1.02962 7.547081,1.73186 2.562447,0.74415 5.137177,1.45895 7.584044,2.50521 2.418713,1.06169 4.905955,1.99755 7.222591,3.25113 2.373,1.36371 4.697053,2.81381 6.947324,4.34732 2.81127,1.93919 5.40383,4.15834 7.74985,6.57898 2.73072,2.80797 5.26866,5.77056 7.77401,8.75507 2.61725,3.08678 5.30412,6.12689 7.51936,9.48876 2.19092,2.9758 4.61479,5.82141 6.31772,9.08497 1.21014,2.40239 2.3546,4.83214 3.4537,7.28078 0.9286,2.6398 2.19989,5.1535 3.11553,7.79633 1.00699,2.73434 2.15755,5.42715 2.84923,8.25282 0.69775,2.10974 1.60619,4.12274 2.58725,6.12962 0.67095,2.06841 1.52817,4.0642 2.47735,6.03488 0.53288,1.5834 -0.0661,0.21694 -1.13217,0.64802 2.39908,0.0725 4.8235,-0.82953 7.25407,-0.52546 2.11421,0.0736 4.21429,0.216 6.33216,0.11596 2.71035,-0.0316 5.39731,-0.85894 8.13424,-0.67262 2.85188,-5.9e-4 5.73034,-0.36772 8.53313,0.32834 3.12112,0.8749 6.12917,2.15656 8.758,3.97653 2.91042,2.13198 6.13188,3.97082 8.28882,6.86325 2.33953,3.64531 3.15612,7.09268 1.78724,11.24253 -2.04528,4.10532 -4.7315,6.13346 -9.43525,7.29089 -3.93255,0.76867 -7.87182,1.52661 -11.85312,2.04281 -3.77809,0.41504 -7.65257,0.79046 -11.41524,0.0539 -0.46426,-0.0456 -4.25602,-0.2261 -4.30362,-0.2677 -0.0628,-0.0549 0.11621,-0.11842 0.17424,-0.17765 -0.11113,-0.41609 0.0198,0.19293 0.3196,-0.78245 0.20126,-0.6547 -0.99388,-2.56191 0.33934,0.30523 1.14492,2.36842 2.18337,4.78102 3.7471,6.95099 1.38996,2.40642 2.66003,4.86733 4.01131,7.29322 1.30027,3.50326 1.7684,6.71713 0.13681,10.23546 -0.42755,0.57863 -0.77778,1.21448 -1.28269,1.73574 -2.044,2.10998 -4.98234,2.75811 -7.86802,3.11215 -2.8552,0.3484 -5.73495,0.51507 -8.59466,0.0767 -2.99479,-0.41154 -5.93204,-0.91168 -8.72366,-2.07122 -2.45025,-0.95243 -4.87288,-1.96831 -7.41321,-2.6992 -1.28655,-0.25423 -3.21487,-0.11923 -2.38468,-1.67479 -0.0801,-1.33978 -0.26569,3.31305 0.0835,3.33558 0.35715,2.64164 0.52488,5.30742 -10e-4,7.94445 -0.39004,2.11243 -0.81733,4.18876 -1.65861,6.19127 -0.86915,3.16784 -2.50766,6.07248 -5.20262,8.23399 -2.57681,2.04845 -5.14518,4.06939 -8.49988,4.91286 -3.95555,0.71178 -7.88867,0.70468 -11.44062,-1.32366 -0.58601,-0.45241 -1.22041,-0.85495 -1.758034,-1.35714 -1.791925,-1.67372 -2.619247,-4.05954 -3.508796,-6.20632 -0.89637,-2.73219 -1.399321,-5.5571 -1.805619,-8.38814 -0.238003,-2.33582 -0.301232,-4.67503 -0.130313,-7.01844 -0.175646,-2.36132 -0.192724,-4.72823 -0.817157,-7.03862 -0.462016,-2.80343 -0.773844,-5.63536 -0.238575,-8.45578 0.286999,-1.50323 0.561634,-3.03536 0.889472,-4.51254 0.09336,0.10909 0.496895,0.24427 0.429566,0.11957 -0.299832,-0.55522 -1.154976,-0.75492 -1.603494,-1.17578 -1.881828,-1.0467 -3.647543,-2.24289 -5.458118,-3.39044 -2.122252,-1.52528 -4.321503,-2.96797 -6.171122,-4.79733 -2.427249,-1.94626 -4.872963,-3.89593 -7.080173,-6.05984 -1.94973,-2.12639 -3.894428,-4.26908 -5.648661,-6.54011 -1.605993,-2.26411 -3.350101,-4.43835 -5.287345,-6.46683 -1.662091,-2.14762 -3.351164,-4.27551 -4.957475,-6.46055 -1.78774,-2.74322 -3.678833,-5.41721 -5.110277,-8.34913 -1.562454,-2.40874 -3.060795,-4.86682 -5.001093,-7.03608 -1.910175,-2.44844 -3.881405,-4.85497 -5.095087,-7.70286 -1.511873,-2.98425 -2.793704,-6.04488 -3.337264,-9.32835 -0.654587,-2.87464 -1.309128,-5.74929 -1.964532,-8.62374 -0.626969,-2.74873 -1.254235,-5.49739 -1.885967,-8.24518 -0.59846,-2.60696 -1.203529,-5.21274 -1.764112,-7.82712 -0.596128,-2.89705 -1.15757,-5.81087 -1.315552,-8.76293 -0.142721,-3.11577 -0.07155,-6.23825 -0.475457,-9.33966 -0.457197,-6.28851 9.054862,-6.89301 9.512059,-0.60451 z"
       inkscape:connector-curvature="0" />
    <path
       style="fill:#000000;fill-opacity:1;stroke:none"
       id="path3174"
       d="m 77.481274,862.84232 c -1.585949,2.72496 -2.981503,5.54139 -4.60964,8.2444 -0.934104,1.50363 -1.085776,3.272 -1.47391,4.94595 -0.463675,1.73456 -0.35532,3.49459 -0.13188,5.24899 0.323771,2.09495 1.414874,4.0456 2.545592,5.85711 1.150948,1.93166 2.593929,3.73633 4.42385,5.14674 1.363351,0.9984 2.778911,1.78443 4.513729,1.95051 2.143,0.13974 4.267913,0.25455 6.413573,0.10379 2.179411,-0.20235 4.326578,-0.62047 6.469093,-1.03279 1.647588,-0.30268 3.342732,-0.92218 4.616769,-1.97393 1.19736,-0.70865 1.20433,-1.55057 1.64605,-2.78341 0.72878,-2.3104 0.84464,-4.71734 1.05286,-7.10357 0.20172,-2.21761 -0.0521,-4.42498 -0.42082,-6.61286 -0.39487,-2.13026 -0.89292,-4.24224 -1.37976,-6.35533 -0.52879,-1.61779 -1.655889,-2.86768 -2.813028,-4.13266 -1.96054,-1.9152 -3.693517,-4.08722 -5.957133,-5.70564 -1.138618,-0.65944 -2.41033,-0.50275 -3.679927,-0.3755 -2.159341,0.28826 -4.28595,0.75454 -6.414244,1.19431 -1.787158,0.31186 -3.434041,1.04783 -4.97374,1.92406 -0.670645,0.50645 -1.280511,1.07544 -1.923003,1.61442 -5.019376,4.20773 -11.384037,-2.42897 -6.364661,-6.6367 l 0,0 c 1.083481,-0.90756 2.116565,-1.87831 3.355668,-2.60615 2.432887,-1.36793 5.051474,-2.46971 7.848568,-2.99946 2.523515,-0.52136 5.046686,-1.07401 7.614949,-1.36824 3.771814,-0.28633 7.373795,0.11799 10.505027,2.30235 2.682864,2.0645 4.980124,4.49415 7.284634,6.91873 2.12926,2.39244 4.04961,4.91029 4.83712,7.99348 0.52536,2.28066 1.06208,4.56033 1.48004,6.86089 0.47563,2.8835 0.77023,5.79469 0.50237,8.71376 -0.27392,3.10124 -0.49165,6.22647 -1.51641,9.21042 -0.99313,2.7617 -2.23464,5.37683 -4.93448,7.05725 -2.5386,1.71058 -5.32533,3.09319 -8.445837,3.59478 -2.555639,0.49121 -5.119218,0.9786 -7.721947,1.19368 -2.855725,0.17836 -5.694495,0.0652 -8.542796,-0.18715 -3.468043,-0.56672 -6.549459,-1.86722 -9.262254,-3.99515 -2.607337,-2.13673 -4.835748,-4.64456 -6.499955,-7.50106 -1.729282,-2.88625 -3.314622,-5.93056 -3.732576,-9.25741 -0.322273,-2.72896 -0.401413,-5.47567 0.292018,-8.16828 0.607764,-2.5495 0.988311,-5.18476 2.502644,-7.44857 1.579385,-2.54705 2.833183,-5.25927 4.371664,-7.82868 3.02292,-5.63383 11.544727,-1.63689 8.521808,3.99694 z"
       inkscape:connector-curvature="0" />
    <path
       style="fill:#000000;fill-opacity:1;stroke:none"
       id="path3176"
       d="m 158.82607,982.08969 c 1.72036,3.29556 3.11877,6.72151 4.31723,10.20961 1.23081,3.13949 1.53042,6.16368 0.51769,9.3701 -0.58428,1.8882 -1.77161,3.5856 -2.31935,5.4777 -0.81205,2.2212 -1.059,4.572 -1.37964,6.8883 -0.63801,2.3121 -0.86889,4.6481 -0.69992,7.0228 0.18882,1.6856 0.38129,3.3668 1.1153,4.9191 0.36436,-0.013 -0.33879,-0.558 -0.19682,-0.6164 0.44113,-0.1814 2.17993,0.3497 2.63852,0.4112 3.0893,0.2103 6.17529,0.2812 9.26584,0.079 1.99027,-0.1646 3.99,-0.3258 5.73725,-1.295 1.62946,-1.0803 2.72087,-2.4697 3.67126,-4.0759 1.24235,-2.4945 2.08268,-5.1327 3.12563,-7.6986 1.27956,-3.9721 3.82884,-5.9749 7.98812,-7.1613 2.94967,-0.2901 5.96669,-0.2908 8.93026,-0.1251 2.22803,0.3806 2.14742,0.039 3.84154,-0.9821 1.09695,-1.3423 2.39173,-2.6498 3.01544,-4.2609 1.192,-2.45358 2.34018,-4.92081 3.17962,-7.50298 0.30636,-1.7879 1.12561,-4.10688 0.34366,-5.88826 -0.0697,-0.17005 -0.10618,-0.35543 -0.20913,-0.50995 -0.11586,-0.17407 0.36219,0.45185 0.19712,0.58701 -0.13929,0.11455 -0.30225,-0.20182 -0.43933,-0.31833 -1.42836,-1.21435 -0.93252,-0.86973 -2.17803,-2.99222 0.046,-1.12597 -0.13251,-2.27987 0.13804,-3.3779 0.48458,-1.96682 3.17745,-4.22005 4.43414,-5.86297 1.10243,-1.10833 1.77664,-2.09725 1.743,-3.57997 -0.19236,-0.88714 0.14717,-2.61465 -0.94559,-3.07108 -1.22843,-0.88177 -2.77697,-1.10165 -4.27978,-1.17975 -2.07157,-0.009 -4.10974,0.39017 -6.13058,0.77223 -1.94807,0.38777 -3.8455,1.14188 -5.52012,2.15164 -2.18939,1.02246 -4.0274,2.74758 -6.33274,3.56305 -0.65069,0.22989 -1.34054,0.34803 -2.01069,0.52258 -5.92066,0.10887 -6.05779,-2.75958 -8.50326,-6.35853 -0.19118,-0.22731 -0.38238,-0.45472 -0.57358,-0.68213 -4.04462,-5.04263 3.58289,-10.3905 7.62753,-5.34786 l 0,0 c 0.35925,0.45887 0.71853,0.91774 1.07778,1.37661 0.27878,0.43463 0.57389,0.86047 0.83635,1.30389 1.75535,2.9655 -0.091,0.42962 -2.36742,0.97352 -0.0762,0.0613 -0.3293,0.19073 -0.22908,0.18341 0.74192,-0.054 3.39149,-1.9077 4.1867,-2.3636 0.44025,-0.25239 0.87344,-0.51544 1.31018,-0.77312 2.67149,-1.48809 5.54317,-2.72303 8.61327,-3.28723 2.90217,-0.54609 5.83694,-1.0592 8.81315,-0.917 4.10089,0.37361 7.98532,1.49491 10.86211,4.41877 2.34463,2.95184 3.11915,5.48058 3.08965,9.12501 -0.22866,3.18325 -1.25792,6.03798 -3.58319,8.44665 -0.16433,0.20594 -2.83628,3.57474 -3.09096,3.64754 -0.8856,0.25296 4.08371,-5.43538 -0.15312,-2.59345 -0.29459,-0.3725 -0.58081,-0.75096 -0.8838,-1.11761 -0.24492,-0.29634 0.61758,0.47849 0.90233,0.74187 1.42933,1.32197 2.45767,2.68868 2.89699,4.54795 0.72226,3.50868 0.52952,7.04835 -0.53394,10.49476 -0.96489,2.87621 -2.18658,5.65225 -3.52949,8.39015 -1.53889,3.1624 -3.73692,6.0689 -6.65093,8.2561 -2.9923,1.767 -6.08199,3.0008 -9.69228,2.352 -1.88125,-0.2141 -3.83079,0.1533 -5.70356,-0.1604 -1.69992,0.2016 0.10901,0.1189 -0.40413,-0.1361 -0.72058,-0.3583 -0.98376,1.8053 -1.18591,1.9 -1.24319,2.9568 -2.14241,6.0472 -3.72211,8.8797 -1.89364,3.0896 -4.2843,5.7566 -7.59208,7.6077 -2.99535,1.376 -6.13026,2.1335 -9.47746,2.271 -3.78233,0.2308 -7.56679,0.1674 -11.34248,-0.1618 -3.95602,-0.5857 -7.85689,-1.467 -9.78439,-5.1332 -1.11141,-2.5143 -1.63757,-5.1519 -1.85255,-7.8628 -0.17163,-2.9252 -0.0357,-5.8541 0.76292,-8.7037 0.3963,-2.8288 0.74438,-5.6896 1.73605,-8.4026 0.69062,-1.9565 1.6584,-3.8018 2.41135,-5.738 0.82734,-0.21881 -0.53603,-3.30992 -0.59189,-3.72611 -1.05086,-3.08046 -2.28783,-6.10268 -3.80239,-9.01247 -2.9611,-5.66238 5.604,-9.57764 8.5651,-3.91525 z"
       inkscape:connector-curvature="0" />
  </g>
</svg>
