<?xml version="1.0" encoding="UTF-8" standalone="no"?>
<!-- Created with Inkscape (http://www.inkscape.org/) -->

<svg
   xmlns:dc="http://purl.org/dc/elements/1.1/"
   xmlns:cc="http://creativecommons.org/ns#"
   xmlns:rdf="http://www.w3.org/1999/02/22-rdf-syntax-ns#"
   xmlns:svg="http://www.w3.org/2000/svg"
   xmlns="http://www.w3.org/2000/svg"
   xmlns:sodipodi="http://sodipodi.sourceforge.net/DTD/sodipodi-0.dtd"
   xmlns:inkscape="http://www.inkscape.org/namespaces/inkscape"
   width="250"
   height="250"
   id="svg3318"
   version="1.1"
   inkscape:version="0.48.5 r10040"
   sodipodi:docname="money.svg">
  <defs
     id="defs3320" />
  <sodipodi:namedview
     id="base"
     pagecolor="#ffffff"
     bordercolor="#666666"
     borderopacity="1.0"
     inkscape:pageopacity="0.0"
     inkscape:pageshadow="2"
     inkscape:zoom="1.01"
     inkscape:cx="375"
     inkscape:cy="163.56436"
     inkscape:document-units="px"
     inkscape:current-layer="layer1"
     showgrid="false"
     inkscape:window-width="1366"
     inkscape:window-height="715"
     inkscape:window-x="-8"
     inkscape:window-y="-8"
     inkscape:window-maximized="1" />
  <metadata
     id="metadata3323">
    <rdf:RDF>
      <cc:Work
         rdf:about="">
        <dc:format>image/svg+xml</dc:format>
        <dc:type
           rdf:resource="http://purl.org/dc/dcmitype/StillImage" />
        <dc:title></dc:title>
      </cc:Work>
    </rdf:RDF>
  </metadata>
  <g
     inkscape:label="Layer 1"
     inkscape:groupmode="layer"
     id="layer1"
     transform="translate(0,-802.36218)">
    <path
       style="fill:#000000;fill-opacity:1;stroke:none"
       id="path3180"
       d="m 69.960129,905.12 c -3.308879,-2.07108 -6.799648,-3.8052 -10.171133,-5.7625 -3.05902,-1.85065 -5.988041,-3.86246 -8.63863,-6.2806 -2.562096,-2.06705 -4.225393,-4.98094 -6.013987,-7.7063 -1.725048,-3.04288 -3.62713,-5.97203 -5.387898,-8.99112 -2.160052,-3.48941 -3.53959,-7.38813 -4.566481,-11.35377 -0.784962,-3.2907 -0.953307,-6.67363 -1.025,-10.04385 -0.102918,-3.00889 -0.03977,-5.97997 0.446007,-8.95202 0.72679,-3.50222 2.594682,-6.30409 4.826439,-8.98635 2.698854,-3.14819 6.275224,-4.77538 10.197105,-5.69027 3.232811,-0.59251 6.530675,-0.55725 9.803292,-0.56465 3.16736,-0.25475 6.069929,0.88159 9.011991,1.85158 2.943049,1.22476 5.55987,3.11767 8.039185,5.11384 1.497146,1.31653 3.241368,1.84987 5.152849,2.13668 2.117692,0.2385 4.54215,1.54749 6.581231,0.44947 1.593881,-1.2459 2.937662,-2.68265 4.003878,-4.4397 1.7307,-2.87431 3.34719,-5.81375 4.879128,-8.80149 1.239308,-3.13914 3.151345,-5.874 5.147175,-8.54675 1.91528,-2.9221 4.87358,-4.49823 7.95987,-5.82637 3.54187,-1.28887 7.30009,-1.52936 11.02468,-1.66882 3.87387,-0.28773 7.55677,-0.0798 11.23969,1.20841 3.93596,1.54337 6.88181,4.26694 9.06288,7.87371 1.26309,2.42869 2.39414,4.91828 3.53575,7.40752 0.80147,2.11279 1.37723,4.18097 2.88098,5.87829 1.08375,0.96381 2.5127,1.10567 3.89016,1.2458 3.03578,0.21549 6.08306,0.17593 9.1244,0.16487 2.41606,-0.19931 4.70873,-0.92582 7.03808,-1.54453 3.67055,-0.97593 7.41892,-1.06152 11.17156,-0.69893 3.54945,0.59938 6.9779,1.59515 10.15234,3.31818 3.43767,2.33989 4.49787,6.17096 5.37608,10.03673 0.64535,3.14367 0.78764,6.35555 0.86476,9.55577 0.44016,4.52115 -0.94989,7.90511 -3.3311,11.64513 -2.02579,3.00724 -3.83741,6.1474 -6.13162,8.95514 -2.414,2.64319 -5.26434,4.8193 -8.02693,7.06682 -2.10301,1.66127 -4.34304,3.24381 -6.25163,5.13954 -0.68414,1.23688 -1.61479,2.39705 -1.85014,3.82926 -0.39565,2.34199 -0.41829,4.72657 -0.44953,7.09604 0.15597,2.02057 -0.57249,4.54005 0.74664,6.27075 1.18745,2.24177 2.84048,4.16715 4.80495,5.73903 2.70675,2.08083 5.38537,4.18757 8.02676,6.35213 2.8039,2.51877 5.57648,5.07194 8.12581,7.85805 2.83723,2.91791 4.62481,6.64015 6.63289,10.1513 1.99308,2.97104 3.68247,6.1361 5.48521,9.22674 1.38303,2.55013 2.38264,5.27791 3.70215,7.85989 1.562,3.64216 3.15168,7.23952 4.21755,11.06848 0.84527,3.86092 1.6912,7.70253 2.14508,11.63408 0.32868,3.22428 0.37839,6.46719 0.40138,9.70558 0.30211,4.03446 -0.894,7.71247 -2.83631,11.16953 -1.60805,3.24887 -3.88175,6.06678 -6.12045,8.87868 -3.10828,3.7194 -6.6959,7.0465 -10.46181,10.0671 -4.11329,3.3707 -8.71397,5.9331 -13.3734,8.412 -3.96224,2.1921 -8.38805,3.1862 -12.68469,4.453 -3.56891,1.0515 -7.22545,1.7287 -10.81113,2.7128 -4.0642,1.2405 -8.3002,1.6148 -12.46636,2.3451 -3.75868,0.5436 -7.45167,1.4055 -11.21974,1.884 -5.17668,0.3351 -10.34001,0.7271 -15.5072,1.2017 -4.09377,0.7476 -8.18844,1.4208 -12.33452,1.7776 -4.28743,0.2969 -8.588269,0.2939 -12.883632,0.3072 -4.171572,0 -8.343155,0 -12.514739,-0.012 -2.82937,0 -5.658763,0 -8.488145,0 -3.464534,0.1576 -6.877198,-0.1608 -10.266665,-0.8791 -3.522681,-0.7296 -6.897396,-1.8283 -10.081918,-3.5205 -3.212179,-1.7726 -6.086873,-4.0038 -8.879559,-6.3806 -2.806484,-2.143 -5.437417,-4.4853 -7.886338,-7.0376 -2.674728,-2.6709 -3.583022,-6.1341 -4.526013,-9.6677 -0.838072,-2.9082 -1.18821,-5.9121 -1.386213,-8.9247 -0.541104,-2.57235 -0.928084,-5.16719 -1.174967,-7.78459 -0.433943,-3.36546 -0.0276,-6.70018 0.37523,-10.04141 0.379146,-2.98175 0.54819,-5.98283 0.63702,-8.98595 -0.08773,-3.14663 0.408214,-6.24864 1.170965,-9.28662 0.745626,-2.53294 1.192404,-5.12662 1.859384,-7.68031 0.576209,-3.98891 2.609758,-7.47877 4.784163,-10.77039 1.868905,-2.62813 3.722625,-5.29831 5.324689,-8.10814 1.555354,-3.11257 3.567705,-5.94447 5.815214,-8.57384 1.991129,-2.21707 4.017905,-4.42172 6.120653,-6.53513 1.917496,-2.15694 3.940066,-4.2109 6.102071,-6.1146 1.919833,-1.49266 3.171144,-3.59557 4.566384,-5.55549 1.314316,-1.884 2.42876,-3.80516 2.956451,-6.05767 0.207572,-1.2688 0.118344,-0.62052 0.263996,-1.94534 0.885156,-7.42091 11.222755,-6.15006 10.337586,1.27084 l 0,0 c -0.277095,2.21594 -0.102918,1.09782 -0.528365,3.35342 -0.941978,3.49069 -2.4794,6.64999 -4.592174,9.5741 -1.867531,2.61907 -3.64246,5.34525 -6.191166,7.35513 -2.007097,1.75695 -3.840715,3.68861 -5.62931,5.6728 -1.949395,1.9057 -3.781893,3.95547 -5.603098,5.98209 -1.863916,2.07247 -3.369558,4.43319 -4.636801,6.92322 -1.744209,2.99026 -3.672346,5.88027 -5.684854,8.68747 -1.582361,2.33745 -3.013574,4.68047 -3.340959,7.55414 -0.670523,2.56109 -1.103201,5.17047 -1.867447,7.71092 -0.656145,2.2277 -0.855691,4.54821 -0.819067,6.86453 -0.100628,3.32501 -0.291135,6.64765 -0.709352,9.94913 -0.312852,2.59478 -0.714401,5.14914 -0.343896,7.76669 0.246666,2.72242 0.78078,5.38986 1.198744,8.0879 0.144639,2.3259 0.395017,4.6455 1.056622,6.8879 0.462541,1.7813 0.632742,3.6181 1.930113,5.0219 2.201834,2.3035 4.591271,4.382 7.118888,6.3131 2.233107,1.9093 4.492172,3.7221 7.069886,5.1407 2.321769,1.2851 4.841372,1.9622 7.421773,2.5281 2.647998,0.6378 5.327208,0.7243 8.040186,0.6342 2.833069,5e-4 5.666126,0 8.499208,0 4.156821,0 8.313654,0.014 12.470475,0.01 4.016821,-0.012 8.038687,-0.01 12.048777,-0.2706 4.12441,-0.3431 8.17997,-1.1049 12.26253,-1.7713 5.05789,-0.4644 10.11225,-0.8666 15.18126,-1.1664 3.60013,-0.4339 7.11986,-1.3193 10.71329,-1.8083 3.85845,-0.6754 7.78285,-1.0114 11.54975,-2.141 3.52011,-0.9454 7.09308,-1.6563 10.59982,-2.6531 3.62829,-1.0654 7.38704,-1.8579 10.74987,-3.663 4.10688,-2.1847 8.18174,-4.3957 11.80041,-7.3824 3.17881,-2.4745 6.13467,-5.3228 8.77162,-8.38083 1.93105,-2.42221 3.91555,-4.82383 5.27212,-7.64325 1.16587,-1.78152 1.56754,-3.54702 1.36829,-5.682 -0.0198,-2.85868 -0.0548,-5.72157 -0.33301,-8.56886 -0.37772,-3.38873 -1.14263,-6.68765 -1.83497,-10.02076 -0.83783,-3.15274 -2.24272,-6.05574 -3.45101,-9.07385 -1.20253,-2.40439 -2.20273,-4.89414 -3.39779,-7.29923 -1.81276,-3.11779 -3.52406,-6.30067 -5.52712,-9.29935 -1.62336,-2.83867 -3.0043,-5.89584 -5.26674,-8.27525 -2.20154,-2.42115 -4.61979,-4.61246 -7.02862,-6.81727 -2.66329,-2.18407 -5.37147,-4.29988 -8.09483,-6.40845 -3.05403,-2.60409 -5.72048,-5.61242 -7.54257,-9.24928 -0.37714,-0.87246 -0.82943,-1.71529 -1.13145,-2.61739 -0.91191,-2.72385 -0.65758,-5.63768 -0.67959,-8.45667 0.045,-3.24368 0.10569,-6.51283 0.80506,-9.69338 0.95434,-3.2668 2.52124,-6.27204 4.79456,-8.80825 2.1714,-2.01579 4.49697,-3.88415 6.85346,-5.66857 2.24935,-1.82865 4.57054,-3.58998 6.60538,-5.66553 2.10984,-2.3964 3.48549,-5.36799 5.37702,-7.93582 1.5464,-2.28374 1.84375,-2.61984 1.60747,-5.56165 -0.0578,-2.50227 -0.14066,-5.01599 -0.61189,-7.48027 -0.23316,-1.0819 -0.62427,-2.12556 -0.86149,-3.19707 -0.0212,-0.096 0.39553,0.10626 0.47674,0.01 -1.67864,-1.30067 -4.08082,-1.29696 -6.01144,-1.97691 -2.52556,-0.26696 -5.03908,-0.24964 -7.51849,0.40806 -3.17187,0.83676 -6.32564,1.76469 -9.62904,1.88669 -3.47334,0.0131 -6.95538,0.059 -10.41927,-0.24223 -4.02646,-0.54265 -7.76191,-1.76442 -10.58405,-4.91423 -2.01677,-2.49063 -3.43257,-5.1927 -4.38112,-8.26752 -1.00091,-2.20946 -2.0113,-4.40997 -3.10938,-6.57125 -0.66362,-1.53768 -2.03485,-2.45855 -3.48948,-3.1727 -0.4657,-0.17148 -0.90204,-0.43156 -1.38285,-0.55267 -1.94677,-0.49034 -4.05994,0.1096 -6.03189,-0.0648 -2.48307,0.0872 -4.9898,0.18786 -7.39921,0.86526 -1.4928,0.6093 -2.77704,1.01851 -3.66514,2.45847 -1.648,2.20009 -3.22568,4.41747 -4.20365,7.03476 -1.67967,3.27578 -3.45954,6.49699 -5.36176,9.64525 -2.422984,3.72895 -5.418397,6.81738 -9.460055,8.74203 -4.188203,1.25094 -7.392693,1.03925 -11.570484,-0.0456 -3.644941,-0.64268 -7.071694,-1.85981 -9.955499,-4.30395 -1.510114,-1.233 -3.094149,-2.3689 -4.783754,-3.33047 -1.905107,-0.63662 -3.689195,-1.52575 -5.751294,-1.32732 -2.537896,0.005 -5.093207,-0.0386 -7.611918,0.32309 -1.690015,0.33019 -3.2583,0.84801 -4.45579,2.18239 -1.028482,1.2359 -2.046854,2.32946 -2.514276,3.92987 -0.396379,2.30933 -0.358333,4.62035 -0.302078,6.96473 0.05098,2.55337 0.137204,5.12088 0.696457,7.62214 0.749917,3.0243 1.805828,5.99819 3.461858,8.64124 1.638809,2.8604 3.479526,5.59852 5.076625,8.48651 1.329308,2.02624 2.476363,4.27004 4.397582,5.78687 2.009917,1.97166 4.439292,3.36814 6.776148,4.89446 3.188342,1.87057 6.5223,3.47576 9.640515,5.47339 6.585834,3.34298 1.928944,12.79833 -4.656878,9.45536 z"
       inkscape:connector-curvature="0" />
    <path
       style="fill:#000000;fill-opacity:1;stroke:none"
       id="path3186"
       d="m 133.12081,926.70766 c -2.99234,-1.19326 -5.46572,-1.23854 -8.57286,-0.8244 -2.94371,0.55646 -5.6276,1.88686 -8.35342,3.08481 -2.37067,1.01345 -4.31057,2.62765 -6.04238,4.5174 -1.26231,1.4641 -1.48169,3.23105 -1.66933,5.0877 0.23071,1.42345 0.74454,3.31809 1.90967,4.24181 1.79703,0.33488 3.57653,0.73049 5.39378,0.99301 4.47143,0.52175 8.97811,0.59361 13.47384,0.65666 4.33357,-0.24547 8.50668,0.41268 12.56534,1.93238 3.96069,1.70295 6.53029,4.85683 8.56783,8.56878 1.33582,3.09596 2.43981,6.23923 3.05823,9.56269 0.52814,4.50469 -0.94401,8.31164 -3.67199,11.78373 -2.58984,3.13805 -6.16782,5.01538 -9.74076,6.74895 -3.22831,1.52074 -6.71737,2.05812 -10.2315,2.30797 -3.47518,0.14605 -6.95494,0.10452 -10.43221,0.0941 -3.75581,0.0583 -7.44949,0.0946 -11.13572,-0.69241 -2.47214,-0.69377 -1.21426,-0.26787 -3.76381,-1.30721 -6.775091,-2.92732 -2.69719,-12.6544 4.07789,-9.72708 l 0,0 c 1.11317,0.55746 0.45117,0.27929 2.02456,0.73294 2.86227,0.81255 5.8939,0.24274 8.82745,0.4224 3.23381,0.009 6.46947,0.0457 9.70187,-0.0704 2.21135,-0.14313 4.42501,-0.38598 6.47324,-1.31399 2.20247,-1.04648 4.52272,-2.0913 6.18611,-3.94684 0.88045,-0.96927 1.39433,-1.7534 1.44071,-3.13574 -0.37834,-2.24027 -1.1887,-4.30621 -1.9708,-6.42535 -0.7814,-1.55689 -1.60258,-2.93556 -3.19004,-3.75198 -2.83452,-1.26644 -5.88238,-1.28546 -8.93106,-1.21271 -4.95109,-0.0703 -9.91457,-0.15947 -14.83571,-0.76686 -4.26753,-0.64657 -8.6018,-1.34949 -11.79389,-4.57391 -2.777914,-3.54248 -4.57145,-7.69045 -4.349947,-12.31126 0.489319,-4.1413 1.595231,-8.00408 4.445187,-11.15549 2.72987,-2.90576 5.80728,-5.37944 9.47924,-6.96197 3.62911,-1.59237 7.24455,-3.26965 11.19447,-3.87185 4.6248,-0.56677 8.75635,-0.37787 13.15893,1.28504 6.98534,2.36384 3.69241,12.39275 -3.29292,10.02893 z"
       inkscape:connector-curvature="0" />
    <path
       style="fill:#000000;fill-opacity:1;stroke:none"
       id="path3188"
       d="m 127.89163,908.58009 c 0,3.9557 0,7.91139 0,11.86707 -0.28603,3.84476 -0.80388,7.66372 -1.07966,11.51035 -0.19922,3.0439 -0.21231,6.09575 -0.22748,9.14501 -0.007,3.175 -0.001,6.35001 10e-4,9.52501 0.002,3.35929 0.004,6.71858 0.004,10.07787 2.8e-4,3.26046 2.4e-4,6.52094 2.3e-4,9.7814 -2e-5,2.97416 -3e-5,5.9483 -5e-5,8.92245 0,2.80668 0,5.61337 0,8.42004 0.0121,1.13016 -0.0715,2.24457 0.11895,3.36073 0.87285,7.4224 -9.46684,8.67558 -10.33969,1.25316 l 0,0 c -0.15219,-1.54274 -0.26553,-3.06199 -0.19241,-4.61389 0,-2.80669 0,-5.61338 0,-8.42007 1e-5,-2.97416 2e-5,-5.94831 4e-5,-8.92249 2e-5,-3.26002 6e-5,-6.52005 -2.3e-4,-9.78008 -3.8e-4,-3.35664 -10e-4,-6.71328 -0.004,-10.06992 -0.002,-3.19599 -0.008,-6.39197 -0.001,-9.58793 0.0166,-3.28894 0.0353,-6.58052 0.25517,-9.86337 0.26034,-3.58943 0.67733,-7.16028 1.05183,-10.73827 0,-3.95568 0,-7.91137 0,-11.86707 0,-7.4751 10.41313,-7.4751 10.41313,0 z"
       inkscape:connector-curvature="0" />
  </g>
</svg>
