<?xml version="1.0" encoding="UTF-8" standalone="no"?>
<!-- Created with Inkscape (http://www.inkscape.org/) -->

<svg
   xmlns:dc="http://purl.org/dc/elements/1.1/"
   xmlns:cc="http://creativecommons.org/ns#"
   xmlns:rdf="http://www.w3.org/1999/02/22-rdf-syntax-ns#"
   xmlns:svg="http://www.w3.org/2000/svg"
   xmlns="http://www.w3.org/2000/svg"
   xmlns:sodipodi="http://sodipodi.sourceforge.net/DTD/sodipodi-0.dtd"
   xmlns:inkscape="http://www.inkscape.org/namespaces/inkscape"
   width="250"
   height="250"
   id="svg2999"
   version="1.1"
   inkscape:version="0.48.5 r10040"
   sodipodi:docname="mp.svg">
  <defs
     id="defs3001" />
  <sodipodi:namedview
     id="base"
     pagecolor="#ffffff"
     bordercolor="#666666"
     borderopacity="1.0"
     inkscape:pageopacity="0.0"
     inkscape:pageshadow="2"
     inkscape:zoom="1.4"
     inkscape:cx="60.649235"
     inkscape:cy="172.86611"
     inkscape:document-units="px"
     inkscape:current-layer="layer1"
     showgrid="false"
     inkscape:window-width="1366"
     inkscape:window-height="745"
     inkscape:window-x="-8"
     inkscape:window-y="-8"
     inkscape:window-maximized="1" />
  <metadata
     id="metadata3004">
    <rdf:RDF>
      <cc:Work
         rdf:about="">
        <dc:format>image/svg+xml</dc:format>
        <dc:type
           rdf:resource="http://purl.org/dc/dcmitype/StillImage" />
        <dc:title></dc:title>
      </cc:Work>
    </rdf:RDF>
  </metadata>
  <g
     inkscape:label="Layer 1"
     inkscape:groupmode="layer"
     id="layer1"
     transform="translate(0,-802.36218)">
    <path
       style="fill:#000000;fill-opacity:1;stroke:#000000;stroke-opacity:1;stroke-width:1.5;stroke-miterlimit:4;stroke-dasharray:none"
       d="M 148.5625 14.625 C 148.02424 14.6794 147.46498 14.82538 146.96875 15.09375 C 145.97628 15.63049 145.18284 16.64024 144.8125 18.03125 C 144.20115 20.71126 144.00852 23.45214 143.875 26.125 C 143.85012 27.144785 143.82066 28.169847 143.8125 29.1875 C 142.46164 28.932079 141.10617 28.791681 139.78125 28.6875 C 139.77125 28.6865 139.7597 28.6885 139.75 28.6875 C 138.28947 28.47675 136.84694 28.02981 135.1875 27.90625 L 135.125 27.90625 L 135.09375 27.90625 C 131.9889 28.02323 129.96875 29.98571 128.5625 32.375 L 128.53125 32.40625 L 128.53125 32.4375 C 127.78586 33.89507 126.89026 35.50908 126.875 37.4375 C 126.87 38.02771 126.98902 38.53915 127.03125 38.96875 L 127.03125 39 L 127.03125 39.03125 C 127.38265 41.0107 128.53934 42.46686 129.21875 43.9375 L 129.21875 43.96875 L 129.25 44 C 129.71393 44.8448 130.09775 45.74957 130.4375 46.6875 C 130.4603 46.7504 130.4776 46.81193 130.5 46.875 C 130.5856 47.40877 130.76353 47.90092 130.90625 48.28125 C 131.05909 48.68854 131.13999 48.9996 131.125 49.28125 C 131.1241 49.29805 131.127 49.32715 131.125 49.34375 C 130.91517 50.53658 130.68879 51.70025 130.375 52.84375 C 130.372 52.85375 130.378 52.8653 130.375 52.875 C 129.6443 54.98555 128.93881 57.08854 128.28125 59.21875 C 128.27825 59.22775 128.28425 59.2406 128.28125 59.25 C 127.50531 61.43422 126.85411 63.62095 126.25 65.84375 C 125.7485 67.66006 125.06091 69.43184 124.34375 71.21875 C 123.57169 73.11145 122.7741 75.01711 121.96875 76.90625 C 121.32651 78.410999 120.67205 79.902406 120.03125 81.40625 L 115 79.28125 C 112.75873 78.33909 110.50812 77.24465 108.03125 76.59375 L 108 76.59375 L 107.96875 76.59375 C 106.81733 76.39982 105.67099 76.33189 104.53125 76.34375 C 103.39151 76.35565 102.26219 76.44005 101.15625 76.53125 C 98.526282 76.6978 95.98805 77.16965 93.46875 77.59375 C 91.282502 77.93445 89.229986 78.60196 87.1875 79 L 87.15625 79 C 85.502066 79.41812 83.800103 79.73843 82.09375 80.1875 L 82.0625 80.21875 C 80.164739 80.81346 78.283591 81.50036 76.46875 82.375 C 76.45995 82.379 76.44633 82.371 76.4375 82.375 C 74.626781 83.19415 72.845656 84.13595 71.1875 85.3125 C 71.16072 85.3315 71.12046 85.32465 71.09375 85.34375 L 71.125 85.375 C 69.399017 86.33508 67.994816 87.6477 66.65625 88.875 C 65.026121 90.46974 63.494618 92.12994 61.90625 93.6875 L 61.90625 93.71875 C 60.085812 95.37704 58.506774 97.20072 57.03125 99.125 C 57.02235 99.1367 57.00894 99.14465 57 99.15625 C 55.590548 100.71636 54.422874 102.38043 53.09375 103.84375 C 53.08415 103.85435 53.07211 103.8645 53.0625 103.875 C 51.342942 105.6419 50.13479 107.74315 49.0625 109.84375 C 49.05201 109.86425 49.04171 109.88575 49.03125 109.90625 C 48.046091 111.56456 47.068213 113.23113 46.03125 114.8125 C 44.708743 116.81255 43.676457 118.93579 42.6875 121.0625 L 42.65625 121.09375 C 42.021426 122.76399 40.888887 124.24459 39.78125 125.84375 C 38.372185 127.8817 37.334668 130.10416 36.34375 132.28125 C 35.164348 134.96941 33.929413 137.67415 32.90625 140.46875 C 31.911422 143.25771 31.097597 146.11096 30.53125 149.03125 C 30.52935 149.04125 30.53315 149.0526 30.53125 149.0625 C 29.940674 151.68002 30.123197 154.32436 30.34375 156.84375 C 30.555005 159.2468 30.859796 161.63445 31.1875 164 L 31.21875 164 L 31.21875 164.03125 C 31.710067 166.83481 32.533388 169.50137 33.3125 172.15625 C 34.308242 175.66305 36.153355 178.71245 37.90625 181.71875 L 37.90625 181.75 L 37.9375 181.78125 C 40.010699 184.83259 42.263661 187.74074 44.5625 190.59375 C 44.5716 190.60505 44.58462 190.6137 44.59375 190.625 C 46.720453 193.51519 49.146975 196.09985 51.53125 198.6875 L 51.5625 198.71875 C 54.006882 201.24755 56.731665 203.42695 59.40625 205.59375 C 61.846227 207.52585 64.27439 209.5097 66.9375 211.25 L 66.96875 211.28125 L 67 211.28125 C 69.696883 212.73815 72.132394 214.69525 74.78125 216.46875 L 74.8125 216.5 C 78.141344 218.6086 81.661452 220.37905 85.3125 221.84375 L 85.34375 221.875 C 88.851222 223.0858 92.488636 223.8152 96.125 224.3125 L 96.15625 224.3125 C 98.789156 224.5048 101.34139 225.3316 104 226.0625 C 107.3535 227.0161 110.76138 227.7904 114.21875 228.3125 L 114.21875 228.28125 C 117.72172 228.94795 121.24385 229.2028 124.75 229.375 L 124.78125 229.375 C 129.01023 229.4788 133.25317 229.61355 137.53125 229.21875 L 137.5625 229.21875 C 140.12065 228.89815 142.79934 228.681 145.40625 227.875 C 146.8799 227.4195 147.88467 226.9574 149.21875 226.375 L 149.25 226.34375 C 152.69438 224.64555 155.87628 222.48465 158.875 220.15625 L 158.90625 220.15625 C 161.64972 217.99865 164.257 215.70505 166.8125 213.34375 C 166.8233 213.33375 166.83305 213.3225 166.84375 213.3125 C 169.41357 211.1476 171.65616 208.691 173.75 206.125 C 175.48563 204.0329 177.22036 201.9314 178.75 199.625 L 178.75 199.59375 C 180.24744 197.21994 181.34348 194.68333 182.4375 192.1875 L 182.46875 192.1875 C 183.55578 189.67229 184.59084 187.14297 185.65625 184.625 C 186.5383 182.53814 187.42629 180.4609 188.3125 178.375 C 189.22366 176.23099 190.15072 174.08145 191.0625 171.9375 C 191.92917 169.89972 192.78961 167.85028 193.65625 165.8125 C 193.66125 165.7999 193.6822 165.79375 193.6875 165.78125 C 194.59633 163.93208 195.0332 161.99522 195.5625 160.15625 L 195.5625 160.125 L 195.59375 160.09375 C 195.98249 158.08178 196.19283 156.05898 196.40625 154.0625 L 196.40625 154.03125 C 196.49005 152.45815 196.63153 150.8738 196.78125 149.28125 L 196.78125 149.25 C 196.91023 147.45628 197.04109 145.67298 197.125 143.875 L 197.125 143.84375 C 197.129 141.50911 196.79821 139.19128 196.28125 136.9375 L 196.28125 136.90625 C 195.65759 134.77975 195.28172 132.52266 194.59375 130.28125 C 194.11142 128.69222 193.53346 127.11724 192.875 125.59375 C 192.15784 123.9372 191.20596 122.46064 190.0625 121.09375 C 190.0421 121.06065 190.0206 121.0328 190 121 C 189.02683 119.45102 187.73652 118.19815 186.59375 116.96875 C 185.2907 115.6538 183.9453 114.34522 182.4375 113.1875 C 182.426 113.1775 182.41775 113.16605 182.40625 113.15625 C 181.03292 111.98119 179.3888 111.54883 178.25 110.78125 C 176.79219 109.79912 175.25839 108.98466 173.71875 108.21875 C 172.19402 107.47806 170.62765 106.81172 169.09375 106.15625 L 169.0625 106.15625 C 167.82961 105.73702 166.71258 105.10089 165.5625 104.375 C 165.33749 104.23776 165.10108 104.07517 164.875 103.9375 C 164.69131 103.8256 164.4975 103.74166 164.3125 103.65625 C 164.34938 103.49055 164.36256 103.31885 164.40625 103.15625 C 164.41525 103.13485 164.4287 103.11515 164.4375 103.09375 C 164.4405 103.08475 164.4345 103.0719 164.4375 103.0625 C 165.18474 101.25167 165.91782 99.43014 166.5625 97.5625 L 166.59375 97.5625 C 167.34339 95.36238 167.92297 93.14291 168.78125 91.09375 C 169.4223 89.58641 170.0464 88.10107 170.6875 86.59375 C 171.31734 85.11289 171.96462 83.60646 172.59375 82.125 C 173.4826 80.03238 174.36717 77.94012 175.25 75.84375 C 175.85721 74.39803 176.4347 72.98195 177.0625 71.5625 C 177.42004 70.78942 177.77302 70.06867 178.21875 69.46875 C 178.39505 69.25654 178.77125 69.17006 179.34375 69.09375 C 179.35405 69.09387 179.3647 69.0936 179.375 69.09375 C 180.28996 69.10715 181.22249 69.21172 182.09375 69.46875 L 182.125 69.5 L 182.15625 69.5 C 184.29353 69.92189 186.39413 70.00544 188.46875 70.15625 L 188.5 70.15625 C 190.39567 70.20255 193.08566 70.37326 195.125 69.34375 C 195.87749 68.96387 196.4879 68.46497 197.0625 68.09375 L 197.21875 68 L 197.3125 67.84375 C 197.62795 67.30774 198.2245 66.70617 198.5 65.75 C 199.2787 63.04753 197.7664 60.74923 196.5625 58.90625 L 196.5625 58.875 L 196.53125 58.875 C 195.69323 57.7667 195.21052 56.23712 194.375 54.78125 L 194.40625 54.78125 C 193.46029 52.97289 192.7014 50.99658 191.75 49.0625 C 191.746 49.0535 191.754 49.03985 191.75 49.03125 L 191.65625 48.875 L 191.65625 48.84375 C 191.5965 48.732795 191.53377 48.634791 191.46875 48.53125 C 192.11316 48.277845 192.79642 47.99881 193.34375 47.8125 C 195.35078 47.12934 197.65649 46.663 199.5 44.96875 L 199.59375 44.875 L 199.65625 44.78125 C 200.06977 44.03795 200.90872 43.21364 201.1875 41.96875 C 201.63368 39.97642 200.81693 38.28601 199.625 37.0625 C 198.43307 35.83899 196.86347 34.97331 195.5625 34.34375 L 195.53125 34.34375 C 192.6866 33.08074 189.87672 31.79127 187.125 30.375 C 183.93886 28.73586 180.70786 27.16225 177.34375 25.84375 L 166.5 21.21875 L 158.4375 17.8125 L 156.71875 17.0625 C 156.05642 16.78083 155.39787 16.66282 154.78125 16.65625 C 154.16463 16.64925 153.57928 16.77371 153.0625 17 C 153.01882 17.019127 152.98022 17.041992 152.9375 17.0625 C 152.87079 16.917548 152.80126 16.758197 152.71875 16.625 C 152.12456 15.66583 151.18988 15.02519 150.15625 14.75 C 149.63944 14.6124 149.10076 14.57057 148.5625 14.625 z M 152.625 24.65625 C 152.85257 24.7959 153.08062 24.919348 153.34375 25.03125 C 156.60126 26.41657 159.83626 27.80217 163.09375 29.1875 L 173.96875 33.8125 L 174 33.8125 C 177.132 35.03275 180.14532 36.51342 183.15625 38.0625 C 184.84853 38.93372 186.59096 39.67244 188.3125 40.46875 C 188.07278 40.56025 187.8332 40.65642 187.59375 40.75 C 187.58475 40.754 187.5716 40.746 187.5625 40.75 C 183.96979 42.03226 180.72657 43.98534 177.84375 46.4375 L 177.84375 46.46875 L 177.8125 46.46875 C 176.49029 47.78575 177.10094 47.21534 176.03125 48.25 C 174.99742 49.25163 174.51589 50.4343 174.53125 51.5625 C 174.54665 52.6907 175.03696 53.73179 175.78125 54.5 C 176.52554 55.26821 177.56035 55.79271 178.6875 55.84375 C 179.81465 55.89475 180.99742 55.43913 182.03125 54.4375 C 183.03542 53.46323 182.67884 53.85048 183.5 53 C 183.64061 52.876633 183.79427 52.775466 183.9375 52.65625 C 183.97623 52.738152 183.98764 52.824165 184.03125 52.90625 C 184.03525 52.91425 184.02725 52.9291 184.03125 52.9375 C 184.91096 54.82784 185.74843 56.7781 186.6875 58.6875 C 187.14061 59.61284 187.69639 60.51142 188.1875 61.4375 C 186.69804 61.31841 185.24903 61.31474 183.90625 61.03125 C 183.89615 61.02825 183.8851 61.03425 183.875 61.03125 C 182.37299 60.62652 180.84066 60.44676 179.3125 60.4375 C 176.86907 60.4617 174.71442 61.36486 172.8125 62.75 L 172.78125 62.75 L 172.75 62.78125 C 171.06379 64.20846 170.07219 66.08238 169.21875 67.90625 L 169.21875 67.9375 C 168.53904 69.46206 167.92083 70.9782 167.28125 72.5 C 166.40258 74.58631 165.51044 76.66537 164.625 78.75 C 163.99669 80.22949 163.37921 81.70807 162.75 83.1875 C 162.10886 84.69488 161.45358 86.21136 160.8125 87.71875 C 159.81035 90.05334 159.1913 92.45212 158.40625 94.75 C 157.81393 96.46231 157.13611 98.15369 156.4375 99.84375 L 156.4375 99.875 C 155.69911 101.78367 155.55828 103.73909 155.21875 105.53125 C 155.20145 105.56355 155.17275 105.5949 155.15625 105.625 L 155.125 105.65625 L 155.09375 105.71875 C 154.61689 107.07694 154.7318 108.37273 155.25 109.375 C 155.7682 110.37727 156.67826 111.08316 157.6875 111.4375 C 158.59453 111.75595 159.61708 111.79648 160.5625 111.46875 C 160.68611 111.54448 160.81445 111.61287 160.9375 111.6875 C 160.9455 111.6925 160.96115 111.6825 160.96875 111.6875 C 162.46299 112.62913 164.0079 113.50178 165.71875 114.125 C 165.72775 114.128 165.7411 114.122 165.75 114.125 C 167.15288 114.72435 168.52422 115.31662 169.875 115.96875 C 171.21902 116.63418 172.53195 117.33178 173.75 118.15625 L 173.78125 118.1875 C 174.97474 118.874 176.16985 119.38947 177.1875 120.0625 C 177.1945 120.0675 177.21165 120.0575 177.21875 120.0625 C 178.28963 120.85469 179.24716 121.87543 180.28125 122.875 C 180.29225 122.8856 180.3016 122.89565 180.3125 122.90625 C 181.44799 124.12149 182.57333 125.24576 183.40625 126.5625 L 183.4375 126.625 L 183.5 126.6875 C 184.12245 127.3416 184.56202 128.19656 185 129.125 L 185 129.15625 C 185.55278 130.28796 185.93079 131.56835 186.375 132.875 L 186.34375 132.875 C 186.95819 134.75144 187.2217 136.83813 187.875 138.90625 C 188.23361 140.3987 188.42037 141.92436 188.46875 143.46875 C 188.46831 143.47905 188.46919 143.4897 188.46875 143.5 C 188.46906 143.5104 188.46845 143.52085 188.46875 143.53125 C 188.39785 145.17679 188.30517 146.85245 188.1875 148.5 C 188.18676 148.5103 188.18824 148.52095 188.1875 148.53125 C 188.06213 150.0638 187.85747 151.63197 187.78125 153.21875 L 187.8125 153.21875 C 187.66833 154.71901 187.42793 156.24297 187.25 157.78125 C 187.245 157.82405 187.22355 157.86345 187.21875 157.90625 C 186.76898 159.48996 186.43181 161.00026 185.75 162.34375 L 185.71875 162.375 L 185.71875 162.40625 C 184.84679 164.45659 183.96575 166.51218 183.09375 168.5625 C 182.18164 170.7072 181.28664 172.85492 180.375 175 C 179.48742 177.08964 178.60299 179.15799 177.71875 181.25 C 176.66482 183.74169 175.60185 186.24033 174.53125 188.71875 C 173.60514 190.83304 172.70014 192.93367 171.53125 194.84375 C 171.52425 194.85545 171.5071 194.8633 171.5 194.875 C 170.17881 196.88234 168.59697 198.74685 167.03125 200.65625 C 165.17731 202.93695 163.23354 205.0782 161 206.9375 L 161 206.96875 L 160.96875 206.96875 C 158.56552 209.19075 156.12898 211.33635 153.5625 213.34375 C 151.12716 215.27605 148.50176 217.0038 145.75 218.4375 C 145.7372 218.4475 145.73145 218.46275 145.71875 218.46875 C 144.86817 218.84705 143.93697 219.289 143.125 219.5625 C 141.16646 220.2222 138.95298 220.3033 136.71875 220.625 L 136.71875 220.59375 C 132.93251 220.98025 129.07984 220.8058 125.1875 220.75 C 125.1771 220.7495 125.16665 220.7505 125.15625 220.75 C 121.9067 220.5973 118.68153 220.361 115.53125 219.75 L 115.5 219.75 C 112.40204 219.2965 109.34763 218.57375 106.3125 217.71875 C 103.40515 216.92475 100.43164 216.0058 97.28125 215.75 L 97.21875 215.75 C 94.251284 215.3497 91.327254 214.7374 88.5 213.8125 L 88.46875 213.8125 C 85.382901 212.5995 82.425402 211.03595 79.59375 209.28125 L 79.5625 209.28125 C 76.982368 207.56265 74.512369 205.5433 71.65625 204 C 71.63729 203.988 71.61269 203.98075 71.59375 203.96875 C 69.257222 202.46215 67.11057 200.60785 64.84375 198.84375 C 62.441685 196.89958 60.033503 194.99868 57.90625 192.84375 C 57.8962 192.83285 57.88505 192.8234 57.875 192.8125 C 55.590491 190.33334 53.296668 187.89234 51.34375 185.21875 L 51.3125 185.1875 C 49.254231 182.63494 47.25645 180.0465 45.375 177.375 C 45.36312 177.3546 45.35564 177.3329 45.34375 177.3125 C 43.881496 174.80722 42.394127 172.38497 41.625 169.71875 C 40.941521 167.39397 40.193808 165.12992 39.75 162.8125 L 39.78125 162.8125 C 39.468286 160.5528 39.134112 158.31054 38.9375 156.0625 L 38.9375 156.03125 C 38.749515 154.18653 38.613232 152.37357 39 150.6875 L 39.03125 150.65625 C 39.470045 148.20766 40.23705 145.80407 41.0625 143.40625 L 41.03125 143.40625 C 41.945295 140.85861 43.123312 138.38375 44.21875 135.84375 C 45.030428 134.05745 45.811383 132.30336 46.875 130.75 C 48.174371 128.86647 49.628421 126.98097 50.53125 124.6875 C 50.53475 124.6785 50.52775 124.66515 50.53125 124.65625 C 51.358386 122.87336 52.224436 121.13111 53.28125 119.53125 C 54.506912 117.65999 55.611922 115.75422 56.71875 113.84375 L 56.71875 113.8125 L 56.75 113.78125 C 57.51708 112.25661 58.298849 110.8533 59.4375 109.71875 L 59.46875 109.6875 C 61.035957 107.9635 62.337975 106.12917 63.8125 104.46875 L 63.84375 104.4375 L 63.875 104.40625 C 65.127821 102.7701 66.42487 101.25947 67.9375 99.90625 L 67.9375 99.875 L 67.96875 99.875 C 69.532101 98.32971 71.001145 96.73835 72.53125 95.21875 C 73.727933 94.11864 74.807871 93.07579 76.125 92.375 L 76.1875 92.34375 L 76.25 92.28125 C 77.351731 91.40455 78.806769 90.85901 80.25 90.125 C 81.537484 89.47642 82.94282 89.0123 84.375 88.53125 C 84.3843 88.52825 84.39691 88.53425 84.40625 88.53125 C 85.817538 88.12617 87.336321 87.8939 88.875 87.46875 C 88.89769 87.46375 88.91483 87.4421 88.9375 87.4375 C 90.980986 87.02058 92.945707 86.46001 94.90625 86.125 C 97.249917 85.72704 99.541944 85.27053 101.84375 85.125 L 101.875 85.125 C 103.25419 85.00903 104.62824 84.97396 106 85 C 107.86319 85.47774 109.64175 86.48665 111.625 87.25 C 111.635 87.254 111.64675 87.246 111.65625 87.25 L 118.53125 90.1875 L 119.40625 90.5625 C 120.7309 91.12585 122.02893 91.07757 123.0625 90.625 C 124.09607 90.17243 124.86264 89.32807 125.28125 88.34375 C 126.1988 87.90679 126.99761 87.117716 127.5 85.9375 C 127.60341 85.69465 127.7093 85.42972 127.8125 85.1875 C 128.50995 83.54978 129.20754 81.91834 129.90625 80.28125 C 130.73097 78.34659 131.57771 76.42551 132.375 74.46875 L 132.375 74.4375 C 133.19955 72.38047 133.99595 70.30382 134.59375 68.125 C 135.17293 65.9936 135.79308 63.88186 136.53125 61.8125 L 136.53125 61.78125 C 137.21314 59.57046 137.9488 57.38483 138.6875 55.1875 L 138.6875 55.15625 C 139.20469 53.24167 139.64832 51.23334 139.75 49.1875 L 139.75 49.15625 L 139.75 49.125 C 139.63965 47.28814 139.13612 45.64385 138.625 44 L 138.625 43.96875 C 138.15648 42.67289 137.62294 41.36503 136.96875 40.125 C 136.52809 39.25463 136.07102 38.41893 135.625 37.59375 C 135.75883 37.31089 135.87896 37.04767 136.03125 36.71875 C 136.24952 36.77585 136.44372 36.80805 136.6875 36.875 C 137.14224 36.9998 137.59343 37.13011 138.03125 37.21875 C 138.38384 37.29015 138.70611 37.32132 139.0625 37.28125 L 139.0625 37.3125 C 140.76079 37.444709 142.32907 37.549406 143.78125 38.125 C 143.71749 39.771739 143.6223 41.421583 143.53125 43.09375 C 143.45345 44.53111 143.90958 45.74524 144.6875 46.5625 C 145.46542 47.37976 146.52568 47.78593 147.59375 47.84375 C 148.66182 47.90155 149.76339 47.6035 150.625 46.875 C 151.48661 46.1465 152.07843 44.99986 152.15625 43.5625 C 152.30901 40.72314 152.51756 37.84426 152.46875 34.9375 C 152.43705 32.12964 152.4371 29.32869 152.5 26.53125 C 152.50023 26.52085 152.49976 26.5104 152.5 26.5 C 152.52811 25.879165 152.5817 25.27409 152.625 24.65625 z M 89.3125 48.9375 C 86.623712 48.9385 84.035554 49.52862 81.53125 50.1875 C 80.231655 50.52056 79.01415 50.97608 77.8125 51.46875 C 76.485113 52.02562 75.583649 52.97477 75.1875 54.03125 C 74.791351 55.08773 74.867452 56.2324 75.28125 57.21875 C 75.695048 58.2051 76.468655 59.04239 77.5 59.5 C 78.531345 59.95761 79.828862 59.99437 81.15625 59.4375 C 81.995652 59.07141 82.85761 58.77247 83.75 58.53125 C 85.767296 57.99126 87.774006 57.53857 89.78125 57.5625 L 89.8125 57.5625 L 89.84375 57.5625 C 90.171015 57.542341 90.487616 57.474653 90.78125 57.40625 C 87.468036 58.233199 84.213998 59.202076 80.96875 60.25 L 80.9375 60.25 C 78.497687 61.06221 76.197351 62.11006 73.9375 63.25 C 72.65294 63.8996 71.851488 64.91809 71.53125 66 C 71.211012 67.08191 71.361051 68.20173 71.84375 69.15625 C 72.326449 70.11077 73.1263 70.92918 74.1875 71.3125 C 75.2487 71.69582 76.55919 71.61835 77.84375 70.96875 C 79.738676 70.00773 81.641451 69.134 83.625 68.46875 C 86.756625 67.45527 89.902997 66.52888 93.09375 65.71875 C 93.097956 65.711675 93.117805 65.72015 93.125 65.71875 C 94.517913 65.44588 95.553538 64.72142 96.15625 63.78125 C 96.765188 62.83137 96.947701 61.70745 96.75 60.65625 C 96.552299 59.60505 95.974917 58.60126 95.0625 57.9375 C 94.150083 57.27374 92.883416 56.98394 91.46875 57.25 L 91.4375 57.25 C 91.281117 57.288087 91.124883 57.336293 90.96875 57.375 C 91.877579 57.126846 92.602655 56.658466 93.125 56.03125 C 93.847053 55.16423 94.159539 54.03636 94.09375 52.96875 C 94.02796 51.90114 93.604292 50.86556 92.78125 50.09375 C 91.964637 49.32797 90.765649 48.8581 89.34375 48.9375 C 89.33256 48.93813 89.32372 48.93681 89.3125 48.9375 z M 92.75 110.28125 C 92.064144 110.27427 91.36016 110.30554 90.625 110.46875 C 90.101429 110.58499 89.779782 110.88733 89.46875 111.21875 C 89.157718 111.55017 88.87334 111.94513 88.59375 112.34375 C 88.03457 113.14098 87.469184 114.00918 87.28125 114.21875 L 87.25 114.28125 L 87.21875 114.34375 C 86.27157 115.89185 85.038022 117.34317 84.0625 119.0625 L 84.09375 119.0625 C 82.848314 121.112 81.747533 123.17512 80.3125 124.9375 C 78.152378 127.6133 75.812165 130.17286 73.59375 132.875 L 73.59375 132.90625 C 71.230862 135.94024 68.734566 138.95559 66.875 142.46875 C 66.8708 142.47675 66.8792 142.4922 66.875 142.5 C 64.996831 145.54363 63.100693 148.55632 61.28125 151.65625 L 61.25 151.65625 C 59.731649 154.29838 58.293405 156.95787 56.6875 159.5 L 56.65625 159.53125 C 56.65085 159.54025 56.66155 159.5533 56.65625 159.5625 L 56.09375 160.4375 L 56.3125 160.46875 C 55.987281 161.40311 55.884753 162.31512 56.125 163.125 C 56.445885 164.20671 57.200209 165.08753 58.125 165.625 C 59.049791 166.16247 60.182533 166.38168 61.28125 166.125 C 62.367813 165.87116 63.402632 165.12616 64.125 163.90625 C 64.1326 163.89415 64.14862 163.8871 64.15625 163.875 C 65.788136 161.28195 67.241189 158.58746 68.75 155.96875 C 70.522865 152.95026 72.401617 149.99519 74.25 147 L 74.25 146.96875 L 74.28125 146.9375 C 75.911599 143.81443 78.179412 141.07723 80.40625 138.21875 L 80.375 138.21875 C 82.040845 136.21538 83.772024 134.23069 85.46875 132.21875 C 84.988363 133.84349 84.52458 135.44771 84.0625 137.09375 L 84.0625 137.125 L 84.03125 137.15625 C 83.508301 139.74138 82.757015 142.30917 82.125 144.9375 C 81.664984 146.81018 81.298261 148.67456 80.90625 150.53125 L 80.90625 150.5625 L 80.90625 150.59375 C 80.89775 150.65145 80.801356 151.02133 80.6875 151.46875 C 80.573644 151.91617 80.44236 152.45681 80.3125 153 C 80.18264 153.54319 80.069753 154.1055 80 154.5625 C 79.96512 154.791 79.93939 154.98501 79.9375 155.1875 C 79.9356 155.38999 79.86976 155.57448 80.15625 155.9375 C 81.315101 157.40592 82.737591 158.51122 83.9375 159.6875 L 84.3125 160.03125 L 84.78125 159.8125 C 85.672093 159.39822 86.742671 159.10908 87.75 158.4375 C 88.052405 158.23594 88.205519 158.03758 88.40625 157.78125 C 88.606981 157.52492 88.792602 157.23856 89 156.9375 C 89.414795 156.33539 89.830816 155.69082 89.9375 155.53125 C 90.930426 154.04595 91.971979 152.60971 93.03125 151.15625 C 93.03635 151.14925 93.02615 151.1319 93.03125 151.125 C 95.76761 147.50703 98.634756 143.96493 101.59375 140.53125 C 103.83309 137.81517 106.12677 135.11472 108.34375 132.34375 L 108.375 132.34375 C 108.73678 131.86234 109.1798 131.49255 109.5625 131.03125 C 108.4981 133.80093 107.84469 136.62661 107.125 139.40625 L 107.125 139.4375 L 107.09375 139.4375 C 106.42312 142.61043 105.47638 145.76333 104.59375 148.9375 L 104.625 148.9375 C 103.6672 152.01351 103.13749 155.13803 102.40625 158.15625 C 102.40425 158.16625 102.40825 158.1779 102.40625 158.1875 C 101.68569 160.72975 101.04483 163.2862 100.5 165.875 C 100.13434 167.6061 99.5921 169.31861 98.96875 171 L 98.96875 171.03125 C 98.613803 172.17154 98.373362 173.29742 98.09375 174.375 C 97.733776 175.76873 97.961181 177.04528 98.5625 178 C 99.163819 178.95472 100.1206 179.60751 101.15625 179.875 C 102.1919 180.14249 103.32406 180.04412 104.3125 179.5 C 105.30094 178.95588 106.10878 177.95623 106.46875 176.5625 C 106.68742 175.71266 106.86601 174.84871 107.0625 174 L 107.09375 174 C 107.85099 171.94551 108.51218 169.8266 108.96875 167.65625 C 109.4921 165.16636 110.11841 162.7047 110.8125 160.25 L 110.8125 160.21875 C 111.54649 157.18173 112.0454 154.13529 112.9375 151.25 C 113.8255 148.05614 114.80201 144.86081 115.5 141.5625 L 115.46875 141.5625 C 116.2027 138.71884 116.84789 135.89645 117.90625 133.25 L 117.9375 133.21875 L 117.9375 133.1875 C 118.75441 130.39562 119.34281 127.55997 119.84375 124.71875 C 119.84575 124.70875 119.84175 124.6974 119.84375 124.6875 C 119.92225 124.291 120.10314 123.59735 120.25 122.90625 C 120.39931 122.20362 120.55177 121.52008 120.4375 120.84375 C 120.3677 120.43043 120.3512 119.91399 120.25 119.34375 C 120.1488 118.77351 119.95144 118.12631 119.4375 117.625 C 118.21284 116.43043 117.24029 115.86932 116.25 115.8125 C 115.25971 115.7557 114.48059 116.14356 113.5 116.46875 L 113.4375 116.5 L 113.34375 116.53125 C 111.86913 117.42917 110.48127 118.46613 109.15625 119.53125 C 109.14505 119.54025 109.1362 119.5535 109.125 119.5625 C 107.95333 120.45032 106.79245 121.39448 105.71875 122.4375 C 105.70805 122.4475 105.6981 122.45905 105.6875 122.46875 C 104.21254 123.81755 102.77845 125.29846 101.59375 126.96875 C 101.58475 126.98085 101.571 126.9879 101.5625 127 C 99.435968 129.66351 97.215728 132.24815 95.03125 134.90625 C 94.299936 135.7554 93.654846 136.67097 92.9375 137.53125 C 93.641379 135.14119 94.374304 132.75981 95 130.3125 C 95.0025 130.3025 94.9975 130.29095 95 130.28125 C 95.889736 127.18325 96.609338 124.01757 97.15625 120.84375 C 97.29308 119.9314 97.59027 118.46383 97.71875 117 C 97.84723 115.53617 97.862571 114.05617 97.21875 112.90625 C 96.662799 111.91329 95.8654 111.25905 95.3125 110.59375 L 95.09375 110.3125 L 94.71875 110.3125 C 94.103584 110.33345 93.435856 110.28823 92.75 110.28125 z M 163.6875 120.15625 C 162.56937 120.30747 161.61041 120.91855 160.9375 121.75 C 160.26459 122.58145 159.85232 123.65616 159.9375 124.78125 C 160.0193 125.86191 160.59121 126.95576 161.625 127.84375 C 161.6675 127.88025 161.67465 127.93295 161.71875 127.96875 C 163.18227 129.77454 164.53242 131.65491 165.6875 133.65625 C 165.6925 133.66525 165.6835 133.6789 165.6875 133.6875 C 166.71997 135.68568 167.43737 137.86462 167.9375 140.09375 C 168.37561 142.17126 168.26869 144.38012 168.34375 146.65625 C 168.34411 146.66705 168.34339 146.6767 168.34375 146.6875 C 168.34353 148.90492 168.00713 151.14218 167.78125 153.4375 L 167.8125 153.4375 C 167.55561 155.20955 167.37551 156.92623 166.96875 158.5625 C 166.56359 159.92676 166.00425 161.29577 165.4375 162.65625 L 165.4375 162.6875 C 164.98965 163.98999 164.2888 165.17634 163.53125 166.40625 C 163.52625 166.41425 163.53625 166.4294 163.53125 166.4375 C 162.60216 167.19705 161.78756 168.06072 161 168.78125 C 159.93797 169.75293 159.45439 170.93432 159.4375 172.0625 C 159.4206 173.19068 159.87172 174.24208 160.59375 175.03125 C 161.31578 175.82042 162.31226 176.35428 163.4375 176.4375 C 164.56274 176.5207 165.78172 176.12793 166.84375 175.15625 C 168.2336 173.8846 169.58777 172.53653 170.8125 171.0625 L 170.84375 171.03125 L 170.875 170.96875 C 171.84806 169.38974 172.77987 167.76935 173.4375 165.96875 C 173.4405 165.95975 173.4345 165.9464 173.4375 165.9375 C 174.1492 164.2271 174.87089 162.47139 175.375 160.625 C 175.87938 158.51491 176.13487 156.39317 176.40625 154.3125 L 176.40625 154.28125 C 176.65956 151.70372 177.01489 149.07051 176.96875 146.375 C 176.87275 143.71685 176.98905 140.93715 176.34375 138.15625 C 175.64066 135.1364 174.69925 132.12449 173.1875 129.34375 L 173.15625 129.34375 C 171.47797 126.49074 169.60859 123.72309 167.25 121.3125 L 167.21875 121.28125 L 167.15625 121.25 C 166.03733 120.34442 164.80563 120.00503 163.6875 120.15625 z M 131.9375 130.34375 C 131.32088 130.33675 130.76678 130.46121 130.25 130.6875 C 129.21643 131.14007 128.41861 131.98443 128 132.96875 C 127.598 133.914 127.53417 135.00865 127.875 136.03125 L 126.375 139.53125 C 125.37762 141.7851 124.39862 144.04525 123.65625 146.4375 C 123.02473 148.48325 122.31944 150.5464 121.78125 152.6875 C 121.43511 154.24889 120.89974 155.78469 120.3125 157.3125 C 119.61586 159.07962 118.87496 160.83125 118.125 162.59375 C 117.41193 164.2654 116.68102 165.92146 115.96875 167.59375 C 115.34214 169.06504 114.71956 170.55984 114.09375 172.03125 C 113.46066 173.51988 112.82057 175.01138 112.1875 176.5 C 111.56051 178.01307 110.98084 179.47361 110.1875 180.8125 C 110.1805 180.8242 110.16315 180.83215 110.15625 180.84375 C 109.74158 181.46831 109.48598 182.05655 109.15625 182.4375 L 109.125 182.46875 C 108.26046 183.61968 107.99597 184.88807 108.1875 186 C 108.37903 187.11193 109.01977 188.04508 109.875 188.6875 C 110.73023 189.32992 111.81622 189.68829 112.9375 189.5625 C 114.05878 189.43671 115.19795 188.80717 116.0625 187.65625 C 116.61183 186.89372 117.12617 186.0926 117.59375 185.25 C 117.60075 185.2379 117.618 185.23085 117.625 185.21875 C 118.63343 183.4959 119.4271 181.68611 120.15625 179.875 C 120.15925 179.866 120.15325 179.85235 120.15625 179.84375 C 120.78554 178.36402 121.4332 176.88592 122.0625 175.40625 C 122.68768 173.93616 123.31157 172.46957 123.9375 171 C 124.43422 169.83377 124.94437 168.67008 125.4375 167.5 C 126.1876 168.30739 127.3168 168.83298 128.71875 168.875 C 129.83164 168.8945 130.87187 168.7838 131.875 168.75 C 131.9048 168.753 131.93895 168.746 131.96875 168.75 C 133.65414 168.95172 135.45379 169.26963 137.34375 168.90625 C 138.92914 168.60441 140.46722 168.19316 141.96875 167.53125 L 141.96875 167.5 L 142 167.5 C 143.77318 166.67659 145.50067 165.70652 146.78125 163.96875 L 146.8125 163.96875 L 146.8125 163.9375 C 147.86644 162.29111 148.56766 160.49957 148.9375 158.59375 L 148.9375 158.5625 C 149.24813 156.64025 149.33698 154.64301 148.8125 152.65625 L 148.8125 152.625 L 148.8125 152.59375 C 148.21038 150.77777 147.53924 148.96244 146.8125 147.1875 C 146.03144 145.3679 145.21672 143.55686 144.3125 141.78125 L 144.28125 141.75 L 144.28125 141.71875 C 143.05087 139.71711 141.606 137.88793 140.09375 136.125 L 140.09375 136.09375 C 139.08709 134.96514 138.10027 133.76337 136.90625 132.71875 C 136.42997 131.84037 135.66157 131.15563 134.78125 130.78125 C 134.28909 130.57195 133.7593 130.45974 133.21875 130.4375 C 133.10428 130.4328 132.9904 130.46439 132.875 130.46875 C 132.55049 130.3954 132.24581 130.34704 131.9375 130.34375 z M 134.375 142.78125 C 135.26837 143.87746 136.12639 144.97497 136.84375 146.15625 C 137.53073 147.6243 138.24042 149.084 138.875 150.5625 C 138.879 150.5715 138.871 150.58465 138.875 150.59375 C 139.4747 152.11715 140.07866 153.62799 140.5625 155.15625 C 140.5832 155.81546 140.5282 156.47261 140.40625 157.09375 C 140.2296 157.81693 140.00807 158.4365 139.6875 158.96875 C 139.6021 159.03315 139.46821 159.10403 139.40625 159.15625 C 139.27437 159.2674 139.16293 159.3234 139.1875 159.3125 L 139.09375 159.3125 L 139 159.375 L 138.34375 159.65625 C 137.55698 160.01583 136.71904 160.2312 135.8125 160.40625 C 134.93649 160.47845 133.95917 160.28679 132.90625 160.15625 L 132.90625 160.1875 C 131.41311 159.94627 130.10129 160.31789 129 160.25 L 128.96875 160.25 C 128.7889 160.24461 128.60873 160.27026 128.4375 160.28125 C 129.11431 158.50298 129.72694 156.6735 130.15625 154.78125 C 130.15825 154.77125 130.15425 154.7598 130.15625 154.75 C 130.63523 152.83969 131.34563 150.96383 131.9375 149 C 132.57029 146.93993 133.42716 144.93307 134.3125 142.90625 L 134.375 142.78125 z M 139.5625 159.40625 L 140.125 159.71875 C 140.09497 159.73701 140.06126 159.76793 140.03125 159.78125 C 139.97791 159.80495 139.9321 159.83165 139.875 159.84375 L 139.6875 159.90625 C 139.67986 159.89863 139.65619 159.87491 139.65625 159.875 C 139.65665 159.87563 139.5622 159.62417 139.5625 159.625 C 139.5627 159.62583 139.53135 159.51313 139.53125 159.46875 C 139.53116 159.43765 139.5601 159.42885 139.5625 159.40625 z M 150.78125 185.46875 L 150.53125 185.53125 C 149.13419 185.87809 148.1159 186.67297 147.5625 187.65625 C 147.5175 187.73615 147.50785 187.82442 147.46875 187.90625 C 146.57445 188.45126 145.88452 189.14505 145.5625 189.96875 C 145.15168 191.01961 145.19378 192.16423 145.59375 193.15625 C 145.99377 194.14827 146.75638 194.99682 147.78125 195.46875 C 148.80612 195.94068 150.07123 196.00708 151.40625 195.46875 L 151.4375 195.46875 L 151.46875 195.4375 C 152.16411 195.11636 153.12324 194.61651 154 193.9375 C 154.17884 193.799 154.33005 193.62246 154.5 193.46875 L 154.59375 193.4375 L 154.5625 193.40625 C 155.19661 192.81821 155.74143 192.13342 155.875 191.25 C 155.945 190.78704 156.09811 190.19816 156.125 189.5625 C 156.1519 188.92684 156.0585 188.17556 155.53125 187.59375 C 154.21544 186.14194 152.22997 186.0963 151 185.5625 L 150.78125 185.46875 z M 190.84375 208.5 C 190.3032 208.478 189.74795 208.554 189.21875 208.75 C 188.16035 209.141 187.21959 210.01905 186.65625 211.34375 L 186.625 211.34375 C 185.98842 212.86535 185.0438 214.32445 183.84375 215.40625 C 182.61409 216.56095 181.22513 217.5618 179.78125 218.5 C 179.55761 218.557 179.26271 218.575 178.75 218.625 L 178.71875 218.625 C 177.29065 218.8056 176.19618 219.4634 175.53125 220.375 C 174.86632 221.2866 174.61584 222.40755 174.75 223.46875 C 174.88416 224.52985 175.41038 225.56395 176.28125 226.28125 C 177.15212 226.99865 178.3844 227.368 179.8125 227.1875 C 181.32533 226.978 182.97254 226.71725 184.4375 225.78125 C 186.33563 224.54025 188.20042 223.19195 189.875 221.59375 C 191.37866 220.06075 192.65315 218.27765 193.6875 216.34375 L 193.78125 216.625 L 194.59375 214.71875 C 195.15709 213.39405 195.14012 212.12725 194.6875 211.09375 C 194.23493 210.06015 193.39057 209.26235 192.40625 208.84375 C 191.91409 208.63435 191.3843 208.5222 190.84375 208.5 z M 196.9375 219.71875 C 196.39695 219.69675 195.8417 219.77275 195.3125 219.96875 C 194.2726 220.35285 193.34786 221.2141 192.78125 222.5 L 192.75 222.5 C 191.73072 224.4476 190.43205 226.2404 188.9375 227.875 C 188.08909 228.4902 187.56529 229.2226 187 229.5 L 186.96875 229.5 C 186.88495 229.517 186.79857 229.5415 186.6875 229.5625 C 186.44174 229.6115 186.12064 229.65225 186.09375 229.65625 L 186.0625 229.65625 C 184.65735 229.96875 183.63987 230.74935 183.0625 231.71875 C 182.48513 232.68805 182.33034 233.8309 182.5625 234.875 C 182.79466 235.9191 183.41 236.89795 184.34375 237.53125 C 185.2775 238.16465 186.53235 238.40615 187.9375 238.09375 C 190.93415 237.36695 193.06979 236.05685 195.1875 233.84375 L 195.21875 233.84375 L 195.21875 233.8125 C 197.35341 231.461 199.27837 228.87625 200.6875 225.96875 L 200.6875 225.9375 C 201.25084 224.6128 201.23387 223.3461 200.78125 222.3125 C 200.32868 221.2789 199.48432 220.51235 198.5 220.09375 C 198.00784 219.88435 197.47805 219.74095 196.9375 219.71875 z "
       transform="translate(0,802.36218)"
       id="path3007" />
  </g>
</svg>
