<?xml version="1.0" encoding="UTF-8" standalone="no"?>
<!-- Created with Inkscape (http://www.inkscape.org/) -->

<svg
   xmlns:dc="http://purl.org/dc/elements/1.1/"
   xmlns:cc="http://creativecommons.org/ns#"
   xmlns:rdf="http://www.w3.org/1999/02/22-rdf-syntax-ns#"
   xmlns:svg="http://www.w3.org/2000/svg"
   xmlns="http://www.w3.org/2000/svg"
   xmlns:sodipodi="http://sodipodi.sourceforge.net/DTD/sodipodi-0.dtd"
   xmlns:inkscape="http://www.inkscape.org/namespaces/inkscape"
   width="250"
   height="250"
   id="svg3318"
   version="1.1"
   inkscape:version="0.48.5 r10040"
   sodipodi:docname="nothing.svg">
  <defs
     id="defs3320" />
  <sodipodi:namedview
     id="base"
     pagecolor="#ffffff"
     bordercolor="#666666"
     borderopacity="1.0"
     inkscape:pageopacity="0.0"
     inkscape:pageshadow="2"
     inkscape:zoom="1.01"
     inkscape:cx="375"
     inkscape:cy="163.56436"
     inkscape:document-units="px"
     inkscape:current-layer="layer1"
     showgrid="false"
     inkscape:window-width="1366"
     inkscape:window-height="715"
     inkscape:window-x="-8"
     inkscape:window-y="-8"
     inkscape:window-maximized="1" />
  <metadata
     id="metadata3323">
    <rdf:RDF>
      <cc:Work
         rdf:about="">
        <dc:format>image/svg+xml</dc:format>
        <dc:type
           rdf:resource="http://purl.org/dc/dcmitype/StillImage" />
        <dc:title></dc:title>
      </cc:Work>
    </rdf:RDF>
  </metadata>
  <g
     inkscape:label="Layer 1"
     inkscape:groupmode="layer"
     id="layer1"
     transform="translate(0,-802.36218)">
    <path
       style="fill:#000000;fill-opacity:1;stroke:none"
       id="path3256"
       d="m 95.187364,909.19965 c -3.244887,0.0909 -6.508904,-0.17853 -9.743681,0.12493 -2.970775,0.51694 -6.021563,0.4825 -8.986245,1.00042 -2.654366,0.90158 -5.325674,1.75638 -8.041823,2.45076 -3.048314,0.93868 -6.17349,1.68638 -9.091602,2.99333 -2.203442,0.91916 -4.438129,1.76118 -6.441346,3.08291 -2.256371,1.45372 -4.421954,3.05998 -6.626408,4.60293 -1.534606,1.38657 -3.711823,2.18517 -4.944149,3.894 -1.689355,1.85596 -3.457218,3.63599 -5.052697,5.57534 -1.525884,1.6376 -3.253793,3.0487 -4.517823,4.91421 -0.85532,1.69723 -2.006847,3.23356 -2.708502,5.00889 -0.773192,2.01123 -1.228492,4.10898 -1.799169,6.18014 -0.612759,2.56793 -1.84713,4.91311 -2.732201,7.38321 -0.573141,2.10744 -0.780778,4.28859 -1.178896,6.43585 -0.310745,2.6793 -1.028779,5.2799 -1.502595,7.92969 -0.472814,1.92381 -0.249135,3.74245 0.03476,5.65721 0.110827,2.25414 0.802044,4.347 1.463437,6.47668 0.828953,2.7572 1.249779,5.63695 2.119116,8.37923 0.758551,1.48743 1.561433,3.02649 2.894955,4.07238 1.131181,0.59057 2.449643,0.64224 3.696804,0.7313 2.609085,0.11175 5.212639,-0.004 7.815436,0.21866 2.43029,0.37872 4.862951,0.70418 7.317554,0.86377 2.244163,0.11914 4.492222,0.1216 6.73885,0.12713 2.330188,10e-4 4.660385,-0.003 6.990583,-0.004 2.338356,-0.002 4.676733,-0.002 7.01509,-0.002 2.337528,-1.4e-4 4.675067,-10e-5 7.012595,-7e-5 2.337354,2e-5 4.674709,3e-5 7.012063,3e-5 2.337345,0 4.674699,0 7.012064,0 2.656299,0 5.312617,0 7.968936,0 2.952671,-0.19007 5.77456,0.31444 8.53423,1.33996 1.72655,0.7229 3.58175,0.818 5.4233,0.9262 2.55822,0.3624 5.09036,0.84836 7.66573,1.07856 2.21764,0.1663 4.44276,0.1756 6.66532,0.1864 2.37321,0 4.74643,0 7.11965,0 2.87218,0 5.74437,0 8.61656,0 1.82966,-0.1318 3.70103,0.175 5.52654,-2e-4 0.75808,-0.073 1.47526,-0.3811 2.21743,-0.5526 2.2425,-0.58926 4.10627,-1.75548 5.95438,-3.10267 1.72113,-1.41143 3.37392,-2.96343 4.82998,-4.65424 0.96577,-1.29824 1.55046,-2.68658 1.86168,-4.26264 0.32328,-2.32134 0.30011,-4.67736 0.31186,-7.01673 0.20467,-2.59099 0.72378,-5.13697 0.95739,-7.72534 0.17433,-2.29654 0.17802,-4.6013 0.18909,-6.90307 0.23072,-2.83332 -0.11743,-5.51052 -0.74523,-8.2537 -0.51579,-2.94786 -1.68047,-5.70489 -2.61989,-8.52664 -1.01734,-2.16954 -1.70906,-4.49714 -2.87535,-6.59421 -1.00157,-2.00544 -2.11643,-3.89664 -3.6004,-5.57279 -1.68452,-1.77847 -3.12674,-3.76843 -4.89815,-5.46499 -1.597,-1.76984 -3.08697,-3.62919 -4.60282,-5.47061 -1.62659,-2.0116 -3.43672,-3.86072 -5.21018,-5.73908 -1.24104,-1.1159 -2.79026,-1.86332 -4.28818,-2.57658 -1.92495,-1.23091 -4.04736,-2.0701 -6.04183,-3.16868 -2.04674,-1.26151 -4.13152,-2.45351 -6.18169,-3.70564 -1.46043,-1.28656 -3.17772,-1.96032 -4.96294,-2.64332 -1.74503,-0.60633 -3.59325,-0.7242 -5.42183,-0.81693 -2.2546,-0.0793 -4.51116,-0.0635 -6.76674,-0.0585 -1.16946,0.003 -2.33892,0.006 -3.5084,0.008 -6.611023,0.0147 -6.631624,-9.38219 -0.0206,-9.39684 l 0,0 c 1.16947,-0.002 2.33895,-0.006 3.50842,-0.008 2.42587,-0.006 4.85289,-0.0218 7.27751,0.0714 2.81263,0.15297 5.63402,0.43656 8.29513,1.43314 2.29446,0.8972 4.62556,1.81396 6.53148,3.42802 1.90679,1.24289 3.94971,2.28001 5.86395,3.51597 1.75147,1.0881 3.80589,1.65313 5.48913,2.87754 2.5165,1.23414 5.04259,2.55922 7.02541,4.59006 1.90757,2.04571 3.8793,4.03822 5.63409,6.22263 1.29252,1.59509 2.60436,3.16894 3.93054,4.73248 1.89587,1.9018 3.5797,3.98392 5.37757,5.97481 1.93445,2.23904 3.50966,4.69665 4.82436,7.35403 1.34083,2.6014 2.36765,5.34131 3.4929,8.04176 1.02172,3.10949 2.29668,6.1469 2.8614,9.39259 0.78314,3.44162 1.21163,6.86125 0.98166,10.39992 -0.0126,2.57495 -0.0222,5.15321 -0.22862,7.72159 -0.216,2.31659 -0.57574,4.6097 -0.91788,6.90982 -0.0159,3.00338 2e-5,6.03176 -0.53245,8.99762 -0.72359,3.12779 -1.96339,5.99738 -4.01772,8.49294 -1.95505,2.16208 -4.03334,4.24778 -6.34517,6.02388 -2.86801,2.0592 -5.88816,3.7761 -9.34456,4.6373 -3.25674,0.734 -6.47712,0.9463 -9.81013,0.7854 -2.86935,3e-4 -5.73871,7e-4 -8.60807,0 -2.39155,0 -4.78311,0.01 -7.17467,0 -2.48908,-0.013 -4.98099,-0.028 -7.46389,-0.2247 -2.47982,-0.2293 -4.93642,-0.6043 -7.3854,-1.0572 -2.76746,-0.1724 -5.54132,-0.4438 -8.13618,-1.5052 -1.71322,-0.6558 -3.399029,-0.9141 -5.257719,-0.744 -2.656319,0 -5.312627,0 -7.968936,0 -2.337365,0 -4.67473,0 -7.012084,0 -2.337375,0 -4.67474,0 -7.012115,0 -2.337211,0 -4.674422,-10e-5 -7.011634,10e-5 -2.335872,2e-4 -4.671754,5e-4 -7.007626,0 -2.340677,0 -4.681365,0.01 -7.022042,0 -2.443765,-0.01 -4.889104,-0.011 -7.329893,-0.1474 -2.555389,-0.1715 -5.09532,-0.4712 -7.622941,-0.889 -2.520352,-0.3219 -5.091925,0.058 -7.623309,-0.2016 -3.320371,-0.2757 -6.552714,-0.9148 -9.207265,-3.1001 -2.48876,-2.3417 -4.422935,-5.12627 -5.609182,-8.3616 -0.794509,-2.73931 -1.359143,-5.54151 -2.094282,-8.29774 -0.798015,-2.58737 -1.59737,-5.16586 -1.784324,-7.8891 -0.429004,-2.91581 -0.615171,-5.80707 0.01483,-8.71784 0.486268,-2.6629 1.19234,-5.27707 1.510017,-7.97015 0.4932,-2.65919 0.716848,-5.37564 1.592422,-7.94992 0.827971,-2.24109 1.912971,-4.38784 2.514329,-6.70848 0.711685,-2.4364 1.226611,-4.93098 2.189487,-7.29312 1.035853,-2.37668 2.396346,-4.56691 3.706834,-6.79818 1.46448,-2.01178 3.131812,-3.81317 4.963646,-5.4923 1.65856,-1.96674 3.413807,-3.84293 5.174187,-5.71791 1.955952,-2.13539 4.273288,-3.77406 6.641764,-5.42199 2.309331,-1.61545 4.590464,-3.27733 6.945977,-4.81688 2.438847,-1.53422 5.039548,-2.72065 7.719004,-3.7672 3.407601,-1.47718 6.991053,-2.46112 10.551921,-3.49516 2.993503,-0.74892 5.882978,-1.83609 8.866625,-2.62035 3.212489,-0.48129 6.468501,-0.61048 9.684946,-1.08448 3.495976,-0.26077 7.000531,-0.12852 10.504552,-0.15609 6.611051,0 6.611051,9.39685 0,9.39685 z"
       inkscape:connector-curvature="0" />
    <path
       style="fill:#000000;fill-opacity:1;stroke:none"
       id="path3258"
       d="m 57.080053,958.51268 c -0.835864,2.59033 -1.289467,5.27458 -1.583772,7.97459 -0.221071,2.13997 -0.319486,4.25586 0.02648,6.37679 0.06308,0.38236 0.126163,0.7647 0.189244,1.14706 1.080624,6.5552 -8.14305,8.09119 -9.223674,1.53598 l 0,0 c -0.06717,-0.40801 -0.134414,-0.81602 -0.201615,-1.22403 -0.449054,-2.95586 -0.416879,-5.90641 -0.0822,-8.87843 0.378212,-3.35427 0.955003,-6.68816 2.005834,-9.90351 2.090601,-6.3036 10.960243,-3.33205 8.869642,2.97155 z"
       inkscape:connector-curvature="0" />
    <path
       style="fill:#000000;fill-opacity:1;stroke:none"
       id="path3260"
       d="m 95.253012,954.42968 c -1.183559,2.8967 -2.391827,5.78322 -3.604789,8.66837 -0.841579,1.95364 -1.124423,4.0394 -1.270502,6.1421 0.09846,1.70437 0.782301,3.20998 1.350177,4.79163 2.243416,6.2503 -6.551232,9.43907 -8.79466,3.18877 l 0,0 c -1.011183,-2.81808 -1.998984,-5.61862 -1.879702,-8.6704 0.237388,-3.12313 0.739524,-6.21497 1.984027,-9.11313 1.292248,-3.06707 2.554735,-6.1462 3.853066,-9.20974 2.956554,-5.9431 11.318923,-1.74069 8.362383,4.2024 z"
       inkscape:connector-curvature="0" />
    <path
       style="fill:#000000;fill-opacity:1;stroke:none"
       id="path3284"
       d="m 155.94413,859.94079 c 2.52356,-3.78839 6.25864,-5.94398 10.47867,-7.30257 3.78548,-0.95172 7.70908,-1.13418 11.58815,-0.88782 3.13544,0.64643 6.81208,1.54055 9.16219,3.93541 0.57814,0.58914 1.01394,1.30399 1.52091,1.95599 2.00866,3.88514 0.64368,7.56077 -1.3654,11.0579 -1.40235,2.42212 -3.49812,4.04124 -5.74329,5.60409 -2.38908,1.33747 -4.65697,2.87341 -7.01575,4.26318 -1.90904,1.16865 -3.66257,2.59772 -5.35727,4.06263 -1.1054,0.98867 -1.40379,2.25778 -1.61238,3.66368 0.0278,0.14924 0.0555,0.2985 0.0833,0.44774 0.0762,6.64414 -9.27266,6.7524 -9.34881,0.10826 l 0,0 c 0.0178,-0.7203 0.0357,-1.44062 0.0535,-2.16093 0.65306,-3.54683 1.96918,-6.76155 4.73942,-9.19295 2.12851,-1.82911 4.33702,-3.59913 6.74015,-5.05036 2.1568,-1.24833 4.19519,-2.69624 6.39687,-3.86781 1.18042,-0.8207 2.19197,-1.3239 2.97224,-2.58426 0.23688,-0.41029 0.54206,-0.78102 0.75143,-1.20617 0.6197,-1.25837 0.10238,-0.51729 0.85024,-0.05 1.4714,0.77113 -2.78785,-1.89382 -3.51502,-1.61505 -2.72637,-0.25305 -5.51036,-0.0239 -8.19275,0.51058 -2.19135,0.58657 -4.09404,1.59565 -5.40715,3.52086 -3.66716,5.52862 -11.44634,0.31619 -7.7792,-5.21244 z"
       inkscape:connector-curvature="0" />
    <path
       style="fill:#000000;fill-opacity:1;stroke:none"
       id="path3286"
       d="m 167.49499,909.73151 c 0.63416,1.50512 1.34603,0.0222 -0.95232,-10e-4 -2.09072,0.31924 -1.09645,2.79541 -0.32411,3.99737 0.54328,0.65815 1.1098,0.59185 1.92602,0.62978 -6.37868,1.74618 -8.83568,-7.32039 -2.457,-9.06656 l 0,0 c 2.63031,-0.35194 4.03511,-0.45604 6.34343,1.07658 0.5949,0.64213 1.35211,1.1643 1.78469,1.92642 2.26131,3.98387 -0.228,8.02406 -3.65949,10.10303 -0.81693,0.24214 -1.60436,0.63124 -2.4508,0.72642 -4.23905,0.47673 -7.66501,-2.69133 -9.08006,-6.42006 -2.0906,-6.30359 6.77905,-9.27513 8.86964,-2.97154 z"
       inkscape:connector-curvature="0" />
    <path
       style="fill:#000000;fill-opacity:1;stroke:none"
       id="path3288"
       d="m 198.25581,838.60953 c 1.92113,-3.36803 4.86054,-5.62682 8.11672,-7.57214 3.08911,-1.85239 6.54241,-2.47662 10.06842,-2.77932 3.65873,-0.46546 7.14345,0.28412 10.55578,1.55522 3.67369,1.46739 6.25861,4.15993 8.31977,7.45381 1.33384,2.67634 2.22385,5.56577 2.84332,8.48822 0.45863,4.67116 -0.27477,7.398 -4.22427,10.27657 -2.54447,1.51429 -5.43969,2.28159 -8.11496,3.53395 -1.95031,0.81558 -3.71618,1.99696 -5.35715,3.32298 -1.2207,1.1119 -2.01841,2.37289 -2.41833,3.96297 -0.74653,1.99923 -1.14841,4.07256 -1.35492,6.18923 -0.0226,0.34118 -0.0451,0.68237 -0.0677,1.02356 -0.45465,6.62884 -9.78194,5.9826 -9.32729,-0.64625 l 0,0 c 0.0314,-0.44418 0.0626,-0.88835 0.094,-1.33252 0.28152,-2.6912 0.76336,-5.3502 1.69102,-7.90125 1.06284,-3.40481 2.81583,-6.33255 5.56473,-8.65112 2.25184,-1.78547 4.65613,-3.38963 7.30581,-4.52172 2.14873,-0.96657 4.35973,-1.82126 6.55787,-2.6316 0.19809,-0.13736 0.45746,-0.61109 0.5943,-0.4121 0.20459,0.29754 -0.64828,0.84498 -0.33914,1.0301 0.27445,0.16432 0.15516,-0.62519 0.18768,-0.94459 0.0132,-0.12937 0.0363,-0.25751 0.0545,-0.38625 -0.37529,-1.88883 -0.98281,-3.7183 -1.67381,-5.51109 -0.89617,-1.58868 -1.96082,-2.83499 -3.67858,-3.56733 -2.10466,-0.85877 -4.16159,-1.28458 -6.44495,-0.96568 -2.11824,0.16667 -4.20452,0.39258 -6.07641,1.50223 -2.356,1.39174 -4.24533,2.85173 -5.57575,5.35427 -4.12988,5.18855 -11.43056,-0.68162 -7.30067,-5.87015 z"
       inkscape:connector-curvature="0" />
    <path
       style="fill:#000000;fill-opacity:1;stroke:none"
       id="path3290"
       d="m 213.01343,890.92807 c 2.54888,-0.0401 1.79517,0.52268 0.76579,0.0904 -1.06129,0.43039 -0.17972,2.67158 0.13098,3.10721 0.3549,0.49758 0.88726,0.86177 1.4243,1.1507 0.9188,0.49432 1.53659,-0.0327 1.02196,0.35746 0.17966,0.09 0.0727,0.0628 0.32939,0.0332 -4.74351,4.62825 -11.25581,-2.11411 -6.51229,-6.74236 l 0,0 c 2.03902,-1.74706 0.94606,-1.01405 3.26579,-2.21856 1.51592,-0.44039 2.7035,-0.94414 4.40812,-0.48077 3.61247,0.98202 5.20364,4.00959 4.70089,7.57951 -0.10528,0.74735 -0.52975,1.41258 -0.79463,2.11886 -0.46716,0.66286 -0.82879,1.41544 -1.40152,1.9886 -2.87514,2.87725 -6.62172,2.98196 -10.29532,1.93032 -6.27179,-2.1012 -3.31524,-11.01582 2.95654,-8.91462 z"
       inkscape:connector-curvature="0" />
  </g>
</svg>
