<?xml version="1.0" encoding="UTF-8" standalone="no"?>
<!-- Created with Inkscape (http://www.inkscape.org/) -->

<svg
   xmlns:dc="http://purl.org/dc/elements/1.1/"
   xmlns:cc="http://creativecommons.org/ns#"
   xmlns:rdf="http://www.w3.org/1999/02/22-rdf-syntax-ns#"
   xmlns:svg="http://www.w3.org/2000/svg"
   xmlns="http://www.w3.org/2000/svg"
   xmlns:sodipodi="http://sodipodi.sourceforge.net/DTD/sodipodi-0.dtd"
   xmlns:inkscape="http://www.inkscape.org/namespaces/inkscape"
   width="250"
   height="250"
   id="svg3318"
   version="1.1"
   inkscape:version="0.48.5 r10040"
   sodipodi:docname="ways.svg">
  <defs
     id="defs3320" />
  <sodipodi:namedview
     id="base"
     pagecolor="#ffffff"
     bordercolor="#666666"
     borderopacity="1.0"
     inkscape:pageopacity="0.0"
     inkscape:pageshadow="2"
     inkscape:zoom="1.01"
     inkscape:cx="375"
     inkscape:cy="163.56436"
     inkscape:document-units="px"
     inkscape:current-layer="layer1"
     showgrid="false"
     inkscape:window-width="1366"
     inkscape:window-height="715"
     inkscape:window-x="-8"
     inkscape:window-y="-8"
     inkscape:window-maximized="1" />
  <metadata
     id="metadata3323">
    <rdf:RDF>
      <cc:Work
         rdf:about="">
        <dc:format>image/svg+xml</dc:format>
        <dc:type
           rdf:resource="http://purl.org/dc/dcmitype/StillImage" />
        <dc:title></dc:title>
      </cc:Work>
    </rdf:RDF>
  </metadata>
  <g
     inkscape:label="Layer 1"
     inkscape:groupmode="layer"
     id="layer1"
     transform="translate(0,-802.36218)">
    <path
       style="fill:#000000;fill-opacity:1;stroke:none"
       id="path3194"
       d="m 70.846915,849.1717 c 3.688176,0 7.376342,0 11.064508,0 3.934316,0 7.868622,0 11.802938,0 3.843603,0 7.687209,0 11.530809,0 5.55054,-0.1298 11.03885,-0.9719 16.52371,-1.75651 5.00671,-0.61549 9.99646,-1.36183 15.00825,-1.93727 3.23836,-0.37279 6.49765,-0.48142 9.75441,-0.52664 2.81561,-0.0226 5.63136,-0.0107 8.44702,-0.006 2.83379,0.004 5.66757,0.006 8.50135,0.007 2.47132,6.2e-4 4.94264,5.7e-4 7.41395,5.5e-4 2.68729,-4e-5 5.37459,-6e-5 8.06188,-8e-5 3.32966,-1e-5 6.65933,-1e-5 9.98899,-1e-5 3.28963,-0.18355 6.1987,0.62606 8.85933,2.53927 1.96252,1.5221 3.33039,3.6137 4.99748,5.4161 1.43892,1.84587 2.85071,3.72339 4.10812,5.70059 1.24074,1.68532 2.3526,3.4559 3.51822,5.19756 0.92099,1.40954 1.78143,2.94795 3.00148,4.12999 1.21653,1.59152 2.70617,2.9125 3.92065,4.49947 0.27149,0.9018 0.82401,1.76364 0.81448,2.70538 -0.0412,4.06159 -4.20642,5.85446 -7.25364,7.35904 -3.20462,1.41449 -6.49705,2.59935 -9.65744,4.12061 -2.13625,1.15242 -4.22842,2.36892 -6.28677,3.65132 -1.45429,1.3795 -2.93516,2.70405 -4.56452,3.87786 -1.90892,1.82972 -4.0469,3.06884 -6.55461,3.87698 -2.85251,0.6908 -5.80179,0.70321 -8.71917,0.73551 -2.76251,0.009 -5.52506,-0.007 -8.28756,-0.0151 -2.65833,-0.006 -5.31666,-0.008 -7.97499,-0.009 -2.70505,-6.5e-4 -5.41012,-4.5e-4 -8.11519,-3.9e-4 -3.72468,9e-5 -7.44937,1.2e-4 -11.17405,1.4e-4 -3.51301,10e-6 -7.02602,10e-6 -10.53903,10e-6 -2.61432,0 -5.22864,0 -7.84295,0 -3.63036,0 -7.26072,0 -10.89109,0 -2.81738,0 -5.63477,0 -8.45216,0 -2.395639,0 -4.791293,0 -7.186937,0 -2.195825,0 -4.391641,0 -6.587466,0 -2.788902,0.12909 -5.543109,-0.36397 -8.305468,-0.65944 -2.608049,-0.3055 -5.239437,-0.22644 -7.84232,-0.54935 -2.336911,-0.2954 -4.473357,-0.95542 -6.557333,-2.04893 -1.876507,-0.80984 -3.561714,-1.98145 -5.114655,-3.29567 -1.4394,-1.4456 -2.436799,-3.1965 -3.428342,-4.95535 -1.159985,-2.19703 -1.421479,-4.65161 -1.56938,-7.08908 0.03288,-2.49438 -0.391192,-4.95287 -0.677454,-7.4234 -0.285135,-2.47086 -0.374523,-4.95695 -0.42024,-7.44182 0.231329,-2.19378 0.603806,-4.39002 1.085158,-6.54424 0.549969,-3.08509 1.638185,-5.21078 3.96731,-7.33872 2.433407,-1.75257 5.321215,-2.07771 8.222896,-2.22006 1.525803,-0.036 0.768606,-0.024 2.271582,-0.0367 5.964163,-0.0478 6.03183,8.38865 0.06764,8.43652 l 0,0 c -1.313147,0.0104 -0.664146,4.8e-4 -1.947024,0.0278 -1.087455,0.047 -2.173427,0.14029 -3.245559,0.29887 -0.792132,-0.2377 -0.935367,2.43073 -1.130697,2.78352 -0.394261,1.45208 -0.449684,2.98536 -0.857858,4.43949 0.03977,2.21214 0.113426,4.42569 0.365734,6.62561 0.303453,2.62796 0.74151,5.24858 0.719017,7.90146 0.06419,1.16292 0.09362,2.36976 0.514669,3.46983 0.511214,0.93261 1.086191,1.99009 1.659519,2.75444 0.903335,0.99269 2.273952,1.53802 3.43926,2.13796 1.329179,0.69897 2.248609,0.97293 3.823375,1.1657 2.464521,0.47237 5.078718,0.0378 7.556569,0.51366 2.463947,0.26638 4.916465,0.72927 7.403574,0.61107 2.195825,0 4.39164,0 6.587466,0 2.395644,0 4.791297,0 7.186934,0 2.81739,0 5.63478,0 8.45216,0 3.63037,0 7.26073,0 10.89109,0 2.61431,0 5.22862,0 7.84294,0 3.513,0 7.026,0 10.539,-10e-6 3.72464,-2e-5 7.44926,-4e-5 11.17389,-1.4e-4 2.70627,-6e-5 5.41253,-2.6e-4 8.1188,3.9e-4 2.66468,0.001 5.32936,0.003 7.99404,0.009 2.72457,0.007 5.44916,0.0239 8.17374,0.0156 2.15067,-0.0228 4.32132,-0.0122 6.44465,-0.39734 1.67316,-0.31386 2.73059,-1.71683 4.05905,-2.67344 1.80035,-1.2192 3.17786,-2.91695 4.97076,-4.1472 2.32313,-1.44313 4.68176,-2.81957 7.10163,-4.09801 3.14492,-1.49783 6.39192,-2.73342 9.59456,-4.0902 1.56401,-0.75381 0.9303,-0.4174 2.4042,-1.24666 0.20089,-0.11304 0.38419,-0.42209 0.60061,-0.34277 0.16561,0.0607 -0.17355,0.31369 -0.20774,0.48676 -0.44297,2.2431 -0.41584,1.51608 0.48963,3.53352 -0.46632,-1.16855 -2.60429,-2.37485 -3.23593,-3.66292 -1.44684,-1.60644 -2.75226,-3.3446 -3.85292,-5.20797 -1.1996,-1.81161 -2.34894,-3.64213 -3.64177,-5.38883 -0.97096,-1.58599 -2.14508,-3.03793 -3.23337,-4.54084 -1.2881,-1.45468 -2.42965,-3.04022 -3.85933,-4.36349 -0.92867,-0.96087 -2.45126,-0.7823 -3.72628,-0.79722 -3.32964,0 -6.6593,0 -9.98895,10e-6 -2.68728,2e-5 -5.37456,4e-5 -8.06185,8e-5 -2.47228,2e-5 -4.94457,8e-5 -7.41685,-5.5e-4 -2.8376,-9.6e-4 -5.6752,-0.003 -8.5128,-0.007 -2.77242,-0.005 -5.54492,-0.0164 -8.3173,0.005 -2.9744,0.0401 -5.95155,0.13339 -8.90935,0.47254 -4.93396,0.56474 -9.84559,1.30347 -14.77461,1.90717 -5.87994,0.84107 -11.76652,1.72688 -17.71785,1.84149 -3.8436,0 -7.687203,0 -11.530806,0 -3.934316,0 -7.868622,0 -11.802939,0 -3.688166,0 -7.376331,0 -11.064508,0 -5.964361,0 -5.964361,-8.43678 0,-8.43678 z"
       inkscape:connector-curvature="0" />
    <path
       style="fill:#000000;fill-opacity:1;stroke:none"
       id="path3196"
       d="m 154.48435,931.43039 c -3.04459,0 -6.08919,0 -9.13379,0 -3.86193,0 -7.72386,0 -11.58579,0 -5.46674,0 -10.93347,0 -16.40021,0 -6.22249,0 -12.44497,0 -18.667465,0 -5.436958,0 -10.873917,0 -16.310865,0 -3.976683,0 -7.953355,0 -11.930027,0 -2.913642,0 -5.827284,0 -8.740915,0 -2.84227,0 -5.684539,0 -8.526809,0 -2.939235,0 -5.87847,0 -8.817705,0 -1.2047,0.0568 -2.419859,-0.0689 -3.623859,0 -0.178797,0.0104 -0.629097,0.20599 -0.462919,0.27274 -0.994748,0.66099 -1.590976,1.77301 -2.144264,2.80845 -1.192113,2.8269 -3.445585,5.12513 -5.590632,7.26536 -2.483288,2.39832 -5.126063,4.61985 -7.690514,6.92617 -1.822932,1.66794 -3.326816,3.64952 -4.443161,5.85003 -0.02275,0.16514 -0.171386,0.78993 -0.01566,1.01045 0.04133,0.0586 0.150427,-0.0307 0.215005,3.5e-4 0.457773,0.22046 0.861584,0.87265 1.259946,1.20334 2.038656,1.53055 4.227843,2.84213 6.295328,4.33113 1.957879,1.4022 3.853978,2.90074 5.684257,4.46765 1.977293,1.58255 3.546966,3.5788 5.321226,5.36509 1.534738,1.31759 2.792702,2.91356 4.24373,4.31252 1.612414,0.32666 4.060632,0.35141 5.938256,0.30056 3.791519,-0.0606 7.497356,-0.8755 11.246666,-1.33767 3.993153,-0.43253 8.011179,-0.52242 12.023809,-0.58245 2.669621,-0.0313 5.339471,-0.0219 8.009206,-0.0177 3.435847,0 6.871704,0.0104 10.307551,0.0104 4.126557,7.3e-4 8.253103,7.3e-4 12.379655,7.3e-4 2.74548,0 5.49096,-10e-5 8.23644,-10e-5 2.52824,0 5.05648,0 7.58472,0 2.21562,0 4.43123,0 6.64685,0 2.78997,0 5.57996,0 8.36994,0 2.30154,-0.28136 4.59057,-0.63622 6.90069,-0.84648 2.04244,-0.0104 4.01877,-0.27749 6.02218,-0.62725 2.28231,-0.40512 4.59771,-0.53004 6.91024,-0.60191 1.47591,-0.1924 2.67788,-0.97287 3.86018,-1.80909 1.54593,-1.3878 2.414,-3.34538 3.48715,-5.09009 0.79689,-1.43951 1.48262,-2.97377 2.01199,-4.53586 0.37281,-1.42908 0.39633,-2.91878 0.43892,-4.38637 0.0393,-2.46437 0.0234,-4.92929 0.0186,-7.39387 -0.005,-2.39051 -0.008,-4.78103 -0.009,-7.17155 -9.7e-4,-2.12638 -9e-4,-4.25276 -9e-4,-6.37914 0.0262,-0.13858 -0.0104,-2.48372 -0.0876,-2.46219 -0.60498,0.16795 0.94184,1.63536 -0.64173,-0.0133 -0.76583,-0.59384 -1.77856,-0.67196 -2.68752,-0.94558 -5.70521,-1.73942 -3.24585,-9.80962 2.45935,-8.0702 l 0,0 c 2.32456,0.72171 4.61407,1.3441 6.34122,3.20261 2.50432,2.65358 3.28116,4.69533 3.05108,8.28865 0,2.12474 -6e-5,4.24947 9.1e-4,6.37419 0.001,2.38672 0.004,4.77343 0.009,7.16014 0.005,2.55455 0.0219,5.10949 -0.0223,7.66379 -0.0726,2.34706 -0.18768,4.71734 -0.92553,6.96766 -0.77228,2.11085 -1.64715,4.21235 -2.78935,6.1495 -1.69924,2.70567 -3.12841,5.64546 -5.81552,7.55212 -2.54529,1.77062 -5.29357,3.11279 -8.44107,3.3314 -1.91282,0.0574 -3.82932,0.14721 -5.71776,0.48024 -2.22866,0.389 -4.44935,0.69551 -6.71639,0.7189 -2.56155,0.22759 -5.09052,0.70397 -7.65679,0.88051 -2.78998,0 -5.57996,0 -8.36995,0 -2.21561,0 -4.43122,0 -6.64684,0 -2.52822,0 -5.05644,0 -7.58466,0 -2.74551,0 -5.491,0 -8.2365,0 -4.127262,0 -8.254518,0 -12.381763,-7.3e-4 -3.43974,-8.4e-4 -6.87948,0 -10.31922,-0.0104 -2.623288,0 -5.246701,-0.0125 -7.869895,0.0167 -3.713185,0.0553 -7.431537,0.13155 -11.127708,0.52138 -4.035353,0.48671 -8.024467,1.37463 -12.108406,1.39812 -4.147119,0.0543 -8.71169,0.1044 -12.040186,-2.7477 -1.45322,-1.46546 -2.796709,-3.03407 -4.340382,-4.41017 -1.575288,-1.63407 -3.020053,-3.39738 -4.774148,-4.85172 -1.657693,-1.42589 -3.378931,-2.78567 -5.159182,-4.05219 -2.353977,-1.74553 -4.955763,-3.15211 -7.183779,-5.07722 -3.569072,-3.62288 -5.077883,-7.22851 -3.073181,-12.20768 1.640367,-3.06406 3.685118,-5.88646 6.286456,-8.21593 2.472548,-2.20567 4.995301,-4.35581 7.393043,-6.64657 1.625785,-1.5774 3.303205,-3.23294 4.146273,-5.36667 1.298242,-2.27932 2.784017,-4.47924 5.073207,-5.8747 0.560135,-0.30001 1.091922,-0.66037 1.680405,-0.90003 2.181579,-0.88845 4.556723,-0.59164 6.844859,-0.63523 2.939235,0 5.87847,0 8.817705,0 2.842269,0 5.684539,0 8.526808,0 2.913642,0 5.827273,0 8.740915,0 3.976673,0 7.953345,0 11.930027,0 5.436948,0 10.873907,0 16.310865,0 6.222497,0 12.444987,0 18.667467,0 5.46674,0 10.93347,0 16.40021,0 3.86193,0 7.72386,0 11.5858,0 3.04459,0 6.08919,0 9.13378,0 5.96435,0 5.96435,8.43678 0,8.43678 z"
       inkscape:connector-curvature="0" />
    <path
       style="fill:#000000;fill-opacity:1;stroke:none"
       id="path3198"
       d="m 121.62769,845.12487 c 0,-2.9452 0,-5.89038 0,-8.83558 0,-2.5794 0,-5.1588 0,-7.7382 0.0105,-2.37637 -0.0803,-4.74875 0.1555,-7.11479 0.63572,-3.48016 3.03163,-5.89687 5.64875,-8.05519 2.51021,-2.01904 5.49567,-2.75284 8.62472,-3.09067 3.04734,-0.4091 5.88299,0.0578 8.66003,1.3197 2.90278,1.26383 4.89877,3.45207 6.30486,6.22816 1.19186,2.00394 1.73042,4.23365 2.03821,6.51896 0.22538,2.22005 0.21465,4.45468 0.21699,6.68348 -0.004,2.11493 -0.0109,4.22984 -0.0145,6.34476 -0.003,2.14998 -0.003,4.29996 -0.004,6.44994 -0.15796,2.172 -0.55037,4.3153 -0.79022,6.47858 -0.66257,5.92878 -9.04523,4.99155 -8.38266,-0.93724 l 0,0 c 0.20847,-1.85281 0.48385,-3.69544 0.738,-5.54229 2.4e-4,-2.15458 5.2e-4,-4.30915 0.004,-6.46373 0.004,-2.10719 0.0109,-4.21437 0.0145,-6.32156 -0.002,-1.87383 0.0112,-3.75185 -0.14869,-5.62044 -0.16778,-1.44115 -0.5108,-2.7571 -1.30525,-4.0015 -0.3615,-1.13639 -1.29724,-1.76346 -2.36115,-2.23043 -1.25379,-0.7688 -2.6906,-0.63852 -4.10982,-0.51359 -1.47529,0.13907 -2.92064,0.29124 -4.13941,1.22403 -0.95725,0.77758 -1.95109,1.54126 -2.61825,2.52309 -0.34246,2.00416 0.0548,4.0981 -0.0968,6.12073 0,2.5794 0,5.1588 0,7.7382 0,2.9452 0,5.89038 0,8.83558 0,5.96571 -8.43487,5.96571 -8.43487,0 z"
       inkscape:connector-curvature="0" />
    <path
       style="fill:#000000;fill-opacity:1;stroke:none"
       id="path3200"
       d="m 132.17128,898.56627 c 0,3.30003 0,6.60007 0,9.9001 0,2.7496 0,5.4992 0,8.24882 0.0491,1.47207 -0.11038,2.9534 0.10124,4.41427 0.64681,5.93053 -7.73832,6.84547 -8.38512,0.91495 l 0,0 c -0.1662,-1.77629 -0.18518,-3.5448 -0.15101,-5.32922 0,-2.74962 0,-5.49922 0,-8.24882 0,-3.30003 0,-6.60007 0,-9.9001 0,-5.96571 8.43488,-5.96571 8.43488,0 z"
       inkscape:connector-curvature="0" />
    <path
       style="fill:#000000;fill-opacity:1;stroke:none"
       id="path3202"
       d="m 154.14432,902.32664 c -0.39576,2.80675 -0.62459,5.63229 -0.77311,8.46172 -0.25119,2.29335 -0.004,4.53015 0.31616,6.79568 0.21688,1.64554 0.11618,0.82172 0.30211,2.47146 0.6644,5.92858 -7.71798,6.8684 -8.38238,0.93982 l 0,0 c -0.1627,-1.46141 -0.0728,-0.71812 -0.27147,-2.22966 -0.39556,-2.80004 -0.65479,-5.59336 -0.38753,-8.42274 0.16381,-3.07947 0.41373,-6.15475 0.84613,-9.20942 0.84348,-5.90576 9.19358,-4.71262 8.35009,1.19314 z"
       inkscape:connector-curvature="0" />
    <path
       style="fill:#000000;fill-opacity:1;stroke:none"
       id="path3204"
       d="m 136.42454,984.63778 c 0.87641,3.15998 1.58085,6.37612 2.23025,9.59216 0.57248,3.09786 0.77459,6.24356 0.87413,9.38696 0.052,2.2507 0.0398,4.5022 0.0342,6.7534 -0.006,2.3551 -0.008,4.7101 -0.0104,7.0653 -0.001,2.4144 -0.001,4.8286 -0.001,7.243 1e-5,2.2463 6e-5,4.4927 8e-5,6.7391 1e-5,0.7764 1e-5,1.5527 2e-5,2.3291 6e-5,5.9658 -8.43482,5.9658 -8.43487,0 l 0,0 c -1e-5,-0.7763 -1e-5,-1.5527 -2e-5,-2.329 -2e-5,-2.2464 -7e-5,-4.4929 -9e-5,-6.7392 2e-5,-2.4162 -8e-5,-4.8323 0.001,-7.2485 0.001,-2.3602 0.004,-4.7204 0.0104,-7.0805 0.005,-2.1565 0.0173,-4.3134 -0.0302,-6.4696 -0.082,-2.6729 -0.24103,-5.34868 -0.71248,-7.98572 -0.57657,-2.8782 -1.21823,-5.75149 -1.96315,-8.58856 -1.8861,-5.65952 6.11593,-8.32746 8.00203,-2.66794 z"
       inkscape:connector-curvature="0" />
    <path
       style="fill:#000000;fill-opacity:1;stroke:none"
       id="path3206"
       d="m 156.25304,980.36688 c -0.67346,2.90096 -1.29762,5.8062 -1.66321,8.76333 -0.24033,2.15294 -0.271,4.3207 -0.28853,6.48449 -0.007,2.09531 0.002,4.19061 0.006,6.2859 0.004,2.1084 0.005,4.2167 0.005,6.3251 3.7e-4,2.1094 2.8e-4,4.2186 2.5e-4,6.328 -4e-5,2.1092 -5e-5,4.2185 -6e-5,6.3277 -1e-5,2.1092 -1e-5,4.2184 -1e-5,6.3276 -0.0856,1.4713 0.40291,2.8713 0.85482,4.2504 0.83744,2.4753 1.14519,4.9986 0.84919,7.5895 -0.97501,4.1552 -3.76771,5.6792 -7.74266,6.0219 -2.57652,0.071 -4.45079,-1.3784 -6.38477,-2.8449 -4.74626,-3.6128 0.36187,-10.3265 5.10813,-6.7138 l 0,0 c 0.29739,0.2271 0.6013,0.4458 0.89215,0.6812 0.92601,0.7493 0.0176,0.06 -0.0355,0.3791 -0.0141,0.086 0.16736,0.042 0.25104,0.064 -0.15417,0.095 -0.26147,0.7857 -0.45447,1.3378 0.21825,-1.3191 -0.10375,-2.6102 -0.49908,-3.8882 -0.72765,-2.224 -1.35705,-4.5113 -1.27374,-6.8763 0,-2.1092 0,-4.2184 0,-6.3276 1e-5,-2.1093 3e-5,-4.2184 7e-5,-6.3277 4e-5,-2.1086 1.3e-4,-4.2172 -2.5e-4,-6.3258 -5.4e-4,-2.1033 -0.001,-4.2068 -0.005,-6.3101 -0.004,-2.12427 -0.0135,-4.24849 -0.005,-6.37272 0.0209,-2.49098 0.0666,-4.98603 0.35365,-7.46344 0.37993,-3.00202 0.93905,-5.97335 1.68258,-8.90782 0.84349,-5.9058 9.19359,-4.71261 8.3501,1.19318 z"
       inkscape:connector-curvature="0" />
    <path
       style="fill:#000000;fill-opacity:1;stroke:none"
       id="path3208"
       d="m 67.683845,941.97638 c 3.145712,0 6.291434,0 9.437157,0 1.35447,-0.0946 2.700485,-0.27712 4.047116,-0.44521 5.918571,-0.73776 6.961697,7.63427 1.043125,8.37203 l 0,0 c -1.692231,0.21068 -3.384264,0.44116 -5.090241,0.50997 -3.145723,0 -6.291445,0 -9.437157,0 -5.964361,0 -5.964361,-8.43679 0,-8.43679 z"
       inkscape:connector-curvature="0" />
    <path
       style="fill:#000000;fill-opacity:1;stroke:none"
       id="path3210"
       d="m 80.725114,948.25855 c 0.02495,3.35456 -0.483408,6.68484 -0.780818,10.02091 -0.132391,1.79673 -0.02568,0.8547 -0.345026,2.82313 -1.035005,5.8752 -9.341903,4.41115 -8.306898,-1.46405 l 0,0 c 0.241067,-1.16621 0.128257,-0.46694 0.250545,-2.11014 0.276388,-3.08645 0.750955,-6.16815 0.747323,-9.26985 0,-5.9657 8.434874,-5.9657 8.434874,0 z"
       inkscape:connector-curvature="0" />
    <path
       style="fill:#000000;fill-opacity:1;stroke:none"
       id="path3212"
       d="m 67.683845,960.95915 c 2.944516,0 5.889043,0 8.83357,0 2.424201,0 4.848391,0 7.272592,0 0.413967,0 0.827933,0 1.2419,0 5.964351,0 5.964351,8.43678 0,8.43678 l 0,0 c -0.413967,0 -0.827933,0 -1.2419,0 -2.424201,0 -4.848391,0 -7.272592,0 -2.944527,0 -5.889054,0 -8.83357,0 -5.964361,0 -5.964361,-8.43678 0,-8.43678 z"
       inkscape:connector-curvature="0" />
    <path
       style="fill:#000000;fill-opacity:1;stroke:none"
       id="path3214"
       d="m 113.19282,946.14936 c 0.14175,3.6833 -0.13295,7.33921 -0.49836,11.00015 -0.21426,2.23747 -0.0684,1.09043 -0.45076,3.43941 -0.99352,5.88236 -9.31056,4.47698 -8.31702,-1.40538 l 0,0 c 0.31296,-1.75803 0.17631,-0.80212 0.37467,-2.87253 0.33803,-3.38348 0.60262,-6.75643 0.45659,-10.16165 0,-5.96572 8.43488,-5.96572 8.43488,0 z"
       inkscape:connector-curvature="0" />
    <path
       style="fill:#000000;fill-opacity:1;stroke:none"
       id="path3216"
       d="m 112.8696,941.89201 c 3.36165,0.32118 6.72638,0.55984 10.09838,0.70429 2.64765,0.38708 5.43769,-0.28365 8.06866,0.26619 0.57757,0.12071 1.13044,0.35351 1.69566,0.53026 3.25862,1.80368 3.50093,4.53376 3.37865,8.06204 -0.0714,2.23141 -0.52089,4.42435 -1.19413,6.52593 -0.41846,1.20074 -0.5209,2.4741 -0.59138,3.74377 -0.33599,3.30479 -2.06695,4.86356 -4.89628,5.63329 -2.14854,0.3573 -4.33585,0.27857 -6.50313,0.27289 -2.1438,-0.0102 -4.28759,-0.0212 -6.43141,-0.0271 -1.76267,-0.0178 -3.52319,0.0713 -5.27672,-0.13819 -2.52884,-0.59571 -3.72922,-2.57336 -4.31618,-5.1385 -0.94823,-4.73654 5.21375,-6.19428 6.16197,-1.45774 l 0,0 c 0.0292,0.56913 -0.59091,-0.44999 -0.99984,-0.19707 1.42222,0.37009 3.00089,-0.12568 4.44704,0.0763 2.14351,0.006 4.28701,0.0168 6.43051,0.0269 1.71011,0.004 3.42703,0.0453 5.13235,-0.11268 0.0722,-0.005 0.14866,-0.0442 0.21629,-0.0166 0.13284,0.0544 -0.15844,0.25694 -0.22342,0.39415 -0.22374,0.47245 -0.12032,0.58201 -0.11228,0.5701 0.0596,-0.0883 0.0516,-0.21182 0.0774,-0.31773 0.11359,-1.89415 0.32027,-3.7864 0.9334,-5.57821 0.47327,-1.45773 0.80203,-2.97872 0.84454,-4.53133 0.0236,-0.60622 -0.002,-1.71493 0.0796,-1.72859 0.19768,-0.033 0.49507,0.79926 0.76584,0.4109 -0.44284,-0.48266 -2.14613,-0.28349 -2.6029,-0.29 -1.77809,-0.0253 -3.55611,-0.0623 -5.33332,-0.12926 -3.28837,-0.14167 -6.57404,-0.34125 -9.84935,-0.69894 -4.45916,0 -4.45916,-6.85526 0,-6.85526 z"
       inkscape:connector-curvature="0" />
    <path
       style="fill:#000000;fill-opacity:1;stroke:none"
       id="path3218"
       d="m 92.199183,871.80423 c 0.230766,2.91992 0.727962,5.80063 1.193459,8.68935 0.94902,5.88971 -7.378388,7.23214 -8.327408,1.34243 l 0,0 c -0.481206,-2.98661 -0.990071,-5.96748 -1.235794,-8.98533 -0.739787,-5.91964 7.629956,-6.9661 8.369743,-1.04645 z"
       inkscape:connector-curvature="0" />
    <path
       style="fill:#000000;fill-opacity:1;stroke:none"
       id="path3220"
       d="m 94.042823,869.20907 c 2.001519,0 4.003037,0 6.004557,0 5.96435,0 5.96435,8.43679 0,8.43679 l 0,0 c -2.00152,0 -4.003038,0 -6.004557,0 -5.964351,0 -5.964351,-8.43679 0,-8.43679 z"
       inkscape:connector-curvature="0" />
    <path
       style="fill:#000000;fill-opacity:1;stroke:none"
       id="path3222"
       d="m 110.02974,861.65532 c 0,2.98725 0,5.97449 0,8.96172 0,2.59459 0,5.18918 0,7.78377 -0.17507,1.73423 0.56539,3.24051 0.99886,4.86633 1.39251,5.80084 -6.80925,7.7706 -8.20176,1.96977 l 0,0 c -0.0741,-0.68535 0.0296,0.0819 -0.42343,-1.31916 -0.57675,-1.78355 -0.87561,-3.63785 -0.80855,-5.51694 0,-2.59459 0,-5.18918 0,-7.78377 0,-2.98723 0,-5.97447 0,-8.96172 0,-5.96571 8.43488,-5.96571 8.43488,0 z"
       inkscape:connector-curvature="0" />
    <path
       style="fill:#000000;fill-opacity:1;stroke:none"
       id="path3224"
       d="m 93.159988,862.70992 c 0,2.00197 0,4.00394 0,6.00592 0,5.9657 -8.434874,5.9657 -8.434874,0 l 0,0 c 0,-2.00198 0,-4.00395 0,-6.00592 0,-5.96571 8.434874,-5.96571 8.434874,0 z"
       inkscape:connector-curvature="0" />
    <path
       style="fill:#000000;fill-opacity:1;stroke:none"
       id="path3226"
       d="m 134.36373,863.16795 c 0.43749,3.52557 1.28864,6.98123 2.00645,10.45635 0.44063,2.08965 0.70141,4.20733 0.8998,6.33131 0.54663,5.9406 -7.85274,6.71382 -8.39937,0.77322 l 0,0 c -0.1636,-1.81149 -0.38599,-3.61696 -0.76111,-5.39881 -0.75172,-3.64527 -1.63684,-7.27072 -2.09587,-10.96893 -0.84348,-5.90575 7.50662,-7.0989 8.3501,-1.19314 z"
       inkscape:connector-curvature="0" />
    <path
       style="fill:#000000;fill-opacity:1;stroke:none"
       id="path3228"
       d="m 136.21719,869.20907 c 2.86053,0.15655 5.68381,-0.31247 8.51793,-0.61204 2.70736,-0.27866 5.42759,-0.37807 8.14728,-0.42787 5.96338,-0.1082 6.11635,8.32721 0.15297,8.4354 l 0,0 c -2.47569,0.0445 -4.95204,0.13098 -7.41672,0.38285 -3.12665,0.3282 -6.24633,0.81781 -9.40146,0.65845 -5.96435,0 -5.96435,-8.43679 0,-8.43679 z"
       inkscape:connector-curvature="0" />
    <path
       style="fill:#000000;fill-opacity:1;stroke:none"
       id="path3230"
       d="m 160.47048,863.30649 c -0.39577,2.80675 -0.62459,5.63229 -0.77312,8.46173 -0.10463,2.25225 -0.11433,4.50727 -0.11975,6.76147 -5.3e-4,1.24376 -0.0612,0.70961 0.0963,1.60985 0.71014,5.92326 -7.66472,6.92779 -8.37487,1.00451 l 0,0 c -0.19252,-1.91753 -0.15701,-1.03842 -0.1563,-2.63482 0.006,-2.39593 0.018,-4.7927 0.13149,-7.18645 0.16382,-3.07947 0.41374,-6.15476 0.84613,-9.20943 0.84348,-5.90575 9.19358,-4.71261 8.3501,1.19314 z"
       inkscape:connector-curvature="0" />
    <path
       style="fill:#000000;fill-opacity:1;stroke:none"
       id="path3232"
       d="m 175.40001,860.60073 c 0,3.48776 0,6.97552 0,10.46329 0.0936,1.15947 0.27209,2.30959 0.43565,3.46054 0.83788,5.90655 -7.51336,7.09175 -8.35123,1.1852 l 0,0 c -0.21852,-1.54298 -0.45697,-3.08583 -0.51929,-4.64574 0,-3.48777 0,-6.97553 0,-10.46329 0,-5.96572 8.43487,-5.96572 8.43487,0 z"
       inkscape:connector-curvature="0" />
    <path
       style="fill:#000000;fill-opacity:1;stroke:none"
       id="path3234"
       d="m 173.24589,864.99068 c 2.31424,0 4.62848,0 6.94272,0 5.96435,0 5.96435,8.43679 0,8.43679 l 0,0 c -2.31424,0 -4.62848,0 -6.94272,0 -5.96435,0 -5.96435,-8.43679 0,-8.43679 z"
       inkscape:connector-curvature="0" />
    <path
       style="fill:#000000;fill-opacity:1;stroke:none"
       id="path3236"
       d="m 192.94596,859.64079 c -0.75136,3.14682 -1.7345,6.2252 -2.33137,9.40891 -0.36866,2.10715 -0.43287,4.24713 -0.4662,6.38064 -0.002,0.34208 -0.004,0.68416 -0.006,1.02624 -0.0404,5.96558 -8.47506,5.90845 -8.43468,-0.0571 l 0,0 c 0.002,-0.36815 0.005,-0.73631 0.007,-1.10445 0.0429,-2.61591 0.14559,-5.23787 0.61308,-7.8186 0.64004,-3.34015 1.62216,-6.5839 2.43525,-9.88184 1.44657,-5.78758 9.62959,-3.74136 8.18303,2.04623 z"
       inkscape:connector-curvature="0" />
    <path
       style="fill:#000000;fill-opacity:1;stroke:none"
       id="path3238"
       d="m 90.080638,1031.9037 c 0.312377,1.1442 0.123602,0.545 0.584163,1.7917 1.966845,5.6319 -5.996207,8.4141 -7.963052,2.7821 l 0,0 c -0.76966,-2.2783 -0.451239,-1.1498 -0.97121,-3.3807 -0.843486,-5.9058 7.506614,-7.0988 8.350099,-1.1931 z"
       inkscape:connector-curvature="0" />
    <path
       style="fill:#000000;fill-opacity:1;stroke:none"
       id="path3240"
       d="m 73.76183,1033.8312 c 1.221265,1.2624 2.484478,2.4831 3.741773,3.7094 4.270283,4.1649 -1.618395,10.2053 -5.888678,6.0405 l 0,0 c -1.50475,-1.4677 -3.032651,-2.9161 -4.439633,-4.4795 -3.725897,-4.6585 2.86063,-9.9289 6.586538,-5.2704 z"
       inkscape:connector-curvature="0" />
    <path
       style="fill:#000000;fill-opacity:1;stroke:none"
       id="path3242"
       d="m 103.7394,1028.931 c 0.77917,2.1063 2.07351,3.9519 3.24212,5.8508 3.12554,5.0809 -4.05841,9.5021 -7.183944,4.4212 l 0,0 c -1.5064,-2.4503 -3.121862,-4.8596 -4.060205,-7.6041 -1.886099,-5.6596 6.115929,-8.3276 8.002029,-2.6679 z"
       inkscape:connector-curvature="0" />
    <path
       style="fill:#000000;fill-opacity:1;stroke:none"
       id="path3244"
       d="m 189.9572,1023.7066 c 1.79118,2.3102 3.35393,4.7908 5.07059,7.158 1.03122,1.5456 0.53934,0.8707 1.4448,2.0469 3.59962,4.7567 -3.12588,9.8485 -6.72552,5.0918 l 0,0 c -1.13311,-1.5142 -0.62048,-0.78 -1.55233,-2.1923 -1.7757,-2.4588 -3.4024,-5.0243 -5.25578,-7.4246 -3.30843,-4.9637 3.70982,-9.6436 7.01824,-4.6798 z"
       inkscape:connector-curvature="0" />
    <path
       style="fill:#000000;fill-opacity:1;stroke:none"
       id="path3246"
       d="m 201.33931,1025.3943 c 0.90438,1.0689 1.7169,2.2049 2.60815,3.2847 3.78067,4.614 -2.74312,9.9619 -6.52381,5.3478 l 0,0 c -0.90577,-1.1116 -1.75375,-2.2602 -2.67088,-3.3621 -3.7259,-4.6584 2.86063,-9.9288 6.58654,-5.2704 z"
       inkscape:connector-curvature="0" />
    <path
       style="fill:#000000;fill-opacity:1;stroke:none"
       id="path3248"
       d="m 221.72494,1026.2692 c 0.82298,1.5979 1.59914,3.2167 2.35742,4.846 2.51246,5.4106 -5.13752,8.9645 -7.64998,3.5539 l 0,0 c -0.72127,-1.5571 -1.4675,-3.1003 -2.25183,-4.6269 -2.66734,-5.3359 4.87704,-9.1089 7.54439,-3.773 z"
       inkscape:connector-curvature="0" />
  </g>
</svg>
