<?xml version="1.0" encoding="UTF-8" standalone="no"?>
<!-- Created with Inkscape (http://www.inkscape.org/) -->

<svg
   xmlns:dc="http://purl.org/dc/elements/1.1/"
   xmlns:cc="http://creativecommons.org/ns#"
   xmlns:rdf="http://www.w3.org/1999/02/22-rdf-syntax-ns#"
   xmlns:svg="http://www.w3.org/2000/svg"
   xmlns="http://www.w3.org/2000/svg"
   xmlns:sodipodi="http://sodipodi.sourceforge.net/DTD/sodipodi-0.dtd"
   xmlns:inkscape="http://www.inkscape.org/namespaces/inkscape"
   width="250"
   height="250"
   id="svg2"
   version="1.1"
   inkscape:version="0.48.5 r10040"
   sodipodi:docname="account.svg">
  <defs
     id="defs4" />
  <sodipodi:namedview
     id="base"
     pagecolor="#ffffff"
     bordercolor="#666666"
     borderopacity="1.0"
     inkscape:pageopacity="0.0"
     inkscape:pageshadow="2"
     inkscape:zoom="1.4"
     inkscape:cx="192.31256"
     inkscape:cy="123.11395"
     inkscape:document-units="px"
     inkscape:current-layer="layer1"
     showgrid="false"
     inkscape:window-width="1366"
     inkscape:window-height="745"
     inkscape:window-x="-8"
     inkscape:window-y="-8"
     inkscape:window-maximized="1" />
  <metadata
     id="metadata7">
    <rdf:RDF>
      <cc:Work
         rdf:about="">
        <dc:format>image/svg+xml</dc:format>
        <dc:type
           rdf:resource="http://purl.org/dc/dcmitype/StillImage" />
        <dc:title></dc:title>
      </cc:Work>
    </rdf:RDF>
  </metadata>
  <g
     inkscape:label="Layer 1"
     inkscape:groupmode="layer"
     id="layer1"
     transform="translate(0,-802.36218)">
    <path
       style="fill:#000000;fill-opacity:1;stroke:none"
       id="path3059"
       d="m 73.214286,920.87892 c -0.04682,-3.55519 0.0012,-7.10221 0.208906,-10.65143 0.234951,-3.48787 0.382546,-6.98037 0.459969,-10.47504 0.04863,-2.69242 0.04978,-5.38537 0.05047,-8.07813 -0.001,-2.37159 -0.003,-4.74317 -0.004,-7.11475 0.136837,-2.31444 0.417157,-4.61542 0.841839,-6.89364 0.209979,-1.74097 0.699157,-3.42501 1.03376,-5.14181 0.544537,-1.87082 1.179109,-3.72368 1.857619,-5.55187 1.171315,-2.82884 2.342177,-5.66033 3.728201,-8.39152 1.640539,-3.22464 3.370258,-6.40798 5.478604,-9.35177 1.676474,-2.50238 3.789749,-4.63359 6.0461,-6.60877 2.323971,-1.94945 5.018948,-3.24765 7.893916,-4.14653 2.70507,-0.82303 5.43359,-1.56807 8.2034,-2.13813 3.34826,-0.61844 6.76164,-0.6866 10.15588,-0.74767 3.06488,-0.0366 6.13004,-0.0279 9.19506,-0.0215 3.18183,0.005 6.09987,1.01554 8.93528,2.36849 3.0524,1.53743 5.87641,3.46853 8.82165,5.19225 2.06953,1.25865 4.1525,2.49126 6.21002,3.76876 1.82487,1.20724 3.44201,2.64171 4.94255,4.22622 1.54946,1.80606 2.99627,3.69615 4.2564,5.71514 1.09521,1.91471 1.92689,3.92402 2.50085,6.05119 0.64867,1.93501 0.8608,3.96214 1.23659,5.95407 0.43435,2.31861 0.59399,4.67303 0.90951,7.00883 0.30202,2.8354 0.90772,5.62343 1.36898,8.43418 0.36552,3.01634 0.75398,6.03107 1.06376,9.05422 0.21469,2.23076 0.23386,4.4664 0.49923,6.69168 0.33903,2.16526 0.28254,4.37053 0.55629,6.5395 0.33632,2.20802 0.51887,4.42994 0.61419,6.65991 0.0719,2.19603 0.0805,4.39343 0.0836,6.59043 -0.062,1.59233 0.26951,3.39007 -0.59364,4.8427 -0.30339,0.51059 -0.76597,0.9079 -1.14895,1.36185 -2.08054,1.4363 -4.3931,0.76915 -6.69411,0.51282 -1.9068,-0.18073 -3.82315,-0.21423 -5.73705,-0.23904 -2.08611,-0.0177 -4.17232,-0.0138 -6.25848,-0.0124 -2.23273,0.002 -4.46546,0.003 -6.69819,0.003 -2.50851,4.1e-4 -5.01703,3.9e-4 -7.52554,4e-4 -3.07746,0 -6.15491,-2e-5 -9.23237,-2e-5 -3.2271,-10e-6 -6.45421,-10e-6 -9.68132,-10e-6 -3.0044,0 -6.00879,0 -9.01319,0 -2.64795,0 -5.2959,0 -7.943854,0 -1.799074,0 -3.598148,0 -5.397222,0 -1.772725,0 -3.545451,0 -5.318177,0 -1.777584,0 -3.555169,0 -5.332754,0 -1.461969,0 -2.923939,0 -4.385908,0 -1.42523,0 -2.850461,0 -4.275691,0 -1.24127,-0.0955 -2.379298,0.34743 -3.541636,0.70178 -1.181541,0.14822 -1.960024,0.77322 -2.845388,1.47771 -0.866657,1.03324 -1.576734,2.22714 -2.165742,3.44414 -1.002914,1.87037 -1.727187,3.84946 -2.43756,5.84081 -0.441537,1.38535 -1.175977,2.62715 -1.433225,4.06409 -0.238737,1.85827 -0.205237,3.74122 -0.21475,5.61134 -0.0046,3.18929 0.0036,6.37859 0.007,9.56788 0.0036,3.78697 0.0043,7.57393 0.0047,11.3609 3.08e-4,3.97361 2.24e-4,7.94723 1.91e-4,11.92084 -3.2e-5,3.38936 -5.1e-5,6.77871 -6.2e-5,10.16807 -6e-6,2.31615 -6e-6,4.63229 -6e-6,6.94844 0,1.82527 0,3.65051 0,5.47581 0,1.6762 0,3.3524 0,5.0286 0.113661,1.3042 -0.181372,2.6698 0.06263,3.9596 0.152328,1.1767 0.539716,2.296 0.922342,3.4174 0.416535,1.3969 1.034411,2.7432 1.964193,3.8722 0.975326,1.1873 2.308973,1.9641 3.619414,2.7348 1.591959,0.6785 3.156828,1.4002 4.827846,1.8639 1.829445,0.3419 3.697775,0.4057 5.546302,0.633 2.436091,0.1396 4.783155,0.7971 7.16674,1.2551 2.793662,0.4862 5.633052,0.5618 8.460966,0.6269 2.659925,0.046 5.320341,0.04 7.980541,0.036 2.43742,-0 4.87485,-0.01 7.31228,-0.01 2.86649,-10e-4 5.73298,-10e-4 8.59947,-10e-4 2.94598,0 5.89197,0 8.83796,0 3.46549,10e-5 6.93098,10e-5 10.39647,10e-5 3.95459,0 7.90917,0 11.86376,0 3.12632,0 6.25265,0 9.37897,0 2.16277,0 4.32555,0 6.48832,0 1.84093,0 3.68185,0 5.52278,0 1.42165,0.075 2.50974,0.058 3.83993,-0.375 1.22768,-0.5145 2.07623,-1.6188 2.97521,-2.5629 1.21639,-1.3798 2.20771,-2.9222 3.17598,-4.479 0.83048,-1.5764 1.4873,-3.218 1.92473,-4.9446 0.62873,-2.2372 1.23863,-4.4798 1.61491,-6.7749 0.30886,-2.069 0.35017,-4.1639 0.37928,-6.2517 0.0167,-2.15877 0.008,-4.31769 0.003,-6.47654 0.156,-2.04389 0.44969,-4.07178 0.58571,-6.11793 0.1201,-2.16789 0.1171,-4.34022 0.12471,-6.51071 0.004,-2.57453 8.3e-4,-5.14907 -7.1e-4,-7.7236 -0.001,-2.28091 -0.002,-4.56181 -0.002,-6.84271 -1.6e-4,-1.93117 -1.3e-4,-3.86234 -1.2e-4,-5.79351 1e-5,-1.7618 2e-5,-3.52359 2e-5,-5.28538 1e-5,-1.65734 1e-5,-3.31467 1e-5,-4.97201 0,-1.53744 0,-3.07488 0,-4.61232 0,-1.65029 0,-3.30057 0,-4.95086 0.11653,-1.67474 -0.18655,-3.31532 -0.40307,-4.96724 -0.1865,-1.64782 -0.71324,-3.26159 -1.32238,-4.80104 -0.4141,-1.19994 -0.86026,-2.33907 -1.96874,-3.02336 -0.76196,-0.32384 -1.60838,-0.34976 -2.42363,-0.39323 -1.53528,-0.0445 -3.0717,-0.0231 -4.60739,-0.0144 -1.25777,0.008 -2.51555,0.0113 -3.77334,0.0137 -4.54568,0.009 -4.55806,-6.4198 -0.0124,-6.42856 l 0,0 c 1.24979,-0.002 2.49958,-0.006 3.74936,-0.0136 1.67322,-0.009 3.34747,-0.0342 5.02001,0.0253 2.06978,0.12874 4.1104,0.44751 5.86807,1.64079 1.98535,1.542 3.38465,3.45379 4.14446,5.87613 0.76935,2.02363 1.45295,4.12632 1.70016,6.28393 0.25179,1.92663 0.57158,3.84985 0.45744,5.80157 0,1.65029 0,3.30057 0,4.95086 0,1.53744 0,3.07488 0,4.61232 0,1.65734 0,3.31468 -1e-5,4.97202 0,1.7618 -1e-5,3.5236 -2e-5,5.2854 -1e-5,1.93093 -4e-5,3.86186 1.2e-4,5.79279 2.5e-4,2.27985 6.7e-4,4.5597 0.002,6.83954 0.002,2.58336 0.005,5.16672 6.7e-4,7.75007 -0.008,2.30722 -0.007,4.61639 -0.13923,6.92062 -0.12949,1.89688 -0.34944,3.78312 -0.57116,5.67095 0.005,2.19401 0.0141,4.38809 -0.004,6.58201 -0.0346,2.4119 -0.0958,4.8309 -0.46637,7.2191 -0.42076,2.4854 -1.04449,4.9241 -1.73733,7.3468 -0.6276,2.3404 -1.49261,4.5932 -2.68432,6.7096 -1.20025,1.9297 -2.45354,3.8284 -3.98213,5.5199 -1.65278,1.7315 -3.3307,3.4922 -5.6748,4.2514 -1.90421,0.5989 -3.79973,0.8032 -5.79301,0.6788 -1.84093,0 -3.68185,0 -5.52278,0 -2.16277,0 -4.32555,0 -6.48832,0 -3.12632,0 -6.25265,0 -9.37897,0 -3.95459,0 -7.90917,0 -11.86376,0 -3.4655,0 -6.93101,0 -10.39651,0 -2.94595,0 -5.8919,-10e-5 -8.83785,-10e-5 -2.8654,10e-5 -5.73079,0 -8.59619,10e-4 -2.43562,10e-4 -4.87124,0 -7.30685,0.01 -2.71283,0 -5.425876,0.01 -8.13841,-0.038 -3.188985,-0.075 -6.389609,-0.1767 -9.537043,-0.7429 -2.237413,-0.4381 -4.438495,-1.058 -6.726935,-1.1854 -2.176238,-0.2681 -4.385773,-0.305 -6.52199,-0.8309 -2.196529,-0.6366 -4.29651,-1.529 -6.354987,-2.5225 -1.995475,-1.198 -3.976574,-2.4695 -5.422252,-4.3334 -1.306909,-1.748 -2.367983,-3.6558 -2.972436,-5.7664 -0.502681,-1.5335 -1.022686,-3.0725 -1.206018,-4.6841 -0.15528,-1.5715 -0.106898,-3.1456 -0.108253,-4.7241 0,-1.6762 0,-3.3524 0,-5.0286 -10e-7,-1.8253 -10e-7,-3.65052 -10e-7,-5.47579 0,-2.31615 10e-7,-4.63231 7e-6,-6.94846 1.1e-5,-3.38937 2.9e-5,-6.77873 6.2e-5,-10.1681 3.3e-5,-3.97334 1.17e-4,-7.94667 -1.91e-4,-11.92001 -4.61e-4,-3.78491 -0.0012,-7.56983 -0.0047,-11.35474 -0.0035,-3.20266 -0.01167,-6.40532 -0.0069,-9.60798 0.01189,-2.27478 -0.0231,-4.56726 0.335813,-6.82033 0.36057,-1.74717 1.04554,-3.33322 1.687174,-4.98573 0.800002,-2.23299 1.625441,-4.45067 2.741271,-6.55222 1.034927,-2.02829 2.210152,-4.05477 3.91318,-5.59964 1.492887,-1.18754 3.062605,-2.23525 4.975634,-2.59696 1.76573,-0.5366 3.539818,-1.08227 5.413715,-0.9804 1.42523,0 2.850461,0 4.275691,0 1.461969,0 2.923939,0 4.385908,0 1.777585,0 3.55517,0 5.332754,0 1.772726,0 3.545452,0 5.318177,0 1.799074,0 3.598148,0 5.397222,0 2.647948,0 5.295908,0 7.943858,0 3.0044,0 6.0088,0 9.01319,0 3.22711,0 6.45423,0 9.68134,0 3.07744,10e-6 6.15488,2e-5 9.23233,3e-5 2.50802,-1e-5 5.01605,10e-6 7.52408,-4e-4 2.23175,-5.2e-4 4.4635,-10e-4 6.69525,-0.003 2.11566,-10e-4 4.23137,-0.005 6.34698,0.0129 2.12495,0.028 4.25257,0.0695 6.36895,0.27849 0.83981,0.0946 1.6785,0.19142 2.51338,0.32392 0.11145,0.0177 0.39987,-0.032 0.33334,0.0591 -0.23735,0.32516 -0.94537,0.048 -1.04494,0.60553 -0.42862,0.69161 -0.54255,0.63193 -0.57011,1.30827 -0.003,0.0817 0.0539,-0.15661 0.0588,-0.23826 0.0473,-0.78999 -0.0359,-1.5878 0.002,-2.37828 -0.003,-2.10966 -0.0107,-4.21969 -0.0779,-6.32848 -0.0862,-2.07193 -0.26268,-4.1347 -0.57658,-6.18591 -0.24,-2.17117 -0.25678,-4.36178 -0.55502,-6.52872 -0.26589,-2.26017 -0.31532,-4.52699 -0.51045,-6.79329 -0.29562,-2.89501 -0.67175,-5.78118 -1.01282,-8.67065 -0.46786,-2.87031 -1.08962,-5.71659 -1.39552,-8.61207 -0.30175,-2.23737 -0.45953,-4.49143 -0.86267,-6.71372 -0.32711,-1.83294 -0.53667,-3.68922 -1.12794,-5.467 -0.38977,-1.52423 -0.99826,-2.93509 -1.75485,-4.31492 -1.01082,-1.66207 -2.22928,-3.17971 -3.46217,-4.68098 -1.11611,-1.18739 -2.3055,-2.26204 -3.66037,-3.17844 -2.00971,-1.24967 -4.0466,-2.45199 -6.06832,-3.68321 -2.7987,-1.6432 -5.49011,-3.4679 -8.37855,-4.95525 -1.95064,-0.97104 -3.93179,-1.70301 -6.14048,-1.72277 -3.02238,-0.006 -6.04489,-0.0149 -9.06713,0.0205 -3.00116,0.053 -6.02071,0.0966 -8.98498,0.61885 -2.57001,0.51926 -5.09526,1.22966 -7.60485,1.98569 -2.02518,0.60262 -3.911144,1.50407 -5.558237,2.85001 -1.900744,1.64096 -3.661575,3.42689 -5.057498,5.52723 -1.945547,2.65292 -3.444149,5.59725 -4.96222,8.50823 -1.289048,2.50244 -2.331795,5.12101 -3.429024,7.71157 -0.563259,1.50425 -1.054958,3.03593 -1.575099,4.55424 -0.338667,1.69424 -0.814131,3.3558 -1.02099,5.07541 -0.353869,1.88908 -0.581456,3.79341 -0.732484,5.71016 0.001,2.37306 0.003,4.74612 0.004,7.11918 -7.12e-4,2.73984 -0.0021,5.47987 -0.05206,8.21935 -0.07967,3.57266 -0.229439,7.14317 -0.46943,10.70891 -0.201618,3.42373 -0.242335,6.84503 -0.197858,10.27469 0,4.54569 -6.428571,4.54569 -6.428571,0 z"
       inkscape:connector-curvature="0" />
    <path
       style="fill:#000000;fill-opacity:1;stroke:none"
       id="path3065"
       d="m 108.92857,982.39294 c 0,-2.35017 0,-4.70034 0,-7.0505 -0.0435,-2.12677 -0.061,-4.21715 0.36582,-6.30637 0.45084,-2.0093 1.40629,-3.85373 2.27776,-5.70603 0.62337,-1.52057 1.5299,-2.90733 2.43123,-4.27491 0.93004,-1.77201 2.39487,-2.87447 4.21066,-3.62377 2.30396,-0.59112 4.55843,0.15878 6.73838,0.87863 2.25875,0.78167 4.13233,2.17067 5.68047,3.96293 1.30917,1.69643 1.60996,3.7784 2.00936,5.81465 0.34328,1.73386 0.47194,3.49668 0.54113,5.25945 0.0438,1.48838 0.0386,2.97761 0.0371,4.46646 0.16599,1.08153 -0.32689,2.38409 0.16098,3.39951 0.03,0.0125 0.0599,0.025 0.0899,0.0376 0.01,-0.03 6e-5,-0.10042 0.03,-0.0901 0.23848,0.0818 0.40225,0.30593 0.61933,0.43414 0.42814,0.25286 0.51332,0.26955 0.97375,0.46171 1.5617,0.40526 3.18082,0.61875 4.7765,0.88036 1.98557,0.14749 3.74369,0.94562 5.3902,2.00891 1.68381,1.20178 2.59398,2.97243 3.18844,4.89928 0.52186,1.97671 0.53215,3.93652 0.11083,5.9239 -0.75944,2.0977 -2.0034,3.97176 -3.02789,5.9455 -1.35955,2.08091 -2.79648,4.10461 -4.30636,6.07791 -1.33018,1.7909 -3.08698,2.8988 -5.14059,3.6779 -1.73979,0.6104 -3.47757,1.177 -5.29223,1.5179 -1.65607,0.2712 -3.33665,0.2968 -5.01043,0.3121 -1.65108,0.01 -3.30217,-0 -4.95324,-0 -1.74289,0.017 -3.32405,-0.7172 -4.98447,-1.1117 -1.68884,-0.434 -3.28732,-1.0939 -4.83287,-1.8909 -1.27885,-0.5255 -2.40006,-1.3415 -3.5632,-2.0714 -1.66702,-1.0927 -2.90001,-2.5794 -3.93974,-4.255 -1.03973,-1.7024 -1.44039,-3.62309 -1.6406,-5.57887 -0.11703,-1.6661 -0.15578,-3.3364 0.0109,-4.99823 0.38985,-2.12785 1.36687,-3.90018 2.83194,-5.46618 0.9704,-1.01083 2.03962,-1.91443 3.20817,-2.6843 3.85277,-2.41235 7.26434,3.0363 3.41157,5.44864 l 0,0 c -0.75496,0.37532 -1.30995,1.09095 -1.93545,1.63839 -0.12928,0.13667 -0.23572,0.29935 -0.38785,0.41002 -0.0313,0.0228 0.005,-0.14648 -0.0178,-0.11493 -0.33909,0.47487 -0.49278,1.02517 -0.72936,1.54693 -0.2293,1.16917 0.0232,2.41328 0.006,3.5955 0.0879,0.978 0.2085,1.95826 0.71129,2.82396 0.52388,0.8526 1.05881,1.63707 1.9151,2.20607 0.9971,0.6374 1.95906,1.3439 3.06551,1.7859 1.09587,0.5652 2.21431,1.0526 3.41597,1.3604 1.17174,0.2927 2.27761,0.7629 3.46789,0.9272 1.6277,0 3.2554,0.011 4.88309,0 1.30535,-0.011 2.61647,-0.019 3.91098,-0.2075 1.44387,-0.2528 2.80651,-0.7503 4.19315,-1.2141 0.94899,-0.349 1.68302,-0.6784 2.29184,-1.566 1.28683,-1.6799 2.49032,-3.41159 3.71017,-5.14154 0.79004,-1.51031 1.61329,-3.00532 2.47739,-4.47426 0.29558,-0.85567 0.10836,-1.75336 -0.0332,-2.63031 -0.11176,-0.46716 -0.3617,-1.06811 -0.50496,-1.29373 -0.92727,-0.6001 -1.77658,-1.05344 -2.9428,-1.06423 -2.14386,-0.35311 -4.34047,-0.60019 -6.38204,-1.36599 -2.28967,-1.07236 -4.33615,-2.46816 -5.24855,-4.94341 -0.42695,-1.7103 -0.47377,-3.40654 -0.40594,-5.16373 0.001,-1.40415 0.007,-2.80863 -0.0323,-4.21237 -0.0539,-1.431 -0.14866,-2.86293 -0.42595,-4.27092 -0.19413,-0.99195 -0.30772,-2.02605 -0.66882,-2.97094 -0.64494,-0.93795 -1.69967,-1.50956 -2.72919,-1.93871 -0.44379,-0.14673 -0.87944,-0.31984 -1.32985,-0.44478 -0.43646,-0.12107 -0.90663,-0.1314 -1.32315,-0.30938 -0.085,-0.0363 0.28516,-0.29514 0.18408,-0.20753 -0.68833,0.0677 -0.72826,0.64474 -1.13748,1.20308 -0.76329,1.06368 -1.43216,2.21828 -1.945,3.4217 -0.67437,1.41844 -1.42613,2.83147 -1.81525,4.35759 -0.42871,1.5958 -0.12334,3.27462 -0.21183,4.90775 0,2.35016 0,4.70033 0,7.0505 0,4.54568 -6.42857,4.54568 -6.42857,0 z"
       inkscape:connector-curvature="0" />
    <path
       style="fill:#000000;fill-opacity:1;stroke:none"
       id="path3071"
       d="m 55.830485,88.214286 c -2.09457,-0.01972 -4.190044,0.07007 -6.278936,-0.09897 -1.885756,-0.210883 -3.713418,-0.777588 -5.459864,-1.502398 -0.887077,-0.378807 -1.846323,-0.447297 -2.796685,-0.505544 -4.536084,-0.295307 -4.118458,-6.710299 0.417626,-6.414992 l 0,0 c 1.655246,0.112215 3.308456,0.32356 4.84764,0.984827 1.147787,0.478537 2.340841,0.882159 3.58038,1.036584 1.883337,0.213664 3.798366,-0.009 5.689839,0.07192 4.545687,0 4.545687,6.428572 0,6.428572 z"
       inkscape:connector-curvature="0"
       transform="translate(0,802.36218)" />
    <path
       style="fill:#000000;fill-opacity:1;stroke:none"
       id="path3073"
       d="m 64.89948,57.878457 c -2.019781,-0.85209 -3.866163,-2.083878 -5.665689,-3.326097 -1.563828,-1.225252 -3.169025,-2.39737 -4.708966,-3.653427 -0.867887,-0.636316 -0.407466,-0.281473 -1.372249,-1.076125 -3.493863,-2.907953 0.618603,-7.849021 4.112466,-4.941068 l 0,0 c 0.754636,0.638432 0.317188,0.285395 1.327895,1.039544 1.406252,1.152006 2.881927,2.214567 4.302985,3.34758 1.298971,0.905011 2.639543,1.766498 4.036451,2.510915 4.312416,1.437472 2.279524,7.53615 -2.032893,6.098678 z"
       inkscape:connector-curvature="0"
       transform="translate(0,802.36218)" />
    <path
       style="fill:#000000;fill-opacity:1;stroke:none"
       id="path3079"
       d="m 88.875436,28.427911 c -0.18066,-2.234886 -0.717594,-4.382223 -1.44879,-6.491027 -0.507453,-1.066644 -0.527804,-2.428288 -1.23448,-3.404041 -2.187306,-3.984841 3.448111,-7.078159 5.635417,-3.093318 l 0,0 c 0.724107,1.404447 1.231912,2.88073 1.67469,4.396578 0.860963,2.49605 1.503426,5.043455 1.737124,7.682671 0.642857,4.5 -5.721104,5.409137 -6.363961,0.909137 z"
       inkscape:connector-curvature="0"
       transform="translate(0,802.36218)" />
    <path
       style="fill:#000000;fill-opacity:1;stroke:none"
       id="path3081"
       d="m 139.97869,26.328051 c 0.53594,-1.8825 0.91826,-3.80121 1.47977,-5.677451 0.73872,-1.800648 1.63328,-3.519744 2.38581,-5.31594 0.0824,-0.215215 0.16478,-0.430429 0.24716,-0.645644 1.63403,-4.241842 7.6329,-1.930979 5.99888,2.310863 l 0,0 c -0.10639,0.274825 -0.21277,0.54965 -0.31915,0.824475 -0.67104,1.592394 -1.39741,3.148255 -2.16183,4.695301 -0.59749,1.924781 -0.92464,3.918991 -1.53197,5.841289 -1.43747,4.312417 -7.53615,2.279524 -6.09867,-2.032893 z"
       inkscape:connector-curvature="0"
       transform="translate(0,802.36218)" />
    <path
       style="fill:#000000;fill-opacity:1;stroke:none"
       id="path3087"
       d="m 176.33252,53.85366 c 2.89574,-0.764458 5.70526,-1.774651 8.44559,-2.980585 2.59333,-1.112503 5.09639,-2.42223 7.67403,-3.566821 1.26662,-0.67305 2.61682,-1.105547 3.99963,-1.46063 4.41163,-1.095817 5.96135,5.143166 1.54972,6.238982 l 0,0 c -1.03443,0.242014 -2.01287,0.595253 -2.95274,1.102476 -2.58831,1.134632 -5.08912,2.468209 -7.6917,3.57459 -3.07409,1.340758 -6.22028,2.475317 -9.46537,3.328618 -4.40997,1.102491 -5.96912,-5.134139 -1.55916,-6.23663 z"
       inkscape:connector-curvature="0"
       transform="translate(0,802.36218)" />
    <path
       style="fill:#000000;fill-opacity:1;stroke:none"
       id="path3089"
       d="m 183.71495,84.589721 c 2.60763,-0.354343 5.24055,-0.478383 7.86819,-0.578483 2.01659,-0.06878 4.03441,-0.08296 6.05199,-0.0874 1.61123,-7.23e-4 3.22245,0.0019 4.83368,0.0032 1.51301,0.0011 3.02602,0.0014 4.53903,0.0015 0.59588,-0.0141 1.18544,0.04762 1.77329,-0.06271 4.51363,-0.538902 5.27576,5.844334 0.76213,6.383236 l 0,0 c -0.8481,0.0836 -1.68311,0.149191 -2.53603,0.108049 -1.51452,-1.44e-4 -3.02905,-3.87e-4 -4.54357,-0.0015 -1.60482,-0.0013 -3.20965,-0.0039 -4.81447,-0.0032 -1.94111,0.0042 -3.88244,0.01728 -5.82262,0.08281 -2.40494,0.09062 -4.81525,0.199623 -7.20249,0.518483 -4.5,0.642857 -5.40913,-5.721104 -0.90913,-6.363961 z"
       inkscape:connector-curvature="0"
       transform="translate(0,802.36218)" />
    <path
       style="fill:#000000;fill-opacity:1;stroke:none"
       id="path3091"
       d="m 145.23852,10.907025 c 0.0978,-0.221733 0.19557,-0.443467 0.29336,-0.6652 1.85203,-4.151294 7.72285,-1.5321234 5.87082,2.61917 l 0,0 c -0.1381,0.306992 -0.27619,0.613983 -0.41429,0.920975 -2.03289,4.065785 -7.78278,1.190841 -5.74989,-2.874945 z"
       inkscape:connector-curvature="0"
       transform="translate(0,802.36218)" />
    <path
       style="fill:#000000;fill-opacity:1;stroke:none"
       id="path3093"
       d="m 38.818309,208.22507 c -0.517426,2.63477 -0.873004,5.29497 -1.122565,7.96731 -0.153356,1.70787 -0.190177,3.42243 -0.203562,5.13609 0.05683,0.39615 0.22982,0.74577 0.359812,1.12591 1.443626,4.31036 -4.652145,6.35196 -6.09577,2.0416 l 0,0 c -0.345794,-1.04689 -0.695867,-2.10014 -0.69241,-3.21857 0.0153,-1.89719 0.05996,-3.79525 0.231496,-5.68584 0.25812,-2.73695 0.601659,-5.46705 1.14407,-8.16387 0.563823,-4.51058 6.942752,-3.71322 6.378929,0.79737 z"
       inkscape:connector-curvature="0"
       transform="translate(0,802.36218)" />
    <path
       style="fill:#000000;fill-opacity:1;stroke:none"
       id="path3095"
       d="m 50.357143,204.3404 c -0.07073,3.52607 0.612187,7.01407 1.29585,10.45747 0.559829,2.27262 0.252344,1.18419 0.90832,3.26928 1.347641,4.34133 -4.791924,6.24718 -6.139565,1.90585 l 0,0 c -0.785264,-2.5572 -0.424361,-1.2481 -1.07545,-3.92928 -0.758118,-3.85527 -1.498113,-7.75715 -1.417727,-11.70332 0,-4.54569 6.428572,-4.54569 6.428572,0 z"
       inkscape:connector-curvature="0"
       transform="translate(0,802.36218)" />
    <path
       style="fill:#000000;fill-opacity:1;stroke:none"
       id="path3097"
       d="m 211.86063,133.47538 c 1.4402,4.08886 2.61421,8.25944 3.55744,12.48876 0.48712,2.30551 0.7614,4.64488 1.02541,6.98342 0.50722,4.5173 -5.88121,5.23461 -6.38843,0.71731 l 0,0 c -0.23566,-2.11145 -0.47868,-4.22392 -0.91253,-6.30643 -0.9243,-4.1775 -2.1305,-8.27648 -3.51852,-12.32391 -1.1025,-4.40996 5.13413,-5.96912 6.23663,-1.55915 z"
       inkscape:connector-curvature="0"
       transform="translate(0,802.36218)" />
    <path
       style="fill:#000000;fill-opacity:1;stroke:none"
       id="path3099"
       d="m 225.18563,133.01553 c 1.99755,3.25109 3.47473,6.78216 4.62016,10.41204 0.7492,2.63313 1.04124,5.35237 1.21707,8.07385 0.2884,4.53652 -6.12722,4.94437 -6.41562,0.40785 l 0,0 c -0.13772,-2.20849 -0.35433,-4.4171 -0.93622,-6.56049 -0.92797,-2.99061 -2.1493,-5.88027 -3.71653,-8.59671 -2.64213,-3.69898 2.58902,-7.43551 5.23114,-3.73654 z"
       inkscape:connector-curvature="0"
       transform="translate(0,802.36218)" />
  </g>
</svg>
