<?xml version="1.0" encoding="UTF-8" standalone="no"?>
<!-- Created with Inkscape (http://www.inkscape.org/) -->

<svg
   xmlns:dc="http://purl.org/dc/elements/1.1/"
   xmlns:cc="http://creativecommons.org/ns#"
   xmlns:rdf="http://www.w3.org/1999/02/22-rdf-syntax-ns#"
   xmlns:svg="http://www.w3.org/2000/svg"
   xmlns="http://www.w3.org/2000/svg"
   xmlns:sodipodi="http://sodipodi.sourceforge.net/DTD/sodipodi-0.dtd"
   xmlns:inkscape="http://www.inkscape.org/namespaces/inkscape"
   width="250"
   height="250"
   id="svg2"
   version="1.1"
   inkscape:version="0.48.5 r10040"
   sodipodi:docname="money.svg">
  <defs
     id="defs4" />
  <sodipodi:namedview
     id="base"
     pagecolor="#ffffff"
     bordercolor="#666666"
     borderopacity="1.0"
     inkscape:pageopacity="0.0"
     inkscape:pageshadow="2"
     inkscape:zoom="1.4"
     inkscape:cx="192.31256"
     inkscape:cy="123.11395"
     inkscape:document-units="px"
     inkscape:current-layer="layer1"
     showgrid="false"
     inkscape:window-width="1366"
     inkscape:window-height="745"
     inkscape:window-x="-8"
     inkscape:window-y="-8"
     inkscape:window-maximized="1" />
  <metadata
     id="metadata7">
    <rdf:RDF>
      <cc:Work
         rdf:about="">
        <dc:format>image/svg+xml</dc:format>
        <dc:type
           rdf:resource="http://purl.org/dc/dcmitype/StillImage" />
        <dc:title></dc:title>
      </cc:Work>
    </rdf:RDF>
  </metadata>
  <g
     inkscape:label="Layer 1"
     inkscape:groupmode="layer"
     id="layer1"
     transform="translate(0,-802.36218)">
    <path
       style="fill:#000000;fill-opacity:1;stroke:none"
       id="path3203"
       d="m 14.994556,134.13354 c 1.869751,2.07964 3.863335,4.02125 5.590156,6.22771 1.849656,2.21042 3.55546,4.52575 5.139141,6.93195 1.579184,2.11623 3.133198,4.2496 4.707928,6.37025 1.828406,2.43238 3.871851,4.68771 5.775374,7.05962 1.677742,2.24284 3.292202,4.54111 4.900244,6.83735 1.342438,1.87039 2.528812,3.84686 3.699711,5.82721 1.086137,2.03037 2.309166,3.9803 3.444825,5.98195 0.92668,1.50161 1.851711,2.99303 2.867651,4.43354 1.122571,1.51361 2.098267,3.12814 3.17616,4.67289 1.121684,1.51292 2.350493,2.93969 3.464403,4.45798 1.151294,1.90671 2.486457,3.68919 3.763208,5.51138 1.150083,1.66877 2.368715,3.27265 3.776989,4.73227 1.760948,1.80717 3.301653,3.80527 4.91866,5.73753 1.110709,1.3822 2.017529,2.89806 3.199005,4.22199 0.654919,0.75856 1.350005,1.4758 2.034025,2.2069 0.730322,0.78058 0.337903,0.55782 0.774335,0.78113 -1.43443,-1.43981 -3.025154,0.34212 -1.960941,-1.13532 1.382899,-2.08653 2.759674,-4.17727 4.20973,-6.21838 1.862875,-2.76734 4.151156,-5.20727 6.37807,-7.67823 2.267412,-2.28182 4.487314,-4.61116 6.778106,-6.86957 1.462764,-1.62571 3.068595,-3.11113 4.586242,-4.68265 1.55084,-1.49718 3.201195,-2.88339 4.834392,-4.28834 2.24483,-1.79095 4.18047,-3.90406 6.20779,-5.92413 2.18441,-2.01649 4.69979,-3.65109 7.41659,-4.84303 3.03197,-1.18074 6.18907,-1.96505 9.2421,-3.0842 4.61446,-1.52469 9.14305,-3.27733 13.67561,-5.02653 4.79756,-2.00618 9.67422,-3.80371 14.54183,-5.62895 3.42642,-1.22996 6.91162,-2.28038 10.37468,-3.40037 3.0072,-0.98155 5.91318,-2.17146 8.74614,-3.57248 2.90708,-1.52126 5.81372,-3.04458 8.74291,-4.52422 2.24607,-1.06201 4.25554,-2.50941 6.28642,-3.92111 1.73681,-1.43652 3.48914,-2.85187 5.25111,-4.25798 1.67838,-1.48708 3.21955,-3.12021 4.78523,-4.72329 1.60662,-1.585 3.16512,-3.20572 4.54878,-4.99043 1.47423,-1.61692 2.72484,-3.40585 4.01135,-5.16877 1.22654,-1.52294 2.31334,-3.16054 3.14451,-4.93199 0.9307,-1.75149 1.71907,-3.5594 2.345,-5.44141 0.55714,-1.9535 1.34082,-3.81464 2.17744,-5.66058 0.38641,-1.14888 0.7426,-2.31247 1.07565,-3.48029 0.37965,-1.65899 1.11468,-3.22643 1.83023,-4.76461 0.65811,-1.52005 1.19799,-3.099875 1.64578,-4.695174 0.21777,-0.694241 0.10367,-1.265313 -0.24715,-1.87091 -0.48137,-1.020788 -1.25787,-1.899264 -1.97687,-2.768826 -1.42286,-1.996021 -3.12075,-3.73962 -4.88343,-5.430738 -1.65832,-1.55829 -3.30693,-3.126637 -4.93696,-4.714499 -1.17915,-1.017453 -2.33152,-2.061958 -3.49831,-3.092813 -0.91521,-0.865325 -1.74949,-1.812814 -2.67472,-2.666901 -0.97796,-1.013857 -2.02675,-1.951696 -2.98825,-2.982917 -1.05085,-0.956988 -1.95055,-2.036714 -2.76865,-3.197225 -1.27369,-1.565698 -2.34511,-3.31467 -3.34605,-5.068597 -1.3722,-2.094125 -2.57112,-4.291865 -3.82847,-6.454567 -1.00649,-1.922094 -2.11278,-3.800699 -2.85071,-5.846522 -0.64113,-1.521052 -1.34586,-3.007959 -2.0309,-4.50853 -0.87481,-1.84264 -1.623,-3.740302 -2.4722,-5.594208 -0.7294,-1.662079 -1.46599,-3.324237 -2.28621,-4.944021 -0.74337,-1.243627 -1.09402,-2.713325 -1.90469,-3.911548 -0.60589,-0.905243 -1.18111,-1.904287 -1.99508,-2.644108 -0.39387,-0.436169 -0.81438,-0.868846 -1.28708,-1.223283 -0.0376,-0.02822 -0.17019,-0.07812 -0.1314,-0.05151 0.66779,0.458188 0.4745,0.306988 1.42465,0.429245 1.55257,-0.527874 1.27645,-0.578229 0.77406,0.91405 -0.44858,1.622153 -1.23478,3.115927 -1.71568,4.726469 -0.55142,1.590826 -1.0102,3.206703 -1.6356,4.771296 -0.87721,2.04885 -2.09242,3.926808 -3.45707,5.680465 -1.10577,1.465717 -2.42165,2.741382 -3.77142,3.977414 -1.77084,1.628522 -3.74895,3.028567 -5.72194,4.40122 -1.93413,1.119209 -3.80736,2.351265 -5.75818,3.441658 -1.62029,0.875177 -3.12703,1.939635 -4.75965,2.794075 -1.21242,0.686677 -2.33983,1.516422 -3.53292,2.245068 -1.89848,1.223676 -3.87853,2.320524 -5.88831,3.349737 -2.21023,1.318471 -4.7132,1.967364 -7.1512,2.717735 -2.17786,0.808586 -4.42834,1.374461 -6.66767,1.977924 -1.65772,0.339592 -3.29467,0.704981 -4.89324,1.259817 -1.63383,0.506473 -3.29563,0.912599 -4.94699,1.360001 -2.28732,0.829363 -4.67838,1.289833 -7.06491,1.726149 -2.64083,0.784512 -5.32053,1.413738 -8.004328,2.030347 -2.237679,0.455157 -4.457012,0.993754 -6.684234,1.496001 -2.264087,0.569821 -4.61291,0.520145 -6.907999,0.839222 -2.294408,0.28856 -4.579908,0.658662 -6.853273,1.082972 -2.170751,0.560975 -4.361394,1.032441 -6.522803,1.626933 -1.56344,0.618823 -3.188572,1.049352 -4.809773,1.484816 -1.684407,0.449038 -3.256313,1.168585 -4.837981,1.886154 -1.862445,0.825379 -3.624074,1.841487 -5.387044,2.854699 -1.633458,1.075408 -3.417004,1.888588 -5.101845,2.872415 -1.743381,0.870116 -3.319798,2.004457 -4.984528,3.003845 -1.618854,1.117603 -3.127518,2.37014 -4.590905,3.681488 -2.047994,1.821447 -3.890409,3.848997 -5.827557,5.783217 -1.518447,1.49801 -2.92711,3.09819 -4.463934,4.57849 -1.640977,1.5998 -3.351371,3.12501 -5.015207,4.69954 -1.4084,1.17045 -2.669907,2.4972 -3.694149,4.01585 -0.667496,1.3598 -1.685617,2.4958 -2.334539,3.86431 -0.835686,1.42679 -1.39635,2.91977 -1.719567,4.53416 -0.266021,1.54452 -0.272602,3.11671 -0.288942,4.67921 -8.78e-4,0.26548 -0.0018,0.53096 -0.0026,0.79644 -0.01551,4.54566 -6.444042,4.52372 -6.428534,-0.0219 l 0,0 c 9.88e-4,-0.28113 0.002,-0.56227 0.003,-0.8434 0.02169,-1.97969 0.05303,-3.96997 0.423756,-5.92172 0.457495,-2.13996 1.158782,-4.17879 2.255542,-6.0826 0.827544,-1.62654 1.919225,-3.06772 2.804417,-4.66075 1.308815,-1.86445 2.806576,-3.58214 4.569796,-5.03522 1.653458,-1.55635 3.341776,-3.07514 4.971377,-4.65779 1.510624,-1.44959 2.880851,-3.03178 4.378292,-4.49459 2.020446,-2.015777 3.942229,-4.129491 6.082025,-6.023728 1.773868,-1.585435 3.607352,-3.101039 5.59351,-4.417266 1.698915,-0.994558 3.285792,-2.175069 5.059234,-3.047565 1.698195,-0.969361 3.465746,-1.815187 5.11115,-2.877766 1.941305,-1.112742 3.883428,-2.225189 5.93238,-3.134056 1.901054,-0.861699 3.808052,-1.694767 5.828728,-2.240855 1.609675,-0.430316 3.211695,-0.876237 4.769434,-1.473864 2.337662,-0.642714 4.705583,-1.160932 7.057495,-1.749691 2.390099,-0.439129 4.790126,-0.836748 7.201635,-1.137607 2.104711,-0.257639 4.23929,-0.274842 6.318662,-0.735205 2.218955,-0.49775 4.428685,-1.038223 6.657812,-1.489999 2.780679,-0.636684 5.546596,-1.31755 8.293046,-2.089641 2.2143,-0.398851 4.4229,-0.836088 6.54289,-1.60873 1.50672,-0.403236 3.02134,-0.777028 4.5137,-1.22685 1.74193,-0.602156 3.51909,-1.043119 5.32812,-1.393392 2.16638,-0.580791 4.3405,-1.131148 6.4464,-1.914171 2.08226,-0.640277 4.23389,-1.155622 6.11464,-2.297014 1.86747,-0.953337 3.70466,-1.974333 5.46583,-3.113225 1.3288,-0.810583 2.57558,-1.749961 3.95135,-2.479508 1.59546,-0.783853 3.00004,-1.913583 4.59293,-2.705565 1.77327,-0.949734 3.42808,-2.125213 5.19344,-3.091949 1.73939,-1.200263 3.48142,-2.433125 5.04293,-3.859107 1.0988,-1.005997 2.18504,-2.025982 3.07441,-3.228883 1.02302,-1.249111 1.86935,-2.647508 2.54229,-4.114079 0.57984,-1.376592 0.92322,-2.832116 1.44301,-4.23097 0.51979,-1.664486 1.26738,-3.233158 1.77205,-4.901207 0.79549,-2.334861 1.61872,-4.308189 4.16234,-5.177628 0.58877,-0.01258 1.18456,-0.129175 1.76632,-0.03773 1.63617,0.257196 2.86509,1.557385 3.94964,2.68558 1.09646,1.148591 2.06137,2.421775 2.88905,3.77791 0.84716,1.413318 1.43306,2.946996 2.18508,4.41224 0.84765,1.69533 1.63399,3.421778 2.3897,5.159785 0.85,1.864132 1.60421,3.769065 2.48395,5.62009 0.74734,1.681167 1.56001,3.331339 2.24378,5.042315 0.53664,1.675657 1.59733,3.14316 2.33752,4.729161 1.26811,2.184002 2.4854,4.39785 3.8638,6.516144 0.88585,1.581155 1.85568,3.143785 3.01048,4.538228 0.65937,0.940173 1.39661,1.783669 2.25311,2.555788 0.8309,0.945335 1.82084,1.728469 2.66856,2.657508 0.86109,0.828322 1.68464,1.69301 2.53119,2.534892 1.22812,1.102829 2.46825,2.189583 3.70467,3.285203 1.61878,1.577106 3.25678,3.134012 4.90339,4.682035 1.94392,1.867703 3.82122,3.796966 5.40148,5.990903 1.06631,1.307594 2.1695,2.641487 2.86127,4.190949 0.86069,2.025102 1.22835,4.128428 0.57451,6.288766 -0.55333,1.91872 -1.18976,3.82502 -2.00207,5.65001 -0.58205,1.2435 -1.20096,2.49524 -1.48392,3.84443 -0.43006,1.45703 -0.84336,2.92189 -1.3932,4.33792 -0.74994,1.65253 -1.45743,3.31216 -1.94303,5.06705 -0.72923,2.12669 -1.58968,4.19633 -2.6482,6.18171 -1.03636,2.09895 -2.25251,4.10593 -3.73878,5.92138 -1.32816,1.81714 -2.61674,3.6651 -4.1357,5.33343 -1.54051,1.9625 -3.2331,3.78209 -5.01694,5.52611 -1.75147,1.79329 -3.47503,3.62235 -5.37747,5.25871 -1.87377,1.49132 -3.7218,3.01106 -5.58904,4.50966 -2.2766,1.58201 -4.54407,3.18328 -7.0569,4.38039 -2.94642,1.48816 -5.86989,3.02056 -8.79446,4.54998 -3.11443,1.53641 -6.31137,2.84619 -9.61492,3.92529 -3.3695,1.08953 -6.76,2.11232 -10.09578,3.30304 -4.8485,1.81778 -9.70555,3.60883 -14.48424,5.60704 -4.57015,1.7637 -9.13675,3.53041 -13.78897,5.06907 -2.961,1.07362 -6.00217,1.8749 -8.95457,2.97152 -1.99159,0.76295 -3.75274,2.11148 -5.37252,3.47429 -2.14222,2.12494 -4.18496,4.35238 -6.55094,6.24139 -1.48896,1.27776 -2.9871,2.5443 -4.41349,3.89244 -1.559908,1.59781 -3.183601,3.13161 -4.687585,4.78463 -2.203651,2.16431 -4.325042,4.411 -6.512338,6.5919 -2.06221,2.28727 -4.193187,4.53698 -5.915198,7.10117 -1.468553,2.05996 -2.846029,4.18129 -4.255311,6.28162 -1.886036,2.56063 -4.144282,4.31133 -7.369499,2.26443 -1.2536,-1.12585 -2.359068,-2.39485 -3.484557,-3.64752 -1.211777,-1.3778 -2.21982,-2.88935 -3.315471,-4.35735 -1.528403,-1.82785 -2.981717,-3.72006 -4.644921,-5.43078 -1.609371,-1.70772 -3.063969,-3.53469 -4.384807,-5.47496 -1.253611,-1.78939 -2.574372,-3.53552 -3.693918,-5.41441 -1.129218,-1.56449 -2.42319,-3.00218 -3.546068,-4.57268 -1.066187,-1.53667 -2.041642,-3.13482 -3.152953,-4.63975 -1.138215,-1.61514 -2.178404,-3.28644 -3.209129,-4.97292 -1.110494,-1.97084 -2.323339,-3.88232 -3.386364,-5.88074 -1.082272,-1.84015 -2.186353,-3.67271 -3.430706,-5.40899 -1.525091,-2.18412 -3.061455,-4.36687 -4.649153,-6.50212 -1.948563,-2.43692 -4.054674,-4.74402 -5.920495,-7.24778 -1.645917,-2.21876 -3.276966,-4.44517 -4.916062,-6.66791 -1.490842,-2.26638 -3.102609,-4.44179 -4.84606,-6.52241 -1.688481,-2.19607 -3.741346,-4.04694 -5.5328098,-6.15496 -2.8396678,-3.54959 2.1802028,-7.56548 5.0198708,-4.0159 z"
       inkscape:connector-curvature="0"
       transform="translate(0,802.36218)" />
    <path
       style="fill:#000000;fill-opacity:1;stroke:none"
       id="path3205"
       d="m 115.28495,91.832923 c -2.47791,0.615818 -4.97168,1.180217 -7.39649,1.986461 -1.68162,0.546483 -3.31843,1.236943 -4.89748,2.03191 -1.57859,1.012279 -3.062605,2.166223 -4.629391,3.203694 -2.1285,1.544982 -4.378398,2.890322 -6.481953,4.471022 -1.67316,1.09139 -3.199858,2.29943 -4.348461,3.93364 -0.700322,1.11443 -1.174127,2.33284 -1.63628,3.55911 -0.341197,1.52291 -0.611201,3.06503 -0.880777,4.60358 -0.1966,1.80464 -0.576423,3.58012 -0.816576,5.37884 -0.191824,1.52565 -0.23972,3.06326 -0.26566,4.59903 -0.01566,1.42485 -0.01007,2.84983 -0.0077,4.27474 0.0026,1.42738 0.0035,2.85476 0.0041,4.28214 -0.108147,1.44635 0.110207,2.85149 0.296803,4.2785 0.336843,1.45463 0.658028,2.95939 1.262184,4.33169 0.332269,1.26528 1.242308,2.15108 2.020594,3.15348 0.806544,0.9471 1.821954,1.67278 2.747139,2.49588 0.783984,0.53865 1.482874,1.26889 2.355631,1.66494 1.231528,0.75676 2.38042,1.62702 3.577755,2.43655 1.6131,0.93574 3.206762,1.87328 4.990791,2.44156 1.2699,0.57711 2.6091,0.87316 3.98729,1.01994 1.67625,0.12467 3.35974,0.10371 5.03951,0.10464 2.21486,-0.003 4.42972,-0.008 6.64458,-0.0103 2.24085,-0.002 4.4817,-0.002 6.72255,-0.003 1.66948,-0.23946 3.38888,-0.26976 5.04028,-0.61607 1.26339,-0.29061 2.55143,-0.46049 3.76106,-0.9432 1.45348,-0.42601 2.81423,-1.12316 4.04625,-1.99971 1.16441,-0.98764 2.34001,-1.96464 3.41953,-3.0463 1.72317,-1.55515 3.10321,-3.40458 4.50743,-5.24001 1.4828,-1.88894 2.61733,-3.98298 3.50629,-6.2067 0.90152,-2.07396 1.61034,-4.21661 2.28666,-6.37104 0.55368,-1.78659 0.75928,-3.63827 0.86808,-5.4965 0.0866,-1.97795 0.0774,-3.9585 0.0753,-5.93787 -0.005,-1.99855 -0.008,-3.9971 -0.0107,-5.99565 -0.15375,-1.41395 -0.36803,-2.88348 -0.91045,-4.20865 -0.28659,-1.06655 -0.78817,-1.92902 -1.41261,-2.81584 -0.91123,-1.22288 -1.81909,-2.44709 -2.89733,-3.53 -1.02434,-1.13016 -2.14048,-2.16839 -3.16223,-3.30215 -1.0757,-0.810698 -2.18359,-1.592489 -3.24376,-2.43085 -1.21502,-0.842023 -2.52501,-1.533749 -3.83936,-2.206928 -1.73246,-0.868873 -3.47779,-1.719343 -5.2782,-2.439864 -1.45489,-0.445858 -2.90057,-0.942674 -4.39418,-1.246677 -1.41602,-0.144055 -2.79534,-0.500345 -4.19786,-0.729351 -1.26086,-0.184196 -2.53667,-0.21123 -3.80848,-0.232876 -1.64863,-0.01605 -3.29738,-0.0097 -4.94606,-0.0078 -1.01342,0.07322 -2.00496,0.203908 -2.95811,0.560908 -4.31756,1.421961 -6.32852,-4.683985 -2.01096,-6.105946 l 0,0 c 1.62068,-0.502655 3.25572,-0.847597 4.96163,-0.883529 1.68833,-0.002 3.37675,-0.0085 5.06502,0.0088 1.58665,0.028 3.17745,0.07475 4.74851,0.318495 1.49261,0.250349 2.96089,0.611873 4.46671,0.779828 1.85937,0.398077 3.67618,0.974485 5.47803,1.576133 1.97581,0.801511 3.90238,1.718087 5.80454,2.680185 1.68889,0.865037 3.36933,1.771444 4.90448,2.892699 1.33708,1.065409 2.78692,1.984392 4.02855,3.168745 0.96499,1.076452 2.03048,2.052482 2.99797,3.126198 1.29535,1.356967 2.46727,2.814267 3.56168,4.337697 0.92028,1.33743 1.70472,2.73076 2.17655,4.29349 0.70934,2.06138 1.20618,4.20429 1.29449,6.39018 0.002,1.99872 0.006,3.99744 0.0106,5.99616 0.002,2.11094 0.011,4.22321 -0.087,6.33243 -0.14756,2.37963 -0.43652,4.74925 -1.15163,7.03448 -0.72971,2.32317 -1.49926,4.63231 -2.46646,6.87046 -1.13107,2.73931 -2.51258,5.35094 -4.3541,7.68757 -1.58525,2.07203 -3.17292,4.13901 -5.09949,5.91131 -1.36898,1.33577 -2.80894,2.60073 -4.31362,3.78156 -1.68851,1.1249 -3.4699,2.14085 -5.42935,2.71396 -1.5708,0.5627 -3.18501,0.92117 -4.82183,1.23634 -2.05278,0.35807 -4.14053,0.54467 -6.21544,0.72449 -2.23847,1.8e-4 -4.47694,4.7e-4 -6.71541,0.003 -2.21864,0.003 -4.43727,0.007 -6.6559,0.0103 -1.91788,-0.001 -3.84058,0.0213 -5.75305,-0.14477 -1.81309,-0.21056 -3.6084,-0.5664 -5.289392,-1.30519 -2.333576,-0.7899 -4.482681,-1.93461 -6.578641,-3.22357 -1.028094,-0.69917 -2.017242,-1.43205 -3.048198,-2.11371 -1.277436,-0.72947 -2.463949,-1.60889 -3.596804,-2.54716 -1.171581,-1.10777 -2.551419,-2.0065 -3.516178,-3.32821 -1.123277,-1.4649 -2.375323,-2.86068 -2.896202,-4.68207 -0.737953,-1.90753 -1.321417,-3.88335 -1.673244,-5.90035 -0.221355,-1.69836 -0.450136,-3.38987 -0.350899,-5.10823 -5.53e-4,-1.42468 -0.0015,-2.84937 -0.0041,-4.27406 -0.0024,-1.4652 -0.0081,-2.93049 0.0087,-4.39563 0.0311,-1.78609 0.0942,-3.57393 0.322347,-5.3476 0.255994,-1.88366 0.643614,-3.74371 0.856071,-5.63322 0.341226,-1.93466 0.64451,-3.88878 1.2027,-5.77333 0.663753,-1.7367 1.369595,-3.4589 2.412937,-5.01021 1.553925,-2.15591 3.486512,-3.896526 5.722237,-5.340922 2.21015,-1.657217 4.562772,-3.082815 6.802345,-4.696571 1.787201,-1.172214 3.448514,-2.524532 5.304016,-3.592057 1.86247,-0.919215 3.77483,-1.748682 5.75425,-2.383746 2.50952,-0.81738 5.07168,-1.448005 7.63772,-2.060537 4.37079,-1.248796 6.13685,4.93243 1.76607,6.181226 z"
       inkscape:connector-curvature="0"
       transform="translate(0,802.36218)" />
    <path
       style="fill:#000000;fill-opacity:1;stroke:none"
       id="path3207"
       d="m 100.42752,109.38649 c 2.32,1.68492 4.68897,3.28263 7.21999,4.63373 0.99542,0.47076 1.99132,0.92609 3.02095,1.31586 4.24027,1.63808 1.92368,7.63474 -2.3166,5.99666 l 0,0 c -1.27271,-0.49861 -2.52151,-1.03921 -3.74612,-1.64912 -2.90445,-1.56779 -5.647881,-3.38569 -8.293687,-5.35856 -3.492093,-2.91008 0.623378,-7.84864 4.115467,-4.93857 z"
       inkscape:connector-curvature="0"
       transform="translate(0,802.36218)" />
    <path
       style="fill:#000000;fill-opacity:1;stroke:none"
       id="path3211"
       d="m 123.09654,101.76694 c -0.72635,2.91703 -1.79798,5.7179 -2.84587,8.52819 -0.70745,2.04088 -1.26337,4.13055 -1.92989,6.18414 -0.398,1.35626 -0.82771,2.69337 -1.40258,3.98533 -1.92767,4.11671 -7.74959,1.39057 -5.82191,-2.72615 l 0,0 c 0.5515,-1.01212 0.70498,-2.19813 1.11728,-3.26632 0.71173,-2.12755 1.24847,-4.31401 2.01436,-6.42491 0.8888,-2.37917 1.78372,-4.75588 2.50465,-7.18942 0.64286,-4.499997 7.00682,-3.59086 6.36396,0.90914 z"
       inkscape:connector-curvature="0"
       transform="translate(0,802.36218)" />
    <path
       style="fill:#000000;fill-opacity:1;stroke:none"
       id="path3213"
       d="m 119.44478,120.15825 c 1.30599,2.40691 2.63274,4.80298 3.91842,7.22063 1.40291,2.79295 2.68216,5.64853 4.00064,8.48325 0.95525,2.07766 1.84262,4.18131 2.6688,6.31328 0.42362,0.97958 0.87084,1.94583 1.2561,2.94084 1.58904,4.2589 -4.43394,6.50615 -6.02299,2.24726 l 0,0 c -0.33511,-0.9842 -0.86795,-1.89439 -1.22937,-2.87046 -0.77095,-2.00074 -1.60714,-3.97089 -2.50148,-5.91984 -1.27069,-2.7321 -2.5029,-5.48457 -3.84922,-8.17897 -1.18296,-2.23051 -2.43144,-4.42634 -3.58979,-6.67006 -2.5215,-3.78224 2.8274,-7.34817 5.34889,-3.56593 z"
       inkscape:connector-curvature="0"
       transform="translate(0,802.36218)" />
    <path
       style="fill:#000000;fill-opacity:1;stroke:none"
       id="path3215"
       d="m 108.64312,128.11995 c 3.11279,-0.68282 6.10487,-1.77055 9.01644,-3.04889 2.00508,-0.94074 3.97627,-1.93937 5.93839,-2.96542 4.02851,-2.10578 7.00655,3.59139 2.97803,5.69718 l 0,0 c -2.09377,1.094 -4.19849,2.15695 -6.33912,3.15756 -3.29513,1.43787 -6.67952,2.66502 -10.19919,3.43505 -4.43744,0.9861 -5.83199,-5.28939 -1.39455,-6.27548 z"
       inkscape:connector-curvature="0"
       transform="translate(0,802.36218)" />
    <path
       style="fill:#000000;fill-opacity:1;stroke:none"
       id="path3217"
       d="m 109.44397,141.98379 c 2.82539,-1.59095 5.80496,-2.88106 8.76019,-4.20659 2.53995,-1.31798 5.13568,-2.51451 7.69744,-3.7877 1.28334,-0.69562 2.57167,-1.37018 3.8325,-2.10703 3.92569,-2.29176 7.16674,3.26 3.24105,5.55177 l 0,0 c -1.38784,0.80941 -2.80533,1.55318 -4.21897,2.31529 -2.63871,1.30447 -5.30276,2.54636 -7.92109,3.89322 -2.63168,1.18041 -5.27297,2.34233 -7.82519,3.68993 -3.78224,2.5215 -7.34817,-2.8274 -3.56593,-5.34889 z"
       inkscape:connector-curvature="0"
       transform="translate(0,802.36218)" />
  </g>
</svg>
