<?xml version="1.0" encoding="UTF-8" standalone="no"?>
<!-- Created with Inkscape (http://www.inkscape.org/) -->

<svg
   xmlns:dc="http://purl.org/dc/elements/1.1/"
   xmlns:cc="http://creativecommons.org/ns#"
   xmlns:rdf="http://www.w3.org/1999/02/22-rdf-syntax-ns#"
   xmlns:svg="http://www.w3.org/2000/svg"
   xmlns="http://www.w3.org/2000/svg"
   xmlns:sodipodi="http://sodipodi.sourceforge.net/DTD/sodipodi-0.dtd"
   xmlns:inkscape="http://www.inkscape.org/namespaces/inkscape"
   width="250"
   height="250"
   id="svg2"
   version="1.1"
   inkscape:version="0.48.5 r10040"
   sodipodi:docname="ownership.svg">
  <defs
     id="defs4" />
  <sodipodi:namedview
     id="base"
     pagecolor="#ffffff"
     bordercolor="#666666"
     borderopacity="1.0"
     inkscape:pageopacity="0.0"
     inkscape:pageshadow="2"
     inkscape:zoom="1.4"
     inkscape:cx="192.31256"
     inkscape:cy="123.11395"
     inkscape:document-units="px"
     inkscape:current-layer="layer1"
     showgrid="false"
     inkscape:window-width="1366"
     inkscape:window-height="745"
     inkscape:window-x="-8"
     inkscape:window-y="-8"
     inkscape:window-maximized="1" />
  <metadata
     id="metadata7">
    <rdf:RDF>
      <cc:Work
         rdf:about="">
        <dc:format>image/svg+xml</dc:format>
        <dc:type
           rdf:resource="http://purl.org/dc/dcmitype/StillImage" />
        <dc:title></dc:title>
      </cc:Work>
    </rdf:RDF>
  </metadata>
  <g
     inkscape:label="Layer 1"
     inkscape:groupmode="layer"
     id="layer1"
     transform="translate(0,-802.36218)">
    <path
       style="fill:#000000;fill-opacity:1;stroke:none"
       id="path3227"
       d="m 37.286375,859.80904 c 2.337913,-0.34349 4.697683,-0.47719 7.056229,-0.57789 2.454999,-0.18413 4.419504,-0.12456 6.745804,0.77481 1.751448,0.79743 3.044348,2.21922 4.428675,3.50173 1.146636,1.04161 2.1446,2.22813 3.140761,3.4106 1.079952,1.45107 2.048187,2.97402 2.927537,4.55378 0.902966,1.70204 1.356992,3.60014 1.796031,5.46511 0.234104,1.59156 0.638539,3.14702 0.919937,4.73002 0.27832,1.75973 0.310227,3.54568 0.338309,5.32337 0.168277,1.7504 -0.436574,3.312 -1.068922,4.89429 -0.42189,1.06596 -0.749391,2.31395 -1.516888,3.20193 -0.290854,0.33651 -0.644611,0.61305 -0.966917,0.91957 -0.908169,0.17438 -1.822131,0.72538 -2.724508,0.52315 -3.082577,-0.69084 -2.937873,-3.75041 -2.331117,-5.97974 0.753089,-1.95891 2.108679,-3.5873 3.286504,-5.2972 1.166546,-1.54876 2.523254,-2.93804 3.808981,-4.38561 1.410223,-1.44236 2.862975,-2.83548 4.360947,-4.18437 1.696573,-1.40106 3.492568,-2.67857 5.354988,-3.84853 2.08073,-1.42782 4.29009,-2.64482 6.490987,-3.87239 1.46252,-0.79721 2.903422,-1.61896 4.41987,-2.31425 1.430844,-0.71976 3.061065,-0.69156 4.551317,-1.1893 2.166953,-0.63642 4.347429,-1.22866 6.507235,-1.89211 2.677038,-0.78538 5.440135,-1.29219 8.192995,-1.74092 2.41785,-0.35875 4.81627,-0.79597 7.25188,-1.02973 2.17309,-0.18267 4.35499,-0.21037 6.53445,-0.22476 1.72121,-0.006 3.44243,-6.2e-4 5.16363,0.002 1.58823,0.003 3.17645,0.003 4.76468,0.003 1.73072,2.4e-4 3.46145,2e-4 5.19218,1.8e-4 1.83262,-2e-5 3.66525,-3e-5 5.49787,-4e-5 2.53456,-0.008 4.9143,0.73654 7.30066,1.48655 1.53549,0.509 3.09888,0.91271 4.65186,1.35989 1.72029,0.41795 3.27097,1.28316 4.89693,1.94507 1.77201,0.9276 3.61545,1.60378 5.52025,2.19123 2.00646,0.68802 3.98138,1.39439 5.8673,2.37046 2.08804,1.06473 4.12733,2.21777 6.15463,3.39389 1.82069,1.14321 3.68943,2.20147 5.57353,3.23465 1.78618,0.95486 3.4445,2.05891 5.01723,3.33055 1.51234,0.84699 2.62326,2.17176 3.80861,3.40091 1.20971,1.35135 2.20585,2.87652 3.17141,4.407 0.99655,1.5121 1.70895,3.18737 2.46846,4.82545 0.80419,1.95066 1.62871,3.86673 2.16823,5.91118 0.58761,1.59085 0.9779,3.22737 1.19662,4.90644 0.31485,3.1637 -0.57372,4.77258 -3.49349,6.06873 -0.90172,0.33816 -1.85488,0.33434 -2.79368,0.44256 -0.36411,0.042 -0.8681,0.29346 -1.18459,0.40007 -2.11516,0.77002 -4.20748,1.60181 -6.33363,2.34092 -2.91087,1.0271 -5.78168,2.14741 -8.77315,2.92182 -1.86699,0.47664 -3.71123,0.927 -5.49336,1.65814 -0.32628,0.12257 -1.11358,0.40243 -1.46912,0.58621 -0.12385,0.064 -0.43659,0.31917 -0.29995,0.29148 0.0814,-0.0165 0.17065,-0.063 0.20804,-0.1372 0.23532,-0.46689 0.39534,-0.96807 0.59302,-1.4521 -0.126,-0.51477 -0.25199,-1.02954 -0.37798,-1.54432 -0.0199,-0.0687 -0.13114,-0.21107 -0.0598,-0.20612 0.20366,0.0141 0.3722,0.16851 0.56304,0.241 0.28797,0.10938 0.57782,0.21484 0.87259,0.30429 0.47358,0.14372 2.10103,0.54211 2.47011,0.63423 3.40812,1.04179 6.76305,2.25432 10.12386,3.43944 2.19131,0.96259 4.44687,1.74939 6.67843,2.60361 1.87414,0.51221 3.63848,1.24195 5.33135,2.19363 1.68142,0.86783 3.30862,1.83796 4.98186,2.72236 1.50051,0.71199 3.02782,1.35531 4.55824,1.99785 1.73712,0.70104 3.27433,1.78832 4.9515,2.6006 0.6079,0.24727 1.12469,0.76574 1.76848,0.94436 0.0313,0.009 -0.0288,-0.0706 -0.0608,-0.0761 -0.35981,-0.0621 -0.722,-0.10962 -1.083,-0.16443 -0.40829,-0.0302 -0.32449,0.13995 -0.0278,-0.51129 0.16744,-0.3675 0.18962,-0.48519 0.30555,-0.86694 0.50988,-1.33141 1.10682,-2.63217 1.45669,-4.01793 0.64225,-2.23838 1.61294,-4.35022 2.52257,-6.48657 0.75728,-2.13588 1.68221,-4.20053 2.58839,-6.27475 1.09197,-2.10939 2.40946,-4.08631 3.69371,-6.08156 1.21975,-1.82205 2.33478,-3.71423 3.50556,-5.56966 1.05654,-1.38571 2.01133,-2.84024 2.99452,-4.27755 0.48645,-1.12727 1.22253,-2.12468 1.77248,-3.2175 0.62023,-1.39076 1.51146,-2.62456 2.26853,-3.93554 -0.898,0.61348 -0.032,2.38567 0.39277,2.89603 0.23579,0.28326 0.61749,0.40261 0.92292,0.60888 0.0305,0.0206 0.11915,0.0594 0.0843,0.0713 -0.12381,0.0424 -0.26076,0.0225 -0.39114,0.0337 -1.14585,0.20211 -2.38467,0.34615 -3.48046,0.75417 -1.19866,0.61833 -2.63555,0.50147 -3.87151,0.92739 -1.23789,0.46842 -2.47329,0.90209 -3.77511,1.18146 -1.4801,0.256 -2.9317,0.62282 -4.42274,0.82876 -1.08932,0.27931 -2.13925,0.67077 -3.21459,0.99696 -1.30077,0.44734 -2.65081,1.06141 -4.05833,1.03329 -0.47483,-0.009 -0.94254,-0.11757 -1.4138,-0.17636 -1.57371,-0.54964 -2.57366,-1.54146 -3.16918,-3.08425 -0.24464,-0.63377 -0.30658,-1.29976 -0.57197,-1.92553 -0.47849,-1.38888 -0.90831,-2.76664 -1.49861,-4.11139 -0.49488,-1.35221 -1.22167,-2.5972 -1.80134,-3.91262 -0.56382,-1.44181 -1.03155,-2.93708 -1.66841,-4.34764 -0.54104,-1.14532 -1.1848,-2.24078 -1.72517,-3.39338 -0.47291,-1.42574 -1.15837,-2.74998 -1.79639,-4.10216 -0.74791,-1.71268 -1.64736,-3.34488 -2.53174,-4.98843 -0.8885,-1.7614 -2.06267,-3.33675 -3.18344,-4.94961 -1.00271,-1.35801 -2.06918,-2.66826 -3.08108,-4.02186 -0.85489,-1.18318 -1.82004,-2.28182 -2.72931,-3.42461 -0.73332,-0.83585 -1.42898,-1.69578 -2.25397,-2.44379 -1.02515,-0.95683 -2.24613,-1.66051 -3.45811,-2.35084 -1.63334,-0.9356 -3.07238,-2.15848 -4.67107,-3.14719 -1.31184,-1.04269 -2.80106,-1.78427 -4.29198,-2.52863 -1.41557,-0.59966 -2.59731,-1.68914 -4.04621,-2.20354 -1.33061,-0.57577 -2.68922,-1.07666 -4.03866,-1.60419 -2.03983,-0.72219 -4.14759,-1.21854 -6.2406,-1.75788 -2.24272,-0.68131 -4.57877,-0.85542 -6.87819,-1.22812 -1.7529,-0.27979 -3.48544,-0.65365 -5.22593,-0.99824 -1.57655,-0.26694 -3.17567,-0.33932 -4.77127,-0.37989 -1.66095,-0.0298 -3.32227,-0.0238 -4.98341,-0.0215 -2.01577,0.004 -4.03155,0.005 -6.04733,0.005 -2.83969,7.3e-4 -5.67939,6.8e-4 -8.51908,6.9e-4 -2.30621,0 -4.61242,-2e-5 -6.91862,-4e-5 -2.48329,-0.006 -4.9554,0.3153 -7.42939,0.50794 -1.866294,0.36296 -3.719146,0.86605 -5.532055,1.44599 -2.397447,0.63351 -4.651618,1.68455 -6.942602,2.61581 -1.978062,0.89081 -3.967108,1.77217 -6.015237,2.49056 -1.686496,0.3776 -3.288158,1.01931 -4.94102,1.50774 -2.537671,0.63631 -5.053596,1.36336 -7.602017,1.9578 -2.523429,0.56586 -5.112005,0.6403 -7.658788,1.04485 -1.813248,0.44648 -3.635295,0.853 -5.459316,1.2519 -1.728598,0.47895 -3.465807,0.97158 -5.095649,1.72992 -1.713435,0.78246 -3.405751,1.60221 -5.08728,2.45123 -1.223453,0.64675 -2.37543,1.48421 -3.332441,2.48808 -0.888271,0.96957 -1.671442,2.04474 -2.395076,3.14237 -2.526554,3.77886 -7.87067,0.20578 -5.344116,-3.57308 l 0,0 c 0.975272,-1.44494 2.00094,-2.87432 3.211566,-4.13296 1.483211,-1.43353 3.109261,-2.73968 4.964849,-3.66412 1.763443,-0.88856 3.538314,-1.74531 5.332873,-2.56866 2.054264,-0.91279 4.198144,-1.60062 6.376581,-2.15396 1.94581,-0.42224 3.883606,-0.87668 5.824657,-1.32051 2.398036,-0.37719 4.826832,-0.47859 7.209617,-0.95738 2.433151,-0.56063 4.831111,-1.26702 7.254243,-1.86682 1.553867,-0.44489 3.04922,-1.08277 4.637103,-1.41084 1.947905,-0.66248 3.81507,-1.54976 5.698726,-2.37151 2.447575,-0.99485 4.8605,-2.10641 7.420225,-2.78829 2.281447,-0.71831 4.610388,-1.37415 6.976747,-1.72734 2.63975,-0.205 5.27727,-0.54374 7.92783,-0.52729 2.30618,10e-6 4.61237,4e-5 6.91855,4e-5 2.83891,-2e-5 5.67782,4e-5 8.51674,-6.9e-4 2.01362,-7.5e-4 4.02724,-0.002 6.04086,-0.005 1.71992,-0.002 3.44004,-0.008 5.15976,0.0237 1.95972,0.0522 3.92324,0.15335 5.85649,0.50094 1.67501,0.33379 3.34144,0.69542 5.02933,0.96235 2.47779,0.42866 5.00842,0.58874 7.42638,1.34418 2.34955,0.60557 4.7145,1.16959 6.99688,2.00357 1.35361,0.54196 2.72776,1.03088 4.06508,1.61469 1.59191,0.66432 3.00976,1.6155 4.53085,2.42098 1.6728,0.83525 3.35583,1.68013 4.83703,2.83474 1.5116,0.95765 2.91551,2.06677 4.43701,3.00716 1.62788,0.92791 3.24365,1.91554 4.62074,3.19867 1.07203,0.99054 2.01649,2.0947 2.96054,3.2058 0.92875,1.20131 1.93243,2.34521 2.83568,3.56366 1.04661,1.41687 2.17334,2.77004 3.2061,4.19592 1.25451,1.81483 2.56222,3.59321 3.56314,5.56946 0.94041,1.75324 1.89429,3.49616 2.69721,5.31885 0.62022,1.36231 1.35061,2.67596 1.8011,4.1123 0.55093,1.21292 1.26574,2.33613 1.79786,3.55619 0.5981,1.42764 1.13467,2.8871 1.66521,4.3402 0.54389,1.31365 1.31929,2.52628 1.78515,3.87544 0.63684,1.4508 1.12529,2.93237 1.62878,4.43095 0.11612,0.32373 0.24429,0.64339 0.34836,0.9712 0.0769,0.24211 0.1416,0.4884 0.19394,0.73697 0.006,0.0301 0.007,0.10508 -0.0198,0.09 -0.48968,-0.27544 -0.72879,-0.86745 -1.42936,-0.80525 -1.43043,0.15882 2.16373,-0.38913 2.25998,-0.73428 1.39704,-0.40981 2.7546,-0.95722 4.19648,-1.20897 1.34453,-0.17644 2.64768,-0.53568 3.98386,-0.75383 1.22774,-0.23509 2.3322,-0.79457 3.53284,-1.12651 1.17506,-0.26363 2.38479,-0.3635 3.51034,-0.82684 1.62922,-0.47304 3.31362,-0.85592 5.00045,-1.03113 0.60341,-0.0292 1.59107,-0.1147 2.14922,0.0511 2.98137,0.88535 4.09637,3.20771 2.74701,6.04913 -0.73212,1.20652 -1.53543,2.36219 -2.11249,3.65857 -0.70137,1.28856 -1.48527,2.52024 -2.14503,3.83296 -0.93928,1.37071 -1.84169,2.76709 -2.86369,4.07864 -1.18235,1.87043 -2.30968,3.77754 -3.53637,5.61795 -1.10085,1.70799 -2.22222,3.40251 -3.20894,5.17786 -0.90094,2.05571 -1.81032,4.10519 -2.5654,6.22156 -0.79093,1.8484 -1.64211,3.66932 -2.21861,5.60086 -0.40643,1.50439 -0.96101,2.95588 -1.56685,4.38997 -0.70815,2.07506 -1.64094,4.06117 -3.64215,5.18242 -2.55475,1.06398 -4.0517,0.62129 -6.22476,-0.76018 -1.54736,-0.77968 -2.99544,-1.7364 -4.58659,-2.43344 -1.70611,-0.71986 -3.41248,-1.43481 -5.07908,-2.24508 -1.7297,-0.92145 -3.41902,-1.91674 -5.15806,-2.81946 -1.40564,-0.82564 -2.91717,-1.31447 -4.47301,-1.78399 -2.15244,-0.8603 -4.3706,-1.5658 -6.48436,-2.53163 -3.17164,-1.1186 -6.33939,-2.25525 -9.54694,-3.26592 -1.96179,-0.49241 -6.07667,-1.41158 -7.28693,-3.1715 -0.49002,-0.71256 -0.69826,-1.58236 -1.04739,-2.37353 0.19198,-0.78868 0.26587,-1.61588 0.57593,-2.36603 0.6074,-1.46953 2.9771,-2.47973 4.38206,-2.9911 2.05938,-0.84293 4.1825,-1.39896 6.33937,-1.93805 2.82424,-0.70935 5.51072,-1.82978 8.26263,-2.76857 2.14654,-0.73853 4.25082,-1.59471 6.3883,-2.35957 1.22907,-0.41199 2.47786,-0.80746 3.78979,-0.77603 -0.30976,0.33225 -0.53663,0.60579 -0.6506,1.06625 -0.11738,0.47421 0.18236,0.42374 0.001,-0.30662 -0.16693,-1.41249 -0.57805,-2.75675 -1.04235,-4.09944 -0.42078,-1.68234 -1.16031,-3.22647 -1.78693,-4.83839 -0.62974,-1.39376 -1.24195,-2.81213 -2.07568,-4.09711 -0.71714,-1.16096 -1.47863,-2.30412 -2.34989,-3.35498 -1.01549,-1.0541 -1.90666,-2.15518 -3.22238,-2.86357 -1.27427,-1.03069 -2.60885,-1.92777 -4.06679,-2.69295 -1.9287,-1.0585 -3.84362,-2.13966 -5.70754,-3.31028 -1.94276,-1.12709 -3.89437,-2.23598 -5.89742,-3.25242 -1.53695,-0.80644 -3.1593,-1.3484 -4.79312,-1.92943 -2.09749,-0.64688 -4.14133,-1.38883 -6.09504,-2.3989 -1.40485,-0.5929 -2.75715,-1.32857 -4.2416,-1.71313 -1.58248,-0.48166 -3.1962,-0.86626 -4.7661,-1.39465 -1.76476,-0.5551 -3.49228,-1.18371 -5.37239,-1.19055 -1.83261,10e-6 -3.66522,2e-5 -5.49783,4e-5 -1.73117,2e-5 -3.46235,6e-5 -5.19352,-1.8e-4 -1.59144,-3.1e-4 -3.18288,-7.2e-4 -4.77432,-0.003 -1.70358,-0.003 -3.40716,-0.008 -5.11074,-0.002 -1.99104,0.0128 -3.98439,0.0348 -5.97,0.19623 -2.29661,0.21429 -4.55448,0.64613 -6.83496,0.97642 -2.46328,0.39193 -4.935341,0.85095 -7.332043,1.54053 -2.157915,0.6604 -4.334708,1.25592 -6.499406,1.88971 -1.256179,0.37117 -2.539701,0.52347 -3.787981,0.89998 -1.362405,0.60768 -2.631005,1.37331 -3.944945,2.07467 -2.109349,1.17551 -4.226663,2.34011 -6.218486,3.71155 -1.553352,0.96044 -3.032162,2.03686 -4.459717,3.17487 -1.323747,1.18865 -2.599547,2.42157 -3.859601,3.68079 -1.115322,1.24827 -2.27402,2.45941 -3.321619,3.76603 -0.813785,1.17237 -1.676993,2.30899 -2.427292,3.52467 -0.08369,0.12174 -0.02579,0.31092 -0.116322,0.42767 -0.04712,0.0608 -0.0044,-0.15627 -0.03019,-0.22873 -0.147804,-0.41574 -0.176376,-0.9184 -0.488508,-1.23027 -1.805861,-1.80433 -2.053469,-1.14408 -4.261087,-0.57788 -0.972215,1.1296 -0.425824,0.59156 -0.313127,0.33204 0.243051,-0.55971 0.454131,-1.10873 0.644872,-1.68747 0.358941,-0.87741 0.712338,-1.35367 0.598839,-2.37908 -0.02211,-1.4389 -0.03744,-2.88514 -0.242266,-4.31203 -0.253178,-1.467 -0.646662,-2.90574 -0.848876,-4.38199 -0.295964,-1.28609 -0.584804,-2.60406 -1.152381,-3.7981 -0.679966,-1.22162 -1.420132,-2.39612 -2.227229,-3.53882 -0.826532,-0.98135 -1.638807,-1.97901 -2.594939,-2.83815 -0.836127,-0.77584 -1.608629,-1.63854 -2.545916,-2.28818 -1.208023,-0.67225 -2.667195,-0.22087 -3.984759,-0.27956 -2.145696,0.0907 -4.292958,0.20679 -6.41999,0.51907 -4.5,0.64286 -5.409137,-5.7211 -0.909137,-6.36396 z"
       inkscape:connector-curvature="0" />
    <path
       style="fill:#000000;fill-opacity:1;stroke:none"
       id="path3229"
       d="m 40.776874,924.55759 c -0.582813,2.53576 -1.308448,5.03508 -1.898724,7.56893 -0.673389,2.40547 -1.213552,4.84582 -1.860686,7.25773 -0.383211,1.68559 -1.005062,3.30511 -1.381407,4.99119 -0.45813,1.46854 -0.774135,2.97071 -1.188185,4.451 -0.508531,1.55488 -1.075754,3.09489 -1.509416,4.6731 -0.544862,1.50485 -0.897168,3.06336 -1.338981,4.59887 -0.495052,1.71865 -1.613129,3.08579 -2.590163,4.53897 -0.25744,0.75962 0.575666,-0.81595 -0.11565,-2.03767 -0.80615,-1.42467 -2.824616,-1.42238 -1.20403,-1.61793 1.794421,-0.41744 3.638671,-0.67828 5.375309,-1.30902 1.822871,-0.61073 3.64521,-1.21252 5.438564,-1.90899 1.711885,-0.64876 3.472016,-1.05732 5.153285,-1.78075 1.75151,-0.66379 3.561735,-1.18967 5.395619,-1.57373 2.607394,-0.43209 5.157815,0.9465 5.540585,3.73098 0.06471,0.47074 0.01556,0.95021 0.02335,1.42531 -0.223603,1.3961 -0.470884,2.78273 -0.58778,4.19292 -0.09271,1.35027 -0.09768,2.70443 -0.103818,4.05723 -0.08694,1.5561 0.229701,3.08374 0.410353,4.62299 0.405335,1.64512 0.84649,3.30243 1.472938,4.88005 0.654635,1.90658 1.494974,3.74069 2.154229,5.644 0.437276,1.82013 1.160427,3.54371 1.800547,5.29594 0.765458,2.02649 1.739433,3.95712 2.786493,5.84909 0.895128,1.33623 1.959743,2.55422 3.095915,3.68978 1.38808,1.19052 2.803493,2.35085 4.358044,3.31832 1.751797,1.1284 3.768447,1.6356 5.730093,2.2617 2.825576,0.8885 5.57539,1.9907 8.374583,2.9522 3.000465,1.1077 6.133514,1.7714 9.215166,2.6019 3.199921,0.9822 6.462852,1.718 9.686723,2.6172 1.82711,0.5315 3.69765,0.8526 5.5929,0.9874 1.75638,0.085 3.51605,0.059 5.27386,0.055 3.73021,-0.01 7.46042,-0.011 11.19063,-0.013 3.93869,-0.055 7.88271,0.1047 11.81813,-0.084 3.56992,-0.3076 7.14068,-0.6923 10.69816,-1.131 2.15208,-0.3939 4.43436,-0.2671 6.44816,-1.2068 1.32459,-0.65 2.45123,-1.5364 3.55882,-2.4894 0.99134,-1.0906 1.95848,-2.2025 2.95863,-3.2854 1.4267,-1.5105 2.85485,-3.02125 4.39482,-4.41688 1.75115,-1.42241 3.35524,-2.98248 4.87059,-4.64906 1.12569,-1.21986 2.13065,-2.54186 3.1676,-3.83669 1.03794,-1.06152 2.01957,-2.16704 2.91261,-3.35169 0.8946,-1.04195 1.82923,-2.02751 2.60678,-3.16052 1.25598,-1.57601 2.65789,-2.99267 4.23349,-4.24686 1.40546,-0.84123 2.55024,-1.95226 3.52948,-3.25109 0.60229,-0.86822 1.29289,-1.67124 1.92291,-2.51805 0.13294,-0.17867 0.2567,-0.36433 0.37349,-0.55395 0.0442,-0.0718 0.12668,-0.3107 0.10842,-0.22842 -0.12074,0.54397 -0.27802,1.07919 -0.41702,1.61878 3.24568,4.76691 0.14466,1.39935 2.9025,2.75333 0.007,0.003 -0.49381,0.15375 -1.14048,0.31807 -0.89411,0.2272 -0.87627,0.21227 -1.7923,0.40022 -1.58153,0.49617 -3.19981,0.81963 -4.84341,1.01598 -1.55137,0.15447 -3.11185,0.16105 -4.66929,0.16738 -2.024,0.14741 -3.87007,-0.29795 -5.69018,-1.16128 -2.20394,-1.17595 -3.62009,-3.14748 -4.86693,-5.24155 -1.05998,-1.92347 -1.94223,-3.93812 -2.66119,-6.01208 -0.72439,-1.46688 -1.15084,-3.02313 -1.39509,-4.63358 -0.0463,-1.39908 -0.36173,-2.75591 -0.57399,-4.13461 -0.24258,-1.54542 -0.0341,0.41252 0.34692,0.44698 5.73464,0.51866 6.10776,-2.48206 5.26938,1.02044 -0.54313,2.59739 -1.75798,4.86333 -3.13854,7.09434 -1.31658,1.79579 -2.50922,3.6819 -3.93224,5.39607 -1.29731,1.53049 -3.04159,2.56801 -4.53412,3.8857 -1.69858,1.3893 -3.50071,2.6495 -5.31187,3.88695 -1.81153,1.20628 -3.63325,2.39603 -5.59988,3.33413 -1.45262,0.64502 -2.82578,1.4259 -4.32723,1.95554 -1.78078,0.52483 -3.65117,0.55333 -5.4928,0.5884 -1.61903,0.0165 -3.2382,0.006 -4.85727,10e-4 -1.98185,0.0915 -3.93223,-0.10807 -5.87712,-0.4744 -2.20592,-0.29535 -4.26393,-1.13059 -6.38675,-1.73909 -1.91698,-0.56312 -3.79269,-1.26919 -5.73791,-1.73238 -1.52003,-0.61564 -3.13214,-0.79071 -4.73033,-1.07089 -2.00961,-0.34937 -4.00142,-0.79011 -5.99445,-1.22411 -2.51695,-0.50934 -4.97856,-1.2128 -7.405764,-2.04448 -1.928059,-0.52724 -3.777605,-1.13741 -5.449547,-2.24833 -1.321659,-0.90958 -2.657219,-1.76308 -3.874241,-2.8129 -1.266209,-1.194 -2.595553,-2.32836 -3.802501,-3.58388 -0.976709,-1.01893 -2.00075,-1.98571 -2.92427,-3.0551 -1.032124,-1.3506 -1.892139,-2.81725 -2.704482,-4.30651 -0.910299,-1.40461 -1.797994,-2.82176 -2.662332,-4.25568 -0.62189,-1.23443 -1.21527,-2.46308 -1.949226,-3.63135 -0.4822,-1.004 -0.913763,-1.99886 -1.492062,-2.93725 -0.505856,-0.98176 -1.074333,-1.93955 -1.7338,-2.82914 -0.478063,-0.88106 -1.300811,-1.54884 -1.702776,-2.48071 -0.179643,-0.41647 -0.281675,-0.86228 -0.422512,-1.29342 0.07961,-0.68144 -0.02598,-1.41142 0.238831,-2.04434 0.83005,-1.98389 2.870518,-2.48108 4.679082,-3.03502 2.319859,-0.78286 4.678694,-1.4116 6.9138,-2.42388 2.820874,-1.3567 5.566026,-2.85549 8.168496,-4.59503 1.941298,-1.34791 3.929883,-2.65102 5.815114,-4.07778 0.915897,-0.75567 1.861097,-1.46726 2.670754,-2.33893 0.685838,-0.99347 1.443565,-1.92371 2.112375,-2.93167 0.628197,-1.03565 1.34777,-2.08814 1.796024,-3.218 -0.346518,0.51202 -0.420211,0.55014 -0.110591,1.63081 0.126553,0.4417 0.490248,0.77732 0.742478,1.16138 0.0363,0.0552 0.17808,0.11995 0.12256,0.15578 -0.0878,0.0567 -0.20772,-0.0229 -0.311657,-0.0337 -0.174357,-0.0181 -0.348802,-0.0354 -0.523202,-0.0531 -1.780807,-0.11905 -3.568278,-0.0824 -5.351919,-0.0774 -2.96428,0.0111 -5.928574,0.0165 -8.892872,0.0196 -3.606648,0.0694 -7.20331,-9.5e-4 -10.786652,-0.42997 -2.309148,-0.36753 -4.612685,-0.74224 -6.946954,-0.89956 -2.101996,-0.18869 -4.151327,-0.67508 -6.21752,-1.07307 -1.846763,-0.32799 -3.726331,-0.32122 -5.583141,-0.54654 -1.423544,-0.26451 -2.854202,-0.45945 -4.298779,-0.5532 -1.974509,-0.1853 -3.740648,-1.04777 -5.413468,-2.05352 -1.429896,-0.77361 -2.637509,-1.89564 -3.828399,-2.98842 -0.812836,-0.49849 -1.688778,-1.59858 -2.697913,-1.64257 1.136029,0.76222 2.304442,-1.27029 1.961143,0.0648 -0.180227,1.26762 -0.42138,2.52266 -0.661051,3.78137 -0.496124,1.58675 -0.7624,3.22272 -1.263695,4.8033 -0.441528,1.07493 -0.239361,0.56954 -0.609818,1.51483 -1.662191,4.23089 -7.645566,1.88019 -5.983375,-2.35069 l 0,0 c 0.380247,-0.96583 0.196538,-0.51756 0.54647,-1.34672 0.422058,-0.58074 0.514786,-2.99857 0.996009,-3.82686 0.296791,-1.54951 0.522513,-3.10762 0.887871,-4.64109 1.032954,-2.84769 2.65041,-4.73563 6.012559,-4.14462 1.931737,0.66859 3.664068,1.72102 5.193513,3.08428 0.85348,0.81728 1.749162,1.64263 2.794392,2.20424 0.776384,0.48569 1.582942,0.95868 2.492296,1.12723 1.58207,0.10721 3.154212,0.29713 4.712745,0.59422 1.97278,0.30075 4.008635,0.16212 5.968666,0.60935 1.807131,0.35357 3.597286,0.77957 5.433259,0.97027 2.447214,0.1716 4.867867,0.53014 7.287193,0.93211 3.319561,0.41851 6.656065,0.42941 9.997878,0.38223 2.960477,-0.003 5.920951,-0.008 8.88141,-0.0196 2.04567,-0.006 4.097059,-0.0505 6.137501,0.1233 3.51796,0.45674 6.47867,1.91665 5.16418,6.18439 -0.6786,1.42697 -1.44702,2.82843 -2.31572,4.14711 -0.87503,1.2863 -1.81629,2.51853 -2.76607,3.74937 -1.076933,1.13208 -2.284215,2.11213 -3.506057,3.08309 -1.995635,1.4732 -4.046637,2.88023 -6.096591,4.27613 -2.91124,1.92933 -5.963068,3.62228 -9.120231,5.11807 -2.488507,1.08932 -5.070186,1.86459 -7.651103,2.69863 -1.741901,0.52754 -0.315175,0.14043 -1.09162,0.29173 -0.694955,0.13543 0.241046,-0.0611 0.56985,-1.17623 0.139372,-0.47268 0.01957,-0.9854 0.02936,-1.47811 -0.86592,-1.80124 0.956278,1.4263 1.125229,1.42404 0.673149,1.0071 1.378512,2.01522 1.911632,3.10238 0.567923,0.9248 1.099572,1.8647 1.462254,2.88928 0.753638,1.20282 1.412569,2.44458 2.010428,3.73088 0.910977,1.51303 1.862359,2.99807 2.799346,4.49456 0.597181,1.09482 1.221029,2.16756 1.934301,3.19247 0.855017,0.99904 1.825465,1.88493 2.72963,2.83893 1.04315,1.15195 2.300913,2.10868 3.406677,3.19842 0.966964,0.94123 2.22761,1.51017 3.283391,2.34435 1.025915,0.9099 2.648131,0.85731 3.842034,1.42972 2.1944,0.75255 4.41835,1.39075 6.69581,1.84581 1.91014,0.42068 3.81992,0.84001 5.74663,1.17495 1.72205,0.31285 3.47994,0.48736 5.11823,1.15236 2.03733,0.50039 4.01554,1.19661 6.0209,1.80785 1.93204,0.56936 3.80442,1.32815 5.81508,1.60061 1.54723,0.31446 3.08891,0.43146 4.6686,0.35644 1.57342,0.004 3.14692,0.0146 4.7203,-2.3e-4 1.18565,-0.0214 2.38846,-0.0209 3.55536,-0.25156 1.28889,-0.3864 2.40143,-1.21878 3.66108,-1.68829 1.66857,-0.75337 3.15513,-1.84231 4.69633,-2.8187 1.59969,-1.09297 3.1918,-2.20345 4.70365,-3.41562 1.25548,-1.0927 2.67034,-2.00403 3.84122,-3.17755 1.24407,-1.46448 2.22184,-3.13154 3.39477,-4.65261 1.0285,-1.65885 1.98099,-3.26863 2.35542,-5.22101 0.0636,-0.25919 0.13242,-0.51715 0.19076,-0.77757 0.0648,-0.28926 -0.0967,-0.76107 0.17857,-0.87119 5.05598,-2.02309 6.0137,-3.01977 6.61761,0.72278 0.21056,1.39388 0.53567,2.77246 0.58169,4.18648 0.16044,1.22668 0.59397,2.3485 1.11468,3.47033 0.55895,1.66393 1.28501,3.26547 2.10819,4.81431 0.59044,1.00036 1.15762,2.04036 2.12691,2.72896 0.17917,0.0884 0.36937,0.15735 0.53751,0.26529 0.0281,0.018 -0.005,0.0863 0.0263,0.0967 0.74363,0.24328 1.54784,0.1369 2.31151,0.16276 1.31794,-0.005 2.6384,-0.006 3.95216,-0.12437 1.46817,-0.16417 2.8909,-0.51759 4.30847,-0.93078 1.35781,-0.27106 4.3171,-1.35175 5.45789,-0.64418 0.99044,0.61433 1.48739,1.79478 2.23109,2.69216 -0.11241,0.757 -0.1472,1.52966 -0.33723,2.27099 -0.29639,1.15628 -2.33156,2.99049 -2.94255,4.11927 -1.31569,1.68021 -2.78372,3.24479 -4.62555,4.36134 -1.10345,0.86959 -2.06786,1.84173 -2.97528,2.91706 -0.83737,1.16782 -1.74885,2.27345 -2.72699,3.32514 -0.93087,1.23181 -1.92088,2.42019 -3.02753,3.49943 -1.12191,1.39818 -2.21243,2.82369 -3.42876,4.14238 -1.66125,1.82459 -3.41556,3.54335 -5.3298,5.10535 -1.4054,1.2461 -2.66566,2.646 -3.9688,3.9968 -1.1668,1.2622 -2.26417,2.589 -3.48818,3.7965 -1.60719,1.3819 -3.29634,2.6203 -5.22622,3.5277 -2.6276,1.0752 -5.38353,1.3657 -8.1908,1.6756 -3.71985,0.4534 -7.45145,0.8659 -11.18519,1.172 -4.03366,0.1785 -8.07321,0.051 -12.10991,0.091 -3.72692,0 -7.45385,0 -11.18077,0.013 -1.91966,0 -3.84155,0.032 -5.75922,-0.072 -2.31876,-0.1754 -4.61136,-0.557 -6.8481,-1.2065 -3.206246,-0.8946 -6.452389,-1.625 -9.634772,-2.6029 -3.222647,-0.8716 -6.499205,-1.5675 -9.636309,-2.7312 -2.75012,-0.9524 -5.456707,-2.0257 -8.233014,-2.9053 -2.482655,-0.7928 -5.007748,-1.5079 -7.212484,-2.9534 -1.944998,-1.2443 -3.764907,-2.6661 -5.477102,-4.2158 -1.547993,-1.56183 -3.003879,-3.23799 -4.164294,-5.11219 -1.209856,-2.18684 -2.325591,-4.42663 -3.205055,-6.76988 -0.645375,-1.79666 -1.400803,-3.55813 -1.844765,-5.42193 -0.599526,-1.82624 -1.460394,-3.5616 -2.062001,-5.3899 -0.794853,-2.09007 -1.439441,-4.25786 -1.862574,-6.45321 -0.209022,-1.79511 -0.551584,-3.58355 -0.453785,-5.3991 0.0071,-1.52438 0.01559,-3.05029 0.126785,-4.57142 0.11773,-1.36214 0.285851,-2.72003 0.577707,-4.05722 0.321821,0.94029 1.309156,1.77352 2.357618,1.57338 0.06945,-0.0133 -0.140432,-0.0166 -0.210648,-0.0249 -1.4116,0.2828 -2.797897,0.70188 -4.151956,1.18296 -1.758545,0.75538 -3.576223,1.23964 -5.376929,1.87195 -1.871207,0.71893 -3.767848,1.35633 -5.667199,1.99232 -2.195338,0.72946 -4.464069,1.19181 -6.736253,1.61602 -1.930513,0.21041 -3.588965,0.40591 -5.066133,-1.51597 -1.221197,-1.58885 -0.446625,-3.40601 0.342548,-4.82844 0.607729,-0.88812 1.326646,-1.70097 1.72979,-2.70409 0.437644,-1.5209 0.783607,-3.06681 1.326871,-4.55623 0.447067,-1.57348 0.985346,-3.12138 1.508494,-4.6698 0.386647,-1.38223 0.673465,-2.78763 1.113073,-4.15566 0.411758,-1.76504 1.01779,-3.47241 1.442247,-5.23467 0.63966,-2.33635 1.141253,-4.71051 1.806003,-7.04084 0.617497,-2.63468 1.361875,-5.2367 1.977392,-7.87204 1.248796,-4.37078 7.430021,-2.60472 6.181225,1.76607 z"
       inkscape:connector-curvature="0" />
  </g>
</svg>
