<?xml version="1.0" encoding="UTF-8" standalone="no"?>
<!-- Created with Inkscape (http://www.inkscape.org/) -->

<svg
   xmlns:dc="http://purl.org/dc/elements/1.1/"
   xmlns:cc="http://creativecommons.org/ns#"
   xmlns:rdf="http://www.w3.org/1999/02/22-rdf-syntax-ns#"
   xmlns:svg="http://www.w3.org/2000/svg"
   xmlns="http://www.w3.org/2000/svg"
   xmlns:sodipodi="http://sodipodi.sourceforge.net/DTD/sodipodi-0.dtd"
   xmlns:inkscape="http://www.inkscape.org/namespaces/inkscape"
   width="250"
   height="250"
   id="svg2"
   version="1.1"
   inkscape:version="0.48.5 r10040"
   sodipodi:docname="secury.svg">
  <defs
     id="defs4" />
  <sodipodi:namedview
     id="base"
     pagecolor="#ffffff"
     bordercolor="#666666"
     borderopacity="1.0"
     inkscape:pageopacity="0.0"
     inkscape:pageshadow="2"
     inkscape:zoom="1.4"
     inkscape:cx="192.31256"
     inkscape:cy="123.11395"
     inkscape:document-units="px"
     inkscape:current-layer="layer1"
     showgrid="false"
     inkscape:window-width="1366"
     inkscape:window-height="745"
     inkscape:window-x="-8"
     inkscape:window-y="-8"
     inkscape:window-maximized="1" />
  <metadata
     id="metadata7">
    <rdf:RDF>
      <cc:Work
         rdf:about="">
        <dc:format>image/svg+xml</dc:format>
        <dc:type
           rdf:resource="http://purl.org/dc/dcmitype/StillImage" />
        <dc:title></dc:title>
      </cc:Work>
    </rdf:RDF>
  </metadata>
  <g
     inkscape:label="Layer 1"
     inkscape:groupmode="layer"
     id="layer1"
     transform="translate(0,-802.36218)">
    <path
       style="fill:#000000;fill-opacity:1;stroke:none"
       id="path3103"
       d="m 23.161155,965.38349 c -0.05678,-2.52843 0.647196,-4.93635 1.207523,-7.37183 0.696695,-2.90443 1.858615,-5.64758 3.128548,-8.33943 1.294019,-2.71751 3.002716,-5.20346 4.419387,-7.854 2.209137,-3.73546 4.542256,-7.39463 6.941732,-11.01006 2.970029,-4.55465 6.117773,-8.99326 9.318537,-13.38827 2.658782,-3.58707 5.584484,-6.95883 8.54997,-10.29172 2.28821,-2.73375 5.032912,-5.01408 7.623494,-7.44632 2.806442,-2.49625 6.114784,-4.30513 9.420518,-6.04175 3.712252,-1.89836 7.597363,-3.49688 11.563226,-4.78433 5.303455,-1.77722 10.75132,-3.0216 16.1966,-4.26809 8.17469,-1.69477 16.41721,-3.0335 24.63683,-4.48702 6.76709,-1.10496 13.53171,-2.22981 20.3619,-2.86241 3.07818,-0.28289 6.16719,-0.326 9.25378,-0.21171 2.46268,0.0677 4.90539,0.30391 7.34531,0.63222 3.72952,0.35457 7.31061,1.47607 10.89342,2.50555 4.53928,1.38061 8.99801,3.01073 13.42519,4.71247 2.74289,0.98919 5.44324,2.09474 8.10145,3.29171 2.21928,1.08899 4.48118,2.08072 6.58906,3.37443 2.47374,1.52978 4.43921,3.70249 6.84139,5.3327 1.52594,0.9178 3.08725,1.81788 4.78301,2.38242 1.94008,0.68639 3.76833,1.63678 4.55629,3.68382 0.17435,0.45291 0.16159,0.95708 0.24237,1.43562 -0.0342,2.65996 -1.8275,4.1806 -3.5648,5.88283 -0.96166,1.02236 -2.44682,1.95567 -2.99777,3.29031 -0.86068,1.55667 -1.53831,3.20402 -2.32556,4.80336 -0.80994,1.83191 -1.81077,3.55973 -2.79175,5.30274 -0.90901,1.51155 -2.07409,2.83281 -3.04023,4.30422 -1.38433,2.09412 -2.9335,4.0662 -4.40692,6.09697 -1.59075,2.34834 -3.18755,4.69054 -4.80415,7.0218 -1.27332,1.873 -2.89567,3.47546 -4.46191,5.10157 -1.40309,1.47141 -2.93839,2.8245 -4.23879,4.39011 -1.48812,1.4725 -3.01779,2.91281 -4.62116,4.25967 -1.42553,1.21531 -3.12007,2.03509 -4.62746,3.1318 -1.65618,1.30403 -3.40646,2.47287 -5.15684,3.64407 -2.24959,1.38167 -4.4867,2.77878 -6.69597,4.22521 -2.58917,1.66687 -5.52006,2.63406 -8.38291,3.70484 -2.6021,1.00072 -5.25064,1.86642 -7.91737,2.67571 -2.80619,0.77093 -5.64367,1.42347 -8.43835,2.23519 -2.08025,0.67374 -4.25772,0.97337 -6.33947,1.63579 -2.10834,0.63884 -4.28183,1.04875 -6.44663,1.44696 -2.32792,0.2896 -4.57508,0.98208 -6.84177,1.55752 -2.23424,0.48944 -4.46402,0.99502 -6.68174,1.55353 -2.49137,0.56014 -4.99122,1.06671 -7.50169,1.53449 -2.32206,0.30887 -4.63315,0.68309 -6.968956,0.87669 -2.088248,0.30366 -4.143586,0.74247 -6.242868,0.97858 -2.649849,0.2214 -5.310581,0.12676 -7.96307,0.0177 -2.285874,-0.10557 -4.570329,-0.23911 -6.854936,-0.36865 -2.244801,-0.12735 -4.489769,-0.25171 -6.734737,-0.37607 -2.480738,-0.15834 -4.968804,-0.20382 -7.437408,-0.50291 -2.270278,-0.42597 -4.577223,-0.61345 -6.846949,-1.03171 -2.051725,-0.47055 -4.134034,-0.76771 -6.197093,-1.18315 -1.867644,-0.43411 -3.783365,-0.57955 -5.66097,-0.94667 -1.634274,-0.31821 -3.208921,-0.77456 -4.736969,-1.43469 -1.489173,-0.5227 -2.872646,-1.22685 -4.191203,-2.0893 -1.174481,-0.8499 -2.180227,-1.86082 -3.433994,-2.59542 -1.093259,-0.6115 -2.309094,-0.86841 -3.534327,-1.04878 -0.78492,-0.061 -1.551529,-0.17759 -2.326729,-0.31485 -4.463749,-0.8592 -3.248664,-7.17189 1.215085,-6.3127 l 0,0 c 0.686597,0.15908 1.386528,0.16533 2.082741,0.27275 2.045283,0.32031 4.053914,0.8319 5.859781,1.88458 1.317312,0.79648 2.493079,1.73459 3.656485,2.73456 1.021589,0.66826 2.090074,1.18561 3.255509,1.58249 1.112349,0.50101 2.261659,0.78407 3.458021,1.02652 1.847341,0.42756 3.786728,0.44124 5.626219,0.93955 2.042035,0.41162 4.104044,0.70277 6.134599,1.1709 2.128801,0.43047 4.319266,0.52808 6.449581,0.96855 2.311849,0.31344 4.658114,0.27769 6.982419,0.46149 2.247947,0.12425 4.495864,0.24904 6.743629,0.37656 2.251658,0.12773 4.503173,0.25926 6.756091,0.36322 2.328143,0.0963 4.662838,0.18691 6.99003,0.0159 2.161122,-0.23522 4.2692,-0.74334 6.427914,-0.99639 2.117275,-0.16977 4.209155,-0.52512 6.315455,-0.7894 2.38159,-0.44306 4.75312,-0.92111 7.11683,-1.45056 2.21384,-0.55167 4.43556,-1.06917 6.66631,-1.54965 2.40621,-0.60661 4.79207,-1.33764 7.26166,-1.64895 1.91539,-0.34834 3.84014,-0.70734 5.70623,-1.26553 2.12815,-0.64482 4.31854,-1.03027 6.44883,-1.66852 2.7698,-0.79994 5.57613,-1.46269 8.35996,-2.21194 2.53713,-0.76967 5.05765,-1.58986 7.53215,-2.54539 2.41782,-0.90403 4.90851,-1.68943 7.11407,-3.06239 2.19232,-1.43452 4.40903,-2.82637 6.64463,-4.19124 1.69077,-1.12866 3.37851,-2.25787 4.97608,-3.51875 1.39947,-0.99798 2.92309,-1.80058 4.27752,-2.86148 1.33294,-1.08063 2.54024,-2.31541 3.8155,-3.46197 1.41433,-1.65244 2.99223,-3.15079 4.51802,-4.69934 1.32892,-1.37833 2.72175,-2.725 3.80981,-4.30631 1.64427,-2.36704 3.26122,-4.74995 4.88255,-7.13226 1.41889,-1.95437 2.90933,-3.85242 4.24604,-5.86472 0.89043,-1.34132 1.90872,-2.57596 2.80168,-3.91361 0.92382,-1.64126 1.87489,-3.26108 2.62764,-4.99156 0.85959,-1.74212 1.5909,-3.54169 2.55484,-5.22763 1.1091,-1.73926 2.47265,-3.29447 4.05201,-4.63186 0.90697,-0.8777 0.49408,-0.50193 1.21793,-1.13742 0.39986,-0.35105 0.35113,-0.18955 0.41565,0.29515 0.23999,0.61478 0.16025,0.54891 0.7548,1.15266 0.0417,0.0424 0.20334,0.10607 0.16902,0.0575 -0.28231,-0.3997 -1.03855,-0.45666 -1.40948,-0.6868 -2.2303,-0.78845 -4.33067,-1.89269 -6.32551,-3.16161 -2.32147,-1.61259 -4.30735,-3.6202 -6.64198,-5.20091 -1.7949,-1.21193 -3.89422,-1.91014 -5.793,-2.94472 -2.542,-1.1545 -5.13547,-2.19665 -7.75995,-3.14904 -4.25303,-1.63479 -8.53489,-3.20366 -12.89422,-4.5345 -3.28224,-0.94335 -6.55765,-1.9961 -9.97624,-2.31305 -2.23493,-0.30151 -4.47065,-0.52048 -6.72717,-0.57914 -2.80953,-0.1062 -5.62109,-0.0682 -8.42317,0.18903 -6.65347,0.61085 -13.24056,1.72266 -19.83297,2.79138 -8.11418,1.43456 -16.25051,2.75744 -24.3217,4.42313 -5.265232,1.20524 -10.534817,2.40026 -15.66235,4.12131 -3.621729,1.15227 -7.156183,2.64236 -10.54516,4.35723 -2.794394,1.46412 -5.60942,2.96516 -8.009726,5.03828 -2.452517,2.29764 -5.052216,4.44758 -7.218362,7.03044 -2.826451,3.17663 -5.619311,6.38646 -8.156343,9.80329 -3.146379,4.3192 -6.240394,8.68143 -9.158682,13.15844 -2.289894,3.44987 -4.513874,6.94212 -6.635422,10.49856 -1.375663,2.54753 -2.987477,4.95938 -4.269651,7.55727 -1.077507,2.27563 -2.08027,4.58394 -2.677208,7.03988 -0.482329,2.07976 -1.12521,4.11308 -1.052188,6.27732 -0.2494,4.53883 -6.668289,4.18612 -6.418889,-0.35271 z"
       inkscape:connector-curvature="0" />
    <path
       style="fill:#000000;fill-opacity:1;stroke:none"
       id="path3107"
       d="m 111.91317,903.05903 c -1.73795,0.86499 -3.30608,2.01613 -4.88649,3.13182 -1.43327,0.85546 -2.87046,1.66532 -4.09558,2.80568 -1.34035,1.24094 -2.37103,2.75889 -3.519828,4.16796 -1.178293,1.57287 -2.404852,3.10792 -3.575163,4.6867 -1.160084,1.82043 -2.366903,3.61394 -3.522274,5.43709 -0.852846,1.34086 -1.415558,2.78993 -1.940029,4.27715 -0.561292,1.55875 -0.780917,3.20484 -0.960326,4.84288 -0.172159,1.83048 -0.269928,3.66683 -0.369854,5.50234 0.09528,0.79146 0.151696,1.8022 0.618235,2.48817 0.443767,1.0132 1.140429,1.88 1.730259,2.82044 0.800341,1.42189 1.601824,2.83313 2.269098,4.32747 0.584382,1.10716 1.177164,2.20477 1.795797,3.29197 0.618834,1.00601 1.573691,1.68529 2.45099,2.45688 1.200955,0.94275 2.538045,1.70794 3.882275,2.42767 1.43899,0.68133 2.91618,1.11815 4.47999,1.3863 3.03393,0.38907 6.03192,1.07147 9.00031,1.80305 1.9441,0.53606 3.90108,1.01442 5.89952,1.29184 1.36791,0.005 2.68792,-0.15768 4.0022,-0.52686 2.00526,-0.54576 4.06805,-0.91781 6.03519,-1.59366 1.71195,-0.54672 3.41702,-1.11599 5.03527,-1.90659 1.55085,-0.60678 2.87317,-1.61753 4.29264,-2.46353 1.2612,-0.67693 2.38182,-1.53159 3.39101,-2.5384 0.98305,-1.11626 1.76203,-2.38141 2.58675,-3.61183 0.8495,-0.8862 1.29112,-1.91958 1.71636,-3.04573 0.43476,-1.22176 0.60185,-2.50888 0.7339,-3.79178 0.0188,-1.37022 0.3674,-2.77955 0.19947,-4.14585 -0.10253,-1.27449 -0.48851,-2.49283 -0.83533,-3.71703 -0.37527,-1.67109 -0.81307,-3.32774 -1.08542,-5.02016 -0.35804,-1.20363 -0.70251,-2.43748 -1.2419,-3.57708 -0.87119,-1.7902 -1.45208,-3.68917 -1.96548,-5.6064 -0.34826,-1.85102 -1.0222,-3.61887 -1.77174,-5.33983 -0.80987,-2.01503 -1.78174,-3.95433 -2.9549,-5.78102 -0.73614,-1.06028 -1.43225,-2.24058 -2.6862,-2.7212 -0.99392,-0.2917 -2.03791,-0.34085 -3.06563,-0.40676 -1.41001,-0.0758 -2.82076,-0.1368 -4.2311,-0.20595 -1.43256,-0.0712 -2.86479,-0.1488 -4.29699,-0.2268 -1.57656,-0.0524 -3.09539,-0.52402 -4.64109,-0.79709 -1.29633,-0.21043 -2.6077,-0.30059 -3.91684,-0.38741 -0.92918,-0.0566 -0.46345,-0.029 -1.3972,-0.0826 -4.53821,-0.26066 -4.16958,-6.67866 0.36868,-6.41799 l 0,0 c 0.96789,0.0556 0.48289,0.0269 1.45497,0.0862 1.54488,0.10292 3.0918,0.21615 4.62022,0.47331 1.28804,0.23183 2.55677,0.61782 3.8606,0.70652 1.42072,0.0773 2.84148,0.15433 4.26255,0.22501 1.44458,0.0709 2.8896,0.13287 4.33376,0.21181 1.85457,0.12219 3.72657,0.28456 5.45217,1.03697 2.26564,1.16678 3.97754,2.8666 5.30276,5.05005 1.34948,2.12867 2.5061,4.36561 3.44426,6.70739 0.85063,2.01243 1.66357,4.0624 2.07438,6.21711 0.41656,1.57981 0.88638,3.14259 1.6118,4.61304 0.73863,1.67748 1.32647,3.44071 1.73391,5.22671 0.21691,1.43966 0.62474,2.84002 0.91968,4.26411 0.47099,1.66284 0.94901,3.33283 1.06607,5.06658 0.075,1.7426 -0.0761,3.48069 -0.2217,5.21776 -0.19546,1.84207 -0.47676,3.68187 -1.12628,5.42704 -0.60365,1.55413 -1.26307,3.1065 -2.40163,4.3559 -1.084,1.55395 -2.05289,3.20313 -3.38602,4.57148 -1.39498,1.36747 -2.92311,2.56402 -4.64373,3.50225 -1.58354,0.91677 -3.04285,2.05862 -4.76884,2.71786 -1.87483,0.89273 -3.82356,1.59194 -5.80167,2.21645 -2.09601,0.67828 -4.24899,1.15909 -6.38411,1.69837 -2.15046,0.56449 -4.34331,0.85009 -6.57164,0.68533 -2.21607,-0.31591 -4.39448,-0.81576 -6.55032,-1.41806 -2.82565,-0.7063 -5.68492,-1.34294 -8.57529,-1.71274 -2.23313,-0.40555 -4.37134,-1.051 -6.412363,-2.05987 -1.765249,-0.95959 -3.522516,-1.96932 -5.072695,-3.25668 -1.412455,-1.24227 -2.854644,-2.45543 -3.798387,-4.1146 -0.719604,-1.2768 -1.425826,-2.55813 -2.085206,-3.86829 -0.529251,-1.22519 -1.195066,-2.37085 -1.847858,-3.52905 -0.727791,-1.19053 -1.609414,-2.29353 -2.140402,-3.59381 -0.71858,-1.73901 -1.23008,-3.55231 -1.166046,-5.4559 0.106478,-1.95515 0.211309,-3.91123 0.399436,-5.86061 0.237664,-2.12531 0.556928,-4.25249 1.287292,-6.2734 0.688547,-1.95184 1.478057,-3.84414 2.587297,-5.60316 1.250627,-1.94131 2.508228,-3.87951 3.778546,-5.80831 1.23412,-1.65585 2.514671,-3.27489 3.75945,-4.92288 1.349536,-1.64077 2.555206,-3.41337 4.151852,-4.83625 1.440644,-1.30642 3.025724,-2.38646 4.733024,-3.31902 1.72295,-1.21397 3.43756,-2.46233 5.32463,-3.41495 3.91489,-2.31018 7.18198,3.2263 3.26709,5.53648 z"
       inkscape:connector-curvature="0" />
    <path
       style="fill:#000000;fill-opacity:1;stroke:none"
       id="path3127"
       d="m 133.93552,909.88533 c -1.40572,3.07417 -2.64464,6.22189 -3.86268,9.37423 -1.9021,4.29724 -3.84251,8.57482 -5.65139,12.91355 -1.82226,4.71949 -3.51023,9.48405 -5.46018,14.15425 -1.27222,2.83337 -2.46507,5.70174 -3.80717,8.50321 -1.9684,4.0974 -7.76299,1.31366 -5.79459,-2.78374 l 0,0 c 1.30031,-2.698 2.43558,-5.47051 3.67041,-8.1985 1.9528,-4.66721 3.62363,-9.43629 5.45812,-14.1493 1.78757,-4.28646 3.69367,-8.51786 5.58839,-12.75671 1.19039,-3.08006 2.38227,-6.16955 3.78406,-9.15952 1.48673,-4.29569 7.56175,-2.19315 6.07503,2.10253 z"
       inkscape:connector-curvature="0" />
    <path
       style="fill:#000000;fill-opacity:1;stroke:none"
       id="path3131"
       d="m 97.452764,919.63154 c 2.600756,0.35875 5.145216,1.0996 7.632506,1.92751 2.77218,1.01759 5.52173,2.10184 8.33071,3.01515 2.65317,0.76261 5.17775,1.87343 7.76841,2.80882 2.26015,0.81022 4.55237,1.52474 6.83045,2.2811 2.48144,0.70847 4.80382,1.83712 7.19137,2.79677 2.12626,0.87656 4.29692,1.62223 6.4592,2.39891 1.64144,0.5554 3.1709,1.38131 4.79348,1.98432 0.84876,0.2611 0.42136,0.14831 1.28202,0.33912 4.42436,1.0432 2.94904,7.30019 -1.47532,6.25699 l 0,0 c -1.43287,-0.34965 -0.7422,-0.15347 -2.07423,-0.58073 -1.5923,-0.60629 -3.11203,-1.37888 -4.71477,-1.95522 -2.22732,-0.81526 -4.47629,-1.56889 -6.66943,-2.47924 -2.26583,-0.91206 -4.46749,-1.98794 -6.82231,-2.66128 -2.33078,-0.77778 -4.67916,-1.50397 -6.99153,-2.33708 -2.52402,-0.91823 -4.98605,-1.99673 -7.57284,-2.74146 -2.82121,-0.92468 -5.59225,-1.99293 -8.37375,-3.02937 -1.94623,-0.65422 -3.931097,-1.21214 -5.946671,-1.60542 -4.538839,-0.2494 -4.186134,-6.66829 0.352705,-6.41889 z"
       inkscape:connector-curvature="0" />
    <path
       style="fill:#000000;fill-opacity:1;stroke:none"
       id="path3135"
       d="m 17.49621,927.41806 c 0.577643,-1.90167 1.106557,-3.81569 1.732519,-5.70208 0.415121,-1.78641 1.134963,-3.44603 2.012054,-5.04956 0.904489,-1.66158 1.93494,-3.23965 3.118925,-4.71582 1.381888,-1.42487 2.478854,-3.06971 3.65778,-4.65357 1.22022,-1.82778 2.727871,-3.42637 4.205167,-5.04279 1.265497,-1.36523 2.441507,-2.80895 3.666849,-4.21016 1.551165,-1.65387 3.176502,-3.24422 4.928511,-4.68439 1.296906,-1.04583 2.556174,-2.15252 3.947943,-3.07046 1.483334,-0.92108 2.994432,-1.7917 4.518407,-2.64317 1.300564,-0.99185 2.782011,-1.68619 4.244859,-2.39636 1.574636,-1.00346 3.082303,-2.12918 4.64726,-3.15913 2.166284,-1.36765 4.408131,-2.64784 6.724277,-3.74793 1.582656,-0.93751 3.272362,-1.6513 4.926127,-2.44214 1.561207,-0.79503 3.141121,-1.55648 4.704645,-2.34903 1.233501,-0.67427 2.593123,-1.12825 3.804427,-1.83907 1.66238,-0.95934 3.348648,-1.87442 5.045008,-2.7722 1.662023,-0.9009 3.396396,-1.62405 5.12872,-2.37322 1.951415,-0.67016 3.931608,-1.25755 5.900281,-1.87786 2.465871,-0.76972 5.013279,-1.16988 7.546391,-1.6321 2.05286,-0.32573 4.09758,-0.71085 6.15858,-0.98092 2.55425,-0.42041 5.12225,-0.72821 7.68109,-1.12722 2.5937,-0.49558 5.18469,-1.01274 7.7879,-1.45672 2.05071,-0.25722 4.1126,-0.4001 6.17059,-0.60096 1.98811,-0.20093 3.96511,-0.46971 5.96185,-0.5913 1.75912,0.0317 3.4983,-0.20295 5.24729,-0.34924 1.89948,-0.14412 3.8058,-0.071 5.70624,0.009 2.24878,0.10629 4.49643,0.23489 6.7442,0.36039 1.8576,0.10408 3.71523,0.20735 5.5729,0.30993 2.35191,0.12965 4.70385,0.25885 7.05578,0.38808 2.21158,0.12152 4.42317,0.24302 6.63474,0.36454 2.12326,0.11666 4.24652,0.23333 6.36976,0.35 1.75046,0.0962 3.50091,0.19236 5.25136,0.28855 1.59805,0.0905 3.19512,0.12652 4.77778,0.37078 1.56432,0.34478 3.13244,0.64965 4.68355,1.05077 0.25865,0.0626 0.5173,0.12516 0.77595,0.18775 4.41768,1.07111 2.90291,7.31866 -1.51478,6.24755 l 0,0 c -0.29056,-0.0706 -0.58112,-0.14115 -0.87167,-0.21173 -1.38609,-0.35894 -2.78746,-0.62586 -4.18394,-0.94248 -1.29746,-0.31776 -2.7007,-0.0955 -4.01959,-0.28375 -1.75045,-0.0962 -3.5009,-0.19237 -5.25135,-0.28855 -2.12325,-0.11667 -4.2465,-0.23334 -6.36974,-0.35 -2.2116,-0.12151 -4.42319,-0.24302 -6.63479,-0.36454 -2.3525,-0.12926 -4.70501,-0.25849 -7.05749,-0.38818 -1.85899,-0.10265 -3.71793,-0.20589 -5.57682,-0.31014 -2.2186,-0.12391 -4.43708,-0.25082 -6.65664,-0.35605 -1.63268,-0.0691 -3.27065,-0.1404 -4.90302,-0.0251 -1.7975,0.14829 -3.58809,0.38721 -5.39554,0.35984 -1.91697,0.11242 -3.81309,0.38628 -5.72243,0.57247 -1.90632,0.18554 -3.81533,0.32722 -5.71717,0.54041 -2.63262,0.44557 -5.2505,0.97844 -7.87463,1.47085 -2.61646,0.40785 -5.24198,0.72008 -7.85348,1.15172 -1.95203,0.24323 -3.88522,0.63064 -5.82924,0.92996 -2.27055,0.40965 -4.553626,0.76018 -6.766087,1.43951 -1.762571,0.55239 -3.525557,1.10355 -5.28878,1.65099 -1.577224,0.6749 -3.155785,1.31976 -4.661728,2.14975 -1.669543,0.88278 -3.327708,1.78449 -4.963554,2.72837 -1.319223,0.70093 -2.694609,1.28918 -4.031031,1.95735 -1.616768,0.7933 -3.222023,1.60004 -4.830338,2.4098 -1.660113,0.77153 -3.326174,1.51967 -4.916195,2.43746 -2.05057,0.96128 -4.024033,2.10587 -5.93978,3.30787 -1.798499,1.17901 -3.501063,2.51253 -5.372076,3.57063 -1.355358,0.6565 -2.70728,1.30723 -3.9146,2.22423 -1.423049,0.79477 -2.83506,1.60528 -4.219912,2.46568 -1.228059,0.66605 -2.184687,1.82839 -3.327578,2.62486 -1.488881,1.18849 -2.819705,2.56717 -4.146456,3.93072 -1.257901,1.43364 -2.460615,2.91502 -3.758712,4.31281 -1.338344,1.46282 -2.711291,2.90145 -3.807613,4.56333 -1.240093,1.63312 -2.359218,3.36218 -3.800894,4.83724 -0.964041,1.17834 -1.774794,2.45892 -2.498289,3.7961 -0.713114,1.24947 -1.201778,2.54759 -1.529924,3.95182 -0.542957,1.63572 -0.979909,3.30017 -1.529351,4.93408 -0.888782,4.45795 -7.193277,3.20102 -6.304495,-1.25693 z"
       inkscape:connector-curvature="0" />
    <path
       style="fill:#000000;fill-opacity:1;stroke:none"
       id="path3143"
       d="m 30.049379,865.44917 c 3.385628,2.59626 6.958754,4.93151 10.486087,7.32786 2.346835,1.70319 4.727255,3.35713 7.110066,5.00913 3.735675,2.58998 0.07289,7.87302 -3.662786,5.28304 l 0,0 c -2.366082,-1.64045 -4.730957,-3.28131 -7.059828,-4.97465 -3.666161,-2.49069 -7.379621,-4.91911 -10.891451,-7.62712 -3.548444,-2.84109 0.469463,-7.85935 4.017912,-5.01826 z"
       inkscape:connector-curvature="0" />
    <path
       style="fill:#000000;fill-opacity:1;stroke:none"
       id="path3145"
       d="m 70.959792,843.98331 c 1.592406,2.01737 2.808749,4.30278 3.747169,6.68727 0.739142,1.96084 1.532591,3.9035 2.160107,5.9037 0.28323,0.94434 0.414725,1.95093 0.806889,2.85932 1.60417,4.25322 -4.410795,6.52186 -6.014965,2.26864 l 0,0 c -0.377979,-1.05565 -0.696127,-2.12878 -0.932786,-3.22629 -0.567338,-1.86682 -1.34694,-3.66264 -2.017707,-5.49345 -0.707284,-1.89793 -1.726796,-3.67496 -2.981351,-5.26476 -2.640641,-3.70003 2.592002,-7.43446 5.232644,-3.73443 z"
       inkscape:connector-curvature="0" />
    <path
       style="fill:#000000;fill-opacity:1;stroke:none"
       id="path3147"
       d="m 111.83807,835.70621 c -0.16555,3.01291 -0.3311,6.02582 -0.49666,9.03873 -0.053,0.96477 -0.10602,1.92954 -0.15904,2.89432 -0.2494,4.53884 -6.66828,4.18613 -6.41888,-0.35271 l 0,0 c 0.053,-0.96477 0.10602,-1.92954 0.15904,-2.89432 0.16555,-3.0129 0.3311,-6.02581 0.49666,-9.03872 0.2494,-4.53884 6.66828,-4.18614 6.41888,0.3527 z"
       inkscape:connector-curvature="0" />
    <path
       style="fill:#000000;fill-opacity:1;stroke:none"
       id="path3149"
       d="m 157.96249,830.60217 c 0.29994,3.40202 -0.0914,6.79025 -0.63611,10.14402 -0.45709,2.57507 -1.22109,5.05614 -2.08891,7.5147 -0.48841,1.15501 -0.25927,0.61804 -0.68604,1.61149 -1.79421,4.17661 -7.70083,1.63922 -5.90662,-2.53739 l 0,0 c 0.37364,-0.86975 0.19577,-0.4651 0.53107,-1.21506 0.74189,-2.09929 1.41129,-4.20846 1.80576,-6.40856 0.46927,-2.86439 0.83314,-5.75535 0.56785,-8.66301 -0.31549,-4.53472 6.09757,-4.98091 6.41307,-0.44618 z"
       inkscape:connector-curvature="0" />
    <path
       style="fill:#000000;fill-opacity:1;stroke:none"
       id="path3151"
       d="m 29.84224,1009.4299 c 1.414821,2.3966 3.447561,4.1773 5.743492,5.6903 3.000827,2.2575 6.403722,3.5137 10.030052,4.3092 0.502276,0.088 1.004548,0.176 1.506821,0.2641 4.475854,0.7937 3.353358,7.1235 -1.122496,6.3298 l 0,0 c -0.594722,-0.1065 -1.189442,-0.2131 -1.784161,-0.3196 -4.396292,-0.9942 -8.56279,-2.5433 -12.221385,-5.2515 -3.099424,-2.1203 -5.763962,-4.4841 -7.688807,-7.7552 -2.310181,-3.9149 3.226303,-7.182 5.536484,-3.2671 z"
       inkscape:connector-curvature="0" />
    <path
       style="fill:#000000;fill-opacity:1;stroke:none"
       id="path3153"
       d="m 51.0902,1005.0013 c 0.22152,2.1492 0.66588,2.8115 2.411291,3.9682 0.750747,0.4959 1.559212,0.7613 2.431586,0.9221 4.418851,1.0663 2.910856,7.3155 -1.507994,6.2492 l 0,0 c -1.681621,-0.4466 -3.289081,-0.9521 -4.72446,-1.9867 -3.330813,-2.5557 -4.591122,-4.503 -5.023491,-8.7066 -0.315499,-4.5348 6.097569,-4.9809 6.413068,-0.4462 z"
       inkscape:connector-curvature="0" />
    <path
       style="fill:#000000;fill-opacity:1;stroke:none"
       id="path3155"
       d="m 220.20796,959.52472 c -0.14816,2.04205 -0.10186,4.10154 -0.52193,6.11682 -0.30458,1.46122 -0.74013,2.64238 -1.20798,4.04257 -0.73064,2.06554 -0.33558,1.05797 -1.18051,3.0245 -1.81553,4.16739 -7.70911,1.59985 -5.89358,-2.56754 l 0,0 c 0.67101,-1.51096 0.33364,-0.67929 0.98127,-2.50732 0.22808,-0.67201 0.77966,-2.23432 0.94487,-2.95593 0.4134,-1.8056 0.29555,-3.67278 0.45898,-5.5058 0.2494,-4.53885 6.66828,-4.18614 6.41888,0.3527 z"
       inkscape:connector-curvature="0" />
    <path
       style="fill:#000000;fill-opacity:1;stroke:none"
       id="path3157"
       d="m 236.00769,946.48727 c 0.18214,3.74909 0.1309,7.50613 -0.12995,11.24912 -0.30008,2.66058 -0.74022,5.36152 -1.81234,7.83968 -1.28285,2.96523 -3.23657,5.43824 -5.24122,7.92923 -2.8605,3.53282 -7.85666,-0.51253 -4.99616,-4.04536 l 0,0 c 1.51611,-1.8589 3.14402,-3.75167 4.15227,-5.95702 0.89367,-1.95477 1.23499,-4.11113 1.48516,-6.22379 0.25181,-3.4416 0.28027,-6.89767 0.12917,-10.34568 -0.3155,-4.53472 6.09757,-4.98091 6.41307,-0.44618 z"
       inkscape:connector-curvature="0" />
  </g>
</svg>
