<?xml version="1.0" encoding="UTF-8" standalone="no"?>
<!-- Created with Inkscape (http://www.inkscape.org/) -->

<svg
   xmlns:dc="http://purl.org/dc/elements/1.1/"
   xmlns:cc="http://creativecommons.org/ns#"
   xmlns:rdf="http://www.w3.org/1999/02/22-rdf-syntax-ns#"
   xmlns:svg="http://www.w3.org/2000/svg"
   xmlns="http://www.w3.org/2000/svg"
   xmlns:sodipodi="http://sodipodi.sourceforge.net/DTD/sodipodi-0.dtd"
   xmlns:inkscape="http://www.inkscape.org/namespaces/inkscape"
   width="250"
   height="250"
   id="svg2"
   version="1.1"
   inkscape:version="0.48.5 r10040"
   sodipodi:docname="service.svg">
  <defs
     id="defs4" />
  <sodipodi:namedview
     id="base"
     pagecolor="#ffffff"
     bordercolor="#666666"
     borderopacity="1.0"
     inkscape:pageopacity="0.0"
     inkscape:pageshadow="2"
     inkscape:zoom="1.4"
     inkscape:cx="192.31256"
     inkscape:cy="123.11395"
     inkscape:document-units="px"
     inkscape:current-layer="layer1"
     showgrid="false"
     inkscape:window-width="1366"
     inkscape:window-height="745"
     inkscape:window-x="-8"
     inkscape:window-y="-8"
     inkscape:window-maximized="1" />
  <metadata
     id="metadata7">
    <rdf:RDF>
      <cc:Work
         rdf:about="">
        <dc:format>image/svg+xml</dc:format>
        <dc:type
           rdf:resource="http://purl.org/dc/dcmitype/StillImage" />
        <dc:title></dc:title>
      </cc:Work>
    </rdf:RDF>
  </metadata>
  <g
     inkscape:label="Layer 1"
     inkscape:groupmode="layer"
     id="layer1"
     transform="translate(0,-802.36218)">
    <path
       style="fill:#000000;fill-opacity:1;stroke:none"
       id="path3163"
       d="m 96.136276,68.596743 c -1.41936,-1.113432 -2.938612,-1.940512 -4.645507,-2.502142 -2.440946,-0.846512 -4.934281,-1.509505 -7.493424,-1.866825 -2.813978,-0.322034 -5.653308,-0.300593 -8.48148,-0.31477 -3.000998,-0.0064 -6.002,0.0028 -9.00299,0.0094 -0.242532,0.02507 -0.490573,0.01803 -0.727596,0.07522 -0.335337,0.08091 -3.047384,2.527088 -3.343117,2.780002 -2.257709,2.023876 -4.526325,4.031887 -6.770882,6.069559 -1.773544,1.712305 -3.407576,3.556056 -4.91281,5.506792 -1.618629,1.862259 -2.792451,3.996282 -3.799344,6.231971 -1.006281,2.192658 -1.697596,4.484034 -2.268395,6.822154 -0.539666,2.362186 -0.661579,4.781715 -0.736454,7.19432 -0.185404,2.361869 0.125261,4.673979 0.707634,6.958499 0.659078,2.36355 1.684005,4.59354 2.467945,6.91276 0.654506,2.35599 1.495458,4.65802 2.322511,6.9583 0.681152,2.31728 1.477605,4.60131 2.15364,6.9203 0.869867,2.21951 1.706896,4.4558 2.613349,6.66239 0.924352,2.61475 2.138839,5.10673 3.163474,7.68199 0.645219,2.38508 1.549415,4.63997 2.589315,6.87589 1.02795,1.89429 2.067485,3.78797 3.191609,5.62821 1.257132,2.30818 2.497328,4.63301 3.666961,6.98902 1.326491,2.50269 2.851122,4.88639 4.043491,7.45817 0.982926,2.18235 2.087013,4.30649 3.118261,6.46619 0.994982,1.72621 1.848309,3.52565 2.899833,5.2192 1.350799,2.1406 2.799968,4.21786 4.278678,6.27202 1.634089,2.21508 3.415356,4.33619 5.39235,6.25348 1.693169,1.51575 3.169477,3.21087 4.592771,4.97681 1.043758,1.44886 2.289772,2.63248 3.711667,3.6895 1.512532,1.2166 3.133369,2.2866 4.901727,3.09318 2.123937,0.998 4.276797,1.9295 6.416797,2.89213 1.65883,0.76381 3.3049,1.6272 5.08922,2.05853 1.65705,0.34412 3.35768,0.3447 5.04244,0.37019 1.98763,0.0147 3.97535,0.003 5.963,-0.003 1.30295,0.0992 2.47743,-0.2331 3.63783,-0.76579 1.5075,-0.56572 2.83739,-1.46444 4.17231,-2.34397 2.10245,-1.35419 3.95616,-3.02512 5.89136,-4.59572 2.10798,-1.59093 3.93531,-3.39644 5.66006,-5.38302 1.94776,-2.42177 3.67387,-5.01133 5.44794,-7.56051 2.28464,-3.26404 4.79737,-6.35684 7.14354,-9.57598 2.41414,-3.14846 4.65544,-6.42339 7.08842,-9.55979 2.10047,-2.69829 4.61378,-5.07831 6.44944,-7.97338 1.7689,-2.86777 3.42903,-5.79738 5.10975,-8.71662 1.64438,-3.327 3.17537,-6.71419 4.73101,-10.08576 1.77064,-3.72584 3.40185,-7.51335 4.89516,-11.35812 1.49824,-3.7317 2.26472,-7.69262 3.32234,-11.55987 0.80851,-3.15965 1.56286,-6.33677 2.01338,-9.56908 0.33307,-2.83394 0.35785,-5.69168 0.38183,-8.54137 0.0453,-2.933915 -0.27883,-5.859043 -0.69292,-8.75899 -0.39377,-2.627216 -1.12843,-5.177222 -1.80968,-7.738299 -0.56765,-2.341281 -1.55118,-4.506957 -2.63815,-6.641369 -1.44703,-2.323941 -3.12963,-4.48939 -4.89745,-6.575774 -1.87628,-2.033982 -3.89139,-3.940894 -6.10951,-5.599305 -1.49476,-1.224172 -3.20721,-2.194232 -4.98356,-2.949496 -1.2858,-0.477844 -2.56403,-0.930774 -3.9219,-1.144356 -1.82352,-0.177472 -3.66004,-0.159677 -5.49026,-0.166168 -2.16242,-0.0021 -4.32484,0.0047 -6.48725,0.0081 -2.00065,0.0029 -4.0013,0.0034 -6.00195,0.0038 -1.67628,2.06e-4 -3.35255,1.46e-4 -5.02883,1.14e-4 -1.18106,0.236593 -2.18644,1.089599 -3.19094,1.73809 -1.65979,1.107611 -3.19656,2.380434 -4.74697,3.631677 -1.46725,1.277654 -3.11471,2.32972 -4.52439,3.672124 -1.54891,1.534115 -3.1046,3.073453 -4.62274,4.642942 -1.08443,1.135664 -2.11285,2.318577 -3.10903,3.531497 -1.0573,1.404706 -2.19709,2.741846 -3.3116,4.101272 -1.47066,2.015235 -3.90182,3.3457 -6.42766,2.372462 -0.65426,-0.252097 -1.20814,-0.71193 -1.81221,-1.067895 -2.01622,-1.775032 -3.36453,-4.021543 -4.62799,-6.349076 -0.73722,-1.668053 -1.74752,-3.181574 -2.74221,-4.701836 -0.59566,-1.113427 -1.33007,-2.099567 -2.21965,-2.986869 -0.143373,-0.115133 -0.286747,-0.230266 -0.43012,-0.3454 -3.477855,-2.927079 0.661661,-7.845508 4.13952,-4.918429 l 0,0 c 0.28353,0.24417 0.56707,0.488339 0.85061,0.732509 1.18657,1.201456 2.22678,2.516113 3.04139,4.002036 1.0875,1.666615 2.19371,3.329195 3.01032,5.151126 0.81524,1.501892 1.61556,2.975659 2.78834,4.238211 -1.39397,0.212583 -1.96997,1.5594 -0.53003,-0.216831 1.12271,-1.35547 2.25539,-2.69891 3.31482,-4.105173 1.11372,-1.342587 2.24949,-2.665469 3.46017,-3.922855 1.60118,-1.635673 3.22223,-3.256404 4.84843,-4.863567 1.54839,-1.420203 3.25581,-2.629568 4.87019,-3.971713 1.72767,-1.390017 3.43997,-2.805583 5.29471,-4.027476 2.05375,-1.325214 4.13836,-2.722523 6.67716,-2.765398 1.67587,3.3e-5 3.35173,9.2e-5 5.0276,-1.13e-4 1.99761,-3.45e-4 3.99523,-8.56e-4 5.99284,-0.0038 2.17352,-0.0035 4.34703,-0.01033 6.52056,-0.0081 2.17526,0.0079 4.36071,-0.0143 6.52325,0.253465 1.87282,0.322473 3.66567,0.891955 5.43188,1.591363 2.22805,0.98484 4.39729,2.17009 6.29102,3.713188 2.58266,1.964321 4.97033,4.168873 7.14468,6.578779 2.08209,2.466377 4.07406,5.025561 5.71748,7.809919 1.29191,2.537673 2.43179,5.132853 3.12255,7.907919 0.74421,2.806039 1.53904,5.602282 1.96084,8.481766 0.45774,3.21847 0.80517,6.464829 0.75698,9.720537 -0.0269,3.13156 -0.0624,6.27174 -0.44458,9.38435 -0.49851,3.50055 -1.29095,6.94725 -2.17844,10.36851 -1.11779,4.08066 -1.93135,8.25907 -3.53095,12.19163 -1.54285,3.96712 -3.22251,7.87748 -5.04989,11.72258 -1.63661,3.54707 -3.24008,7.11486 -4.99793,10.60162 -1.74118,3.02013 -3.45742,6.05342 -5.29432,9.01758 -1.99575,3.00617 -4.46082,5.62887 -6.75691,8.40512 -2.3955,3.08396 -4.59587,6.30958 -6.97253,9.40578 -2.32014,3.17972 -4.79652,6.24052 -7.06127,9.46052 -1.90535,2.73733 -3.75955,5.51872 -5.87119,8.10401 -1.97106,2.26781 -4.08429,4.33427 -6.47249,6.16707 -2.10401,1.69154 -4.11224,3.50435 -6.39525,4.96398 -1.61608,1.06473 -3.24341,2.12662 -5.05716,2.83186 -1.99098,0.89316 -4.06934,1.42855 -6.27054,1.33826 -2.02711,0.006 -4.05429,0.0179 -6.08139,0.002 -2.1984,-0.0345 -4.41424,-0.0697 -6.56569,-0.57751 -2.12081,-0.57542 -4.13552,-1.44756 -6.10564,-2.41699 -2.17363,-0.97912 -4.361781,-1.92368 -6.518962,-2.93921 -2.136841,-1.02781 -4.163585,-2.25516 -6.005349,-3.75588 -1.848648,-1.38369 -3.493653,-2.9437 -4.872382,-4.80771 -1.265889,-1.57071 -2.559717,-3.08275 -4.083602,-4.41614 -2.225169,-2.19233 -4.274068,-4.56667 -6.113639,-7.09252 -1.570421,-2.18174 -3.106692,-4.39006 -4.539927,-6.66455 -1.153483,-1.89478 -2.143587,-3.87552 -3.222522,-5.81273 -1.046289,-2.19202 -2.167363,-4.34761 -3.163583,-6.56319 -1.13167,-2.52686 -2.725605,-4.80725 -3.960415,-7.28343 -1.076068,-2.19133 -2.241613,-4.34269 -3.393581,-6.49213 -1.243944,-2.04717 -2.410196,-4.14526 -3.530401,-6.26153 -1.090504,-2.34488 -2.070105,-4.71406 -2.736109,-7.21696 -1.009062,-2.55421 -2.220427,-5.02257 -3.135964,-7.61376 -0.99072,-2.42188 -1.927208,-4.86901 -2.841773,-7.31873 -0.62316,-2.19077 -1.399683,-4.33898 -2.026921,-6.52858 -0.842168,-2.34602 -1.700472,-4.69374 -2.370011,-7.09536 -0.816706,-2.48601 -1.961781,-4.85859 -2.610638,-7.40435 -0.692552,-2.8579 -1.111438,-5.75721 -0.89281,-8.705981 0.09159,-2.862012 0.262726,-5.729862 0.919539,-8.527985 0.673847,-2.719527 1.48807,-5.390088 2.657043,-7.943145 1.225172,-2.682099 2.643721,-5.260738 4.571902,-7.512802 1.742456,-2.239913 3.617212,-4.371856 5.674594,-6.329954 2.293284,-2.078729 4.606595,-4.132226 6.914178,-6.195723 2.426288,-2.071341 4.83171,-4.387279 8.232654,-4.396292 3.016501,-0.0066 6.033015,-0.01591 9.049524,-0.0093 3.123604,0.01589 6.259471,3.85e-4 9.365189,0.380308 2.948607,0.434416 5.834708,1.156019 8.648854,2.144141 2.398164,0.834488 4.594423,1.98407 6.589792,3.567906 3.54959,2.839668 -0.466309,7.859539 -4.015894,5.019871 z"
       inkscape:connector-curvature="0"
       transform="translate(0,802.36218)" />
    <path
       style="fill:#000000;fill-opacity:1;stroke:none"
       id="path3167"
       d="m 14.429232,148.87544 c 3.842728,-0.57218 7.704821,-0.89149 11.583428,-1.09409 6.950052,-0.39969 13.834465,-1.46626 20.761014,-2.12655 10.095606,-1.03079 20.24653,-1.22089 30.36915,-1.85255 7.811333,-0.49773 15.572387,-1.54683 23.280476,-2.88156 1.66033,-0.39538 3.39729,-0.44975 5.03871,-0.93547 0.18473,-0.0547 0.36624,-0.12846 0.53081,-0.22861 0.0288,-0.0175 0.0423,-0.11015 0.01,-0.10049 -0.15268,0.0458 -0.2816,0.14942 -0.4224,0.22412 -0.0487,0.0239 -0.10669,0.10879 -0.14611,0.0716 -0.0549,-0.0519 -0.0185,-0.15049 -0.0174,-0.22606 0.003,-0.20897 0.0234,-0.41737 0.0299,-0.62626 0.0379,-1.22531 0.0334,-2.44171 0.0943,-3.66746 0.29536,-3.49617 0.65945,-6.99354 1.08972,-10.47669 0.28685,-2.86949 0.87794,-5.69366 1.24916,-8.55076 0.35061,-1.7848 -0.0137,-3.7825 0.74024,-5.48773 0.23416,-0.52959 0.58852,-0.9974 0.88277,-1.4961 0.83548,-0.42022 1.57208,-1.22111 2.50645,-1.26066 3.65681,-0.15477 5.15362,4.44101 6.45811,6.97415 1.81281,3.8719 3.16783,7.93684 4.26153,12.06382 0.80146,3.40342 1.64553,6.79452 2.51946,10.18015 0.6687,2.86313 1.55311,5.66971 2.20593,8.53588 0.40379,2.37443 0.68466,4.7651 1.03988,7.14781 0.25691,2.04176 0.66784,4.05761 0.91548,6.10154 0.44213,2.11798 0.66992,4.26516 0.81493,6.421 0.0406,0.32556 0.0789,0.65141 0.12178,0.97668 0.0924,0.70151 0.15452,1.40823 0.28841,2.10302 0.018,0.0932 0.15243,0.34742 0.10996,0.26257 -1.12633,-2.25041 0.019,-1.01703 -4.27767,-1.69361 -0.284,0.24159 -0.50864,0.5794 -0.85199,0.72476 -0.11429,0.0484 -0.001,-0.24938 0.0185,-0.37188 0.0666,-0.40909 0.16973,-0.81157 0.24084,-1.21991 0.32188,-1.84853 0.5859,-3.70941 0.8957,-5.56026 0.75608,-4.81461 1.07996,-9.67053 1.98952,-14.46185 0.5077,-2.72417 1.15041,-5.40526 1.90968,-8.06731 0.30358,-1.27945 0.4007,-2.58635 0.66563,-3.87528 1.06852,-3.94218 4.52457,-4.31608 7.99269,-4.61782 4.99228,-0.22719 9.99316,-0.17122 14.98933,-0.16675 5.30407,0.008 10.60813,0.0174 15.9122,0.0224 3.9201,0.003 7.8402,0.004 11.76029,0.004 4.07647,6e-5 8.15294,-4e-5 12.22941,-1e-4 2.36901,-4e-5 4.73802,-6e-5 7.10703,-7e-5 1.64453,-1e-5 3.28906,0 4.93359,0 1.61733,0 3.23466,0 4.85199,0 1.89039,0 3.78078,0 5.67117,0 1.93387,0 3.86774,0 5.80161,0 1.48226,0 2.96452,0 4.44678,0 1.42407,0 2.84815,0 4.27222,0 4.54568,0 4.54568,6.42857 0,6.42857 l 0,0 c -1.42407,0 -2.84815,0 -4.27222,0 -1.48226,0 -2.96452,0 -4.44678,0 -1.93387,0 -3.86774,0 -5.80161,0 -1.89039,0 -3.78078,0 -5.67117,0 -1.61733,0 -3.23466,0 -4.85199,0 -1.64452,0 -3.28905,0 -4.93357,0 -2.36898,1e-5 -4.73797,3e-5 -7.10695,7e-5 -4.07661,6e-5 -8.15321,1.7e-4 -12.22981,1e-4 -3.92203,-1.8e-4 -7.84405,-4.9e-4 -11.76608,-0.004 -5.30396,-0.005 -10.60791,-0.0143 -15.91187,-0.0224 -4.81846,-0.004 -9.64083,-0.0545 -14.45618,0.14508 -4.72927,0.35937 1.27689,-0.12177 -2.19477,0.21781 -0.11078,0.0108 -0.3163,0.11098 -0.33393,0.001 -0.0263,-0.16417 0.19732,-0.27045 0.26645,-0.42167 0.55591,-1.21604 0.0453,-0.29872 0.0378,-0.2857 -0.29964,1.44155 -0.36262,2.91954 -0.77976,4.33979 -0.70832,2.47801 -1.30587,4.97263 -1.77707,7.5099 -0.91428,4.73941 -1.17869,9.5556 -1.96332,14.31574 -0.45232,2.70057 -0.26461,1.5414 -0.66053,4.04171 -0.20076,1.2679 -0.39631,3.58627 -0.98965,4.72477 -0.36823,0.70657 -0.93692,1.289 -1.40538,1.9335 -1.45442,-0.0584 -2.98529,0.29362 -4.36328,-0.17533 -1.49952,-0.51031 -1.68742,-5.06534 -1.88132,-6.38055 -0.1345,-2.044 -0.37576,-4.07187 -0.78325,-6.08142 -0.2358,-1.9839 -0.65038,-3.93812 -0.89117,-5.92075 -0.33148,-2.22584 -0.60863,-4.4567 -0.9523,-6.67973 -0.6261,-2.80467 -1.52043,-5.5423 -2.15973,-8.34489 -0.87089,-3.37487 -1.71428,-6.75485 -2.51104,-10.14788 -0.9642,-3.67951 -2.17725,-7.2981 -3.76124,-10.76062 -0.47718,-0.92758 -0.92664,-1.86927 -1.40544,-2.79601 -0.14178,-0.27442 -0.30879,-0.53522 -0.45318,-0.80827 -0.0519,-0.0982 -0.24625,-0.30867 -0.13527,-0.30449 3.30861,0.12459 0.83134,1.14979 3.82025,-0.80072 0.069,-0.20893 0.15462,-0.41306 0.20685,-0.62678 0.0256,-0.10488 -0.10208,0.19299 -0.12655,0.29814 -0.0526,0.22629 -0.0807,0.45807 -0.10317,0.68932 -0.0724,0.74585 -0.0943,1.496 -0.16566,2.24195 -0.0406,0.42408 -0.0903,0.84724 -0.13548,1.27085 -0.37553,2.8426 -0.9518,5.65384 -1.24376,8.50853 -0.41737,3.33076 -0.75526,6.67753 -1.04942,10.02028 -0.15023,2.67745 0.21628,5.46419 -1.17993,7.89042 -0.42023,0.45924 -0.78281,0.97883 -1.26071,1.37771 -2.16426,1.80638 -5.44119,1.5484 -8.0005,2.21797 -7.938728,1.37334 -15.932071,2.45132 -23.976889,2.96328 -10.05304,0.62592 -20.133849,0.81741 -30.160279,1.83611 -7.018305,0.66617 -13.993048,1.75619 -21.036335,2.14679 -3.686044,0.19032 -7.35639,0.48934 -11.007758,1.03813 -4.5,0.64285 -5.4091372,-5.72111 -0.909137,-6.36396 z"
       inkscape:connector-curvature="0"
       transform="translate(0,802.36218)" />
    <path
       style="fill:#000000;fill-opacity:1;stroke:none"
       id="path3179"
       d="m 197.57038,41.52935 c 2.18295,1.656559 4.23883,3.475798 6.35099,5.221215 2.90194,2.595947 5.62614,5.403815 8.09217,8.417245 1.40359,1.720791 0.71944,0.890177 2.05103,2.493017 2.90448,3.496747 -2.04066,7.604307 -4.94515,4.107559 l 0,0 c -1.37014,-1.649807 -0.67179,-0.801682 -2.09396,-2.545264 -2.17891,-2.702093 -4.64041,-5.178269 -7.20052,-7.518184 -2.11769,-1.751895 -4.17976,-3.576097 -6.37003,-5.237023 -3.49209,-2.910077 0.62338,-7.848643 4.11547,-4.938565 z"
       inkscape:connector-curvature="0"
       transform="translate(0,802.36218)" />
    <path
       style="fill:#000000;fill-opacity:1;stroke:none"
       id="path3181"
       d="m 214.47135,35.872677 c 1.72678,2.401346 3.76026,4.556058 5.67123,6.80709 1.88064,2.269172 3.53161,4.703543 4.97114,7.272253 2.21134,3.971557 -3.40529,7.098857 -5.61663,3.1273 l 0,0 c -1.22108,-2.211801 -2.65624,-4.28675 -4.25751,-6.24178 -2.02341,-2.38895 -4.18098,-4.672355 -5.99938,-7.228331 -2.64212,-3.698978 2.58902,-7.435509 5.23115,-3.736532 z"
       inkscape:connector-curvature="0"
       transform="translate(0,802.36218)" />
    <path
       style="fill:#000000;fill-opacity:1;stroke:none"
       id="path3183"
       d="m 36.124564,207.28637 c 0.344525,1.92968 1.194539,3.68876 2.385347,5.22949 1.929991,2.00123 4.573141,3.19007 7.035833,4.41628 1.593028,0.815 3.351038,1.12503 5.070743,1.54755 0.218607,0.0463 0.437215,0.0927 0.655822,0.13905 4.444808,0.95233 3.097997,7.23824 -1.346811,6.2859 l 0,0 c -0.2811,-0.0607 -0.5622,-0.12143 -0.843301,-0.18215 -2.181826,-0.53639 -4.397146,-0.98631 -6.408747,-2.03914 -3.371437,-1.6882 -6.881138,-3.39053 -9.33357,-6.34685 -1.762147,-2.4477 -3.110349,-5.12748 -3.579277,-8.14099 -0.642857,-4.5 5.721104,-5.40914 6.363961,-0.90914 z"
       inkscape:connector-curvature="0"
       transform="translate(0,802.36218)" />
    <path
       style="fill:#000000;fill-opacity:1;stroke:none"
       id="path3185"
       d="m 46.423128,197.70497 c 1.132061,1.53989 2.568344,2.77245 4.04743,3.96087 2.052477,1.58351 4.436922,2.6224 6.872454,3.45758 1.74277,0.61353 0.904178,0.32851 2.514301,0.8594 4.316357,1.42559 2.300259,7.52985 -2.016098,6.10425 l 0,0 c -1.719706,-0.56885 -0.850849,-0.27247 -2.606112,-0.89049 -3.126104,-1.09537 -6.172433,-2.46096 -8.794636,-4.52225 -1.841548,-1.48372 -3.610966,-3.05082 -5.03721,-4.95346 -2.839668,-3.54959 2.180203,-7.56548 5.019871,-4.0159 z"
       inkscape:connector-curvature="0"
       transform="translate(0,802.36218)" />
  </g>
</svg>
