<?xml version="1.0" encoding="UTF-8" standalone="no"?>
<!-- Created with Inkscape (http://www.inkscape.org/) -->

<svg
   xmlns:dc="http://purl.org/dc/elements/1.1/"
   xmlns:cc="http://creativecommons.org/ns#"
   xmlns:rdf="http://www.w3.org/1999/02/22-rdf-syntax-ns#"
   xmlns:svg="http://www.w3.org/2000/svg"
   xmlns="http://www.w3.org/2000/svg"
   xmlns:sodipodi="http://sodipodi.sourceforge.net/DTD/sodipodi-0.dtd"
   xmlns:inkscape="http://www.inkscape.org/namespaces/inkscape"
   width="250"
   height="250"
   id="svg2"
   version="1.1"
   inkscape:version="0.48.5 r10040"
   sodipodi:docname="use.svg">
  <defs
     id="defs4" />
  <sodipodi:namedview
     id="base"
     pagecolor="#ffffff"
     bordercolor="#666666"
     borderopacity="1.0"
     inkscape:pageopacity="0.0"
     inkscape:pageshadow="2"
     inkscape:zoom="1.4"
     inkscape:cx="192.31256"
     inkscape:cy="123.11395"
     inkscape:document-units="px"
     inkscape:current-layer="layer1"
     showgrid="false"
     inkscape:window-width="1366"
     inkscape:window-height="745"
     inkscape:window-x="-8"
     inkscape:window-y="-8"
     inkscape:window-maximized="1" />
  <metadata
     id="metadata7">
    <rdf:RDF>
      <cc:Work
         rdf:about="">
        <dc:format>image/svg+xml</dc:format>
        <dc:type
           rdf:resource="http://purl.org/dc/dcmitype/StillImage" />
        <dc:title></dc:title>
      </cc:Work>
    </rdf:RDF>
  </metadata>
  <g
     inkscape:label="Layer 1"
     inkscape:groupmode="layer"
     id="layer1"
     transform="translate(0,-802.36218)">
    <path
       style="fill:#000000;fill-opacity:1;stroke:none"
       id="path3037"
       d="m 58.928571,166.54477 c -0.08836,-2.5895 0.242831,-5.16258 0.439655,-7.73944 0.22239,-3.1818 0.241418,-6.37271 0.265248,-9.56071 0.01888,-3.85805 0.01485,-7.71616 0.01322,-11.57424 0.04913,-2.84668 -0.02489,-5.70265 -0.480776,-8.51716 -0.39144,-2.22604 -0.781474,-4.45243 -1.143849,-6.68353 -0.65749,-2.7799 -0.80728,-5.63236 -1.154062,-8.45634 -0.592908,-2.75562 -0.887033,-5.56078 -1.352834,-8.33651 -0.393674,-2.17974 -0.655374,-4.37787 -0.796194,-6.587549 -0.0876,-1.63164 -0.08423,-3.266145 -0.08467,-4.899558 0.0021,-1.646676 0.0053,-3.29335 0.0069,-4.940027 -0.0028,-1.803681 -0.08619,-3.819227 1.043237,-5.361683 0.356065,-0.486278 0.837455,-0.866986 1.256183,-1.300479 2.673982,-1.56332 5.756524,-1.491086 8.756139,-1.541164 2.543777,-0.02208 5.087649,-0.001 7.63142,0.01126 2.219657,-0.109983 4.357063,0.06298 6.49745,0.662752 1.886975,0.593594 3.45915,1.807792 4.994575,3.008045 1.431436,1.030822 2.712346,2.223082 3.835722,3.579521 1.491155,1.650124 2.625395,3.521706 3.608872,5.50912 0.971026,2.019798 1.403739,4.198055 1.603383,6.412267 0.223816,2.67532 -0.333879,4.51084 -1.919097,6.67742 -1.303924,1.88103 -3.124417,3.22738 -4.988689,4.50074 -2.18877,1.50793 -4.629252,2.55673 -7.067945,3.57901 -2.437014,1.00168 -4.855455,2.03644 -7.273838,3.07998 -1.865512,0.85247 -3.769884,1.63476 -5.718341,2.27748 -0.625885,0.2797 -0.280243,0.12902 -1.038758,0.44783 -4.190587,1.76132 -6.68147,-4.16507 -2.490883,-5.92639 l 0,0 c 0.927031,-0.38963 0.414088,-0.17698 1.540275,-0.63446 1.767874,-0.56379 3.47751,-1.31138 5.168461,-2.07028 2.439144,-1.04424 4.871731,-2.09703 7.327884,-3.10293 2.03932,-0.8548 4.095058,-1.70301 5.929457,-2.96017 1.30401,-0.88905 2.62108,-1.76244 3.511767,-3.10365 0.09672,-0.10976 0.177357,-0.23613 0.290147,-0.3293 0.02593,-0.0214 0.08058,0.0334 0.100697,0.006 0.353388,-0.47335 0.20679,-1.36244 0.224265,-1.88705 -0.116104,-1.425811 -0.356715,-2.832575 -0.972151,-4.139434 -0.758754,-1.572048 -1.64126,-3.013346 -2.835702,-4.296256 -0.787589,-1.027578 -1.816373,-1.818124 -2.843638,-2.5938 -0.844487,-0.699833 -1.745011,-1.40071 -2.744917,-1.850738 -1.571931,-0.456545 -3.12944,-0.491087 -4.770072,-0.417651 -2.498471,-0.01208 -4.997035,-0.03267 -7.495517,-0.01203 -1.198633,0.01904 -2.398489,0.02638 -3.593815,0.12892 -0.259007,0.02222 -0.517304,0.05265 -0.775146,0.08575 -0.167424,0.02149 -0.340992,0.133635 -0.500351,0.07798 -0.07534,-0.02631 0.06491,-0.14581 0.09737,-0.218714 0.09368,-0.187707 0.412132,-0.586928 0.202538,-0.595875 -0.256343,-0.01094 -0.143861,2.074611 -0.16241,2.303712 -0.0016,1.644082 -0.0048,3.288161 -0.0069,4.932242 3.57e-4,1.499378 -0.0045,2.999754 0.07199,4.49767 0.123397,1.993309 0.367219,3.974839 0.722482,5.940709 0.470197,2.8703 0.804057,5.76294 1.392671,8.61462 0.327365,2.73979 0.482168,5.50346 1.117712,8.1995 0.36334,2.24422 0.757612,4.48312 1.150013,6.72229 0.476614,3.14548 0.633426,6.3243 0.557513,9.50477 0.0016,3.87505 0.0057,7.75013 -0.0134,11.62515 -0.02509,3.33583 -0.04786,6.67462 -0.283864,10.00374 -0.185565,2.41369 -0.505142,4.8228 -0.420858,7.24821 0,4.54569 -6.428572,4.54569 -6.428572,0 z"
       inkscape:connector-curvature="0"
       transform="translate(0,802.36218)" />
    <path
       style="fill:#000000;fill-opacity:1;stroke:none"
       id="path3039"
       d="m 111.07143,92.259057 c 0.10652,-2.834641 0.92212,-5.553435 1.96713,-8.167422 1.2608,-2.614652 3.51576,-3.841447 6.25876,-4.337562 2.11896,-0.222222 4.25574,-0.159285 6.38297,-0.144785 3.01114,-0.134978 5.65327,1.020799 8.08747,2.671756 2.52898,1.880274 4.61996,4.183444 6.36422,6.793127 1.43892,2.187947 2.01435,4.679782 2.28841,7.243247 0.60076,2.113414 1.05829,4.237912 1.18581,6.432092 -0.0894,3.06572 -1.53574,5.80909 -3.21522,8.29631 -1.83835,2.25765 -4.00326,4.19441 -6.17625,6.11691 -2.47646,1.92871 -4.75437,4.06101 -6.94267,6.30548 -1.9594,2.20415 -3.96121,4.33517 -6.09448,6.37221 -1.79891,1.39001 -3.30069,3.05933 -4.82382,4.72871 -1.17406,1.37353 -2.24456,2.823 -3.11019,4.41098 -0.78009,1.67686 -1.6161,3.3371 -2.26405,5.07162 -0.85739,1.72274 -1.52342,3.52134 -2.17017,5.33007 -0.40447,1.13821 -0.50895,2.3377 -0.5718,3.53415 -0.049,1.36342 -0.0376,2.72811 -0.0337,4.09215 0.005,1.42952 0.008,2.85904 0.009,4.28857 3e-5,0.0411 -0.0438,0.96783 0.0653,1.18303 0.0352,-0.34228 0.0797,-0.42566 -0.25305,-0.8156 -0.64751,-0.7588 -0.7429,-0.72872 -1.45762,-1.01238 -0.0623,-0.0217 -0.15562,-0.007 -0.18689,-0.0652 -0.0454,-0.0844 0.44565,-0.21169 0.90832,-0.38417 0.97566,-0.36374 1.95201,-0.72533 2.92795,-1.0886 2.25848,-0.78892 4.56673,-1.43095 6.91576,-1.8849 2.043,-0.52017 4.11865,-0.8379 6.21621,-1.02214 2.00387,-0.14882 4.01487,-0.14058 6.02296,-0.14466 2.50143,-0.0112 4.98663,0.34274 7.47785,0.53398 1.74649,0.13138 3.49756,0.17177 5.24828,0.18856 4.54548,0.0442 4.48302,6.47243 -0.0625,6.42826 l 0,0 c -1.89453,-0.0186 -3.78938,-0.0643 -5.67925,-0.20722 -2.32286,-0.17928 -4.64056,-0.50843 -6.97153,-0.51502 -1.82751,0.004 -3.65768,-0.007 -5.48178,0.12075 -1.88041,0.15964 -3.733,0.46687 -5.56396,0.93186 -1.99904,0.37628 -3.95757,0.9363 -5.88055,1.59565 -2.07711,0.77237 -4.15413,1.76107 -6.38202,1.92265 -0.49992,-0.0953 -1.0346,-0.0794 -1.49975,-0.28585 -2.24636,-0.99717 -2.87551,-3.21886 -2.79233,-5.47228 -0.001,-1.42569 -0.004,-2.85137 -0.009,-4.27706 -0.004,-1.48824 -0.0162,-2.97728 0.0435,-4.46467 0.10384,-1.81558 0.3177,-3.62761 0.93926,-5.3496 0.66235,-1.84295 1.32293,-3.68974 2.21062,-5.43974 0.77309,-2.01701 1.71136,-3.9696 2.65381,-5.9114 1.12995,-2.01254 2.46398,-3.89229 3.98639,-5.62908 1.62385,-1.77264 3.22306,-3.55758 5.13,-5.04158 2.07865,-1.98344 4.01747,-4.0666 5.93138,-6.21087 2.29868,-2.35549 4.68554,-4.60569 7.28483,-6.63138 1.79137,-1.58486 3.57342,-3.17189 5.15721,-4.97117 0.94081,-1.28332 1.76752,-2.79122 2.07085,-4.3623 -0.009,-2.06743 -0.84,-4.014186 -1.1576,-6.039949 -0.14847,-1.535172 -0.39949,-3.034612 -1.25677,-4.356107 -1.27442,-1.96022 -2.83662,-3.65476 -4.69864,-5.07874 -1.31944,-0.997611 -2.74692,-1.611561 -4.43366,-1.502024 -1.76503,-0.01205 -3.5337,-0.05109 -5.29632,0.05979 -0.47157,0.057 -1.00647,0.0087 -1.33504,0.3873 -0.74627,1.853256 -1.37373,3.764105 -1.50507,5.774253 0,4.545686 -6.42857,4.545686 -6.42857,0 z"
       inkscape:connector-curvature="0"
       transform="translate(0,802.36218)" />
    <path
       style="fill:#000000;fill-opacity:1;stroke:none"
       id="path3041"
       d="m 159.56795,160.81034 c -0.76972,-3.25054 -1.00421,-6.58972 -1.1881,-9.91478 -0.0259,-3.21575 -0.36013,-6.41191 -0.59661,-9.61569 -0.26855,-3.07789 -1.15889,-6.03789 -1.67729,-9.07719 -0.69626,-3.69915 -1.40182,-7.38827 -1.81961,-11.13124 -0.26581,-2.66327 -0.34396,-5.33912 -0.36955,-8.0138 0.0278,-2.17362 0.0215,-4.33341 -0.18354,-6.49754 -0.33555,-2.36211 -0.89516,-4.68011 -1.3284,-7.023685 -0.36001,-2.296377 -0.45495,-4.620537 -0.9452,-6.896055 -0.48084,-1.889743 -0.81403,-3.805715 -0.99336,-5.746246 -0.25022,-2.025411 -0.0618,-3.961155 0.57742,-5.895373 1.28157,-3.038056 3.70309,-3.766501 6.70974,-4.103795 2.69977,-0.173154 5.40729,-0.143673 8.11109,-0.135092 2.82733,-0.100822 5.62027,0.169194 8.36498,0.839837 3.16925,0.630266 4.98262,2.030465 6.92959,4.509815 1.42288,1.692612 3.00508,3.243461 4.5651,4.807957 1.80259,1.659735 3.25263,3.620116 4.33282,5.811221 0.84347,1.883406 0.96802,3.924814 1.02761,5.954875 0.0259,1.651831 0.007,3.303941 -0.001,4.955851 -0.0305,2.81896 -1.51189,5.00604 -3.30968,7.03527 -1.35972,1.64346 -2.99784,2.97016 -4.79534,4.09863 -2.09138,1.19062 -4.40105,1.92557 -6.67233,2.68937 -2.58938,0.74217 -5.17931,1.48738 -7.75555,2.2739 -1.93879,0.65745 -3.93829,1.05027 -5.97187,1.24482 -0.90376,0.0752 -1.81083,0.0835 -2.71694,0.0974 -4.54518,0.0677 -4.64098,-6.36012 -0.0958,-6.42786 l 0,0 c 0.74001,-0.0106 1.48086,-0.0147 2.2193,-0.0707 1.60353,-0.14198 3.1715,-0.47195 4.69721,-0.99486 2.51788,-0.76127 5.04318,-1.50202 7.57456,-2.216 1.79765,-0.60452 3.62696,-1.17305 5.31488,-2.0479 1.29789,-0.80603 2.46855,-1.75497 3.43309,-2.95788 0.76189,-0.81317 1.57565,-1.59058 1.64997,-2.75537 0.008,-1.58112 0.0257,-3.16241 0.004,-4.74347 -0.0303,-1.130259 -0.0222,-2.289669 -0.40411,-3.368918 -0.69387,-1.567778 -1.85192,-2.867199 -3.08263,-4.03937 -1.74567,-1.750864 -3.51472,-3.488779 -5.08718,-5.40023 -1.12236,-1.463383 -1.42952,-1.845663 -3.43031,-2.223974 -2.22528,-0.591722 -4.51441,-0.703288 -6.81031,-0.643915 -2.47727,-0.0079 -4.9571,-0.03249 -7.43176,0.10127 -0.85951,0.07511 -0.53392,0.05226 -1.13844,0.09164 -0.35266,0.02298 -0.0453,-0.18368 -0.0301,-0.443941 0.003,-0.05523 -0.0741,0.08219 -0.1111,0.123288 -0.40282,1.139992 -0.40535,2.028077 -0.26387,3.254776 0.14886,1.697085 0.46897,3.365241 0.88506,5.017348 0.47168,2.329874 0.67383,4.687439 0.97388,7.042578 0.46078,2.529336 1.08269,5.028596 1.40592,7.583336 0.21865,2.34428 0.24814,4.68444 0.21144,7.03818 0.023,2.45839 0.0909,4.91793 0.3307,7.36627 0.39846,3.62231 1.10562,7.1875 1.76888,10.76839 0.54104,3.23708 1.52152,6.38844 1.74977,9.67582 0.23869,3.24356 0.57569,6.48008 0.60432,9.73558 0.15918,2.91847 0.34715,5.85148 1.00584,8.70825 1.10249,4.40996 -5.13414,5.96912 -6.23663,1.55916 z"
       inkscape:connector-curvature="0"
       transform="translate(0,802.36218)" />
    <path
       style="fill:#000000;fill-opacity:1;stroke:none"
       id="path3043"
       d="M 59.707704,60.025315 C 57.788556,58.565295 55.884671,57.075538 54.122871,55.426986 52.302773,53.395697 50.62246,51.262531 48.675639,49.34821 46.701925,47.493906 44.733111,45.645412 42.918436,43.633828 41.845076,42.33011 40.63193,41.18939 39.32486,40.136204 38.276448,39.436383 37.272731,38.676421 36.240589,37.954111 35.450846,37.454009 34.636143,37.12612 33.722062,36.956374 c -0.815629,-0.123572 -1.579097,-0.609611 -2.410144,-0.667841 -0.126644,-0.0089 -0.242476,0.08174 -0.368672,0.09559 -0.689963,-0.0048 -0.911024,0.323462 -0.08541,-0.02181 0.587967,-0.245886 0.532653,-0.453368 0.41715,0.379458 0.03052,2.939735 0.406834,5.870831 0.835159,8.776402 0.383254,3.281337 1.061178,6.508714 1.70362,9.745359 0.531881,2.456901 0.711119,4.962156 0.804696,7.467712 0.07393,1.819801 -0.115459,3.666215 0.35959,5.443879 0.210136,0.931386 0.49812,1.823928 0.867515,2.702321 1.725038,4.205652 -4.222652,6.645225 -5.94769,2.439573 l 0,0 c -0.484232,-1.199725 -0.89652,-2.414604 -1.179796,-3.67926 -0.481273,-2.201732 -0.555736,-4.4204 -0.523831,-6.669806 -0.07856,-2.165101 -0.220294,-4.330644 -0.686099,-6.453121 -0.663294,-3.343347 -1.35778,-6.678583 -1.759009,-10.067053 -0.524471,-3.616479 -1.062824,-7.289433 -0.781486,-10.948628 0.715599,-3.258832 1.922021,-5.282565 5.530033,-5.528142 1.566862,-0.08568 3.070807,0.09992 4.533513,0.691505 1.764933,0.385869 3.413195,1.028127 4.919592,2.041749 1.139397,0.810607 2.272244,1.628023 3.416541,2.43345 1.565557,1.272324 3.031678,2.637312 4.327487,4.193481 1.726575,1.91982 3.621008,3.663354 5.494011,5.439069 1.909531,1.886715 3.627843,3.928118 5.349829,5.984752 1.613423,1.54682 3.421118,2.882511 5.184939,4.25043 3.549585,2.839668 -0.466312,7.859538 -4.015897,5.019871 z"
       inkscape:connector-curvature="0"
       transform="translate(0,802.36218)" />
    <path
       style="fill:#000000;fill-opacity:1;stroke:none"
       id="path3045"
       d="m 162.05257,54.25118 c 0.6998,-3.411016 2.05528,-6.639855 3.6429,-9.722592 1.52232,-2.793564 3.22473,-5.484431 5.04093,-8.094669 1.55085,-2.273723 3.28551,-4.405144 5.00805,-6.548041 2.3264,-2.601313 4.92574,-4.955626 7.48844,-7.323281 1.7282,-1.650893 3.42232,-3.324015 5.30143,-4.805581 1.15862,-0.795012 2.29807,-1.592385 3.41395,-2.447187 2.61494,-1.713797 5.59203,-1.25362 6.95848,1.782723 0.18746,0.41655 0.26517,0.874244 0.39776,1.311366 0.38916,2.207364 0.35766,4.45895 0.3625,6.692239 -0.003,2.416837 -0.0134,4.833658 -0.0189,7.250492 0.0447,2.096666 -0.3455,4.167116 -0.53679,6.248601 -0.24379,2.176073 -0.76849,4.238709 -1.68078,6.226834 -0.19615,0.357423 -0.3923,0.714845 -0.58845,1.072268 -2.21376,3.970205 -7.82848,0.839474 -5.61472,-3.130731 l 0,0 c 0.12624,-0.220742 0.25247,-0.441484 0.3787,-0.662227 0.62745,-1.305372 0.92005,-2.662355 1.10432,-4.101694 0.17751,-1.88828 0.52815,-3.767579 0.50917,-5.667504 0.005,-2.407549 0.0154,-4.815085 0.0188,-7.222638 -0.003,-1.715862 0.007,-3.436487 -0.1703,-5.145387 0.15509,-0.216104 0.37502,0.493971 1.23023,0.659639 0.29552,0.05725 1.26445,0.19804 1.64779,-0.197865 0.0212,-0.02192 -0.0606,-0.0074 -0.0908,-0.01108 -1.10031,0.841419 -2.2245,1.638755 -3.36965,2.412979 -1.75945,1.344539 -3.26308,2.962107 -4.89061,4.456817 -2.33109,2.153173 -4.69045,4.29644 -6.84061,6.629401 -1.63011,2.02698 -3.27664,4.039024 -4.74153,6.192025 -1.65807,2.381941 -3.21414,4.835503 -4.61035,7.381456 -1.37515,2.630608 -2.52736,5.401346 -3.11338,8.322791 -1.10249,4.409964 -7.33912,2.850806 -6.23663,-1.559157 z"
       inkscape:connector-curvature="0"
       transform="translate(0,802.36218)" />
    <path
       style="fill:#000000;fill-opacity:1;stroke:none"
       id="path3047"
       d="m 54.092975,193.09566 c 2.577516,1.12651 5.036745,2.50659 7.417275,3.99994 2.16911,1.1082 4.122796,2.48433 5.887152,4.15628 1.1649,1.18117 2.597355,1.90857 4.130962,2.49138 2.218525,0.75588 4.38954,1.69689 6.645822,2.33568 1.982352,0.61786 4.007074,1.06482 6.069329,1.29849 1.828838,0.14446 3.665701,0.13568 5.498988,0.13769 2.33988,-0.003 4.679755,-0.009 7.019637,-0.0119 2.484855,-0.003 4.96971,-0.003 7.45457,-0.003 2.83464,-1.4e-4 5.66928,-5e-5 8.50392,-2e-5 2.57188,3e-5 5.14375,4e-5 7.71562,5e-5 2.56376,0 5.12753,0 7.69129,0 1.88626,0.0801 3.73948,-0.28745 5.57688,-0.65768 2.44467,-0.5046 4.88132,-0.97188 7.36748,-1.22498 2.81296,-0.3846 5.60144,-0.90632 8.41924,-1.25757 2.38697,-0.23386 4.65322,-0.95487 6.91944,-1.69487 2.0901,-0.6455 4.11293,-1.51502 6.09783,-2.43257 2.3516,-0.96906 4.71607,-1.90368 7.06265,-2.88459 2.03775,-0.90496 3.93564,-2.08275 5.9611,-3.01202 1.16041,-0.52131 1.97586,-1.35597 2.82919,-2.2511 0.60364,-1.0152 1.40804,-1.89142 2.11553,-2.83635 0.9938,-1.60558 2.17558,-3.07919 3.22611,-4.64607 0.91883,-1.59551 1.72845,-3.24231 2.63806,-4.84426 2.24451,-3.9529 7.83476,-0.77869 5.59025,3.17422 l 0,0 c -0.9896,1.74281 -1.8471,3.54906 -2.89492,5.25911 -1.12894,1.67248 -2.37135,3.26295 -3.45601,4.96608 -0.86743,1.11786 -1.74827,2.21469 -2.56876,3.36593 -1.4224,1.48803 -2.93509,2.79491 -4.8266,3.66811 -2.09248,0.93001 -4.01074,2.21835 -6.13462,3.08757 -2.27816,0.9523 -4.57102,1.86615 -6.85882,2.79522 -2.21415,1.01171 -4.46254,1.98443 -6.78986,2.70316 -2.65598,0.86332 -5.32581,1.67733 -8.11845,1.96201 -2.86804,0.35458 -5.70359,0.90473 -8.56966,1.27445 -2.27624,0.22433 -4.501,0.67238 -6.73937,1.13043 -2.25517,0.45441 -4.53411,0.86272 -6.84669,0.78434 -2.56377,0 -5.12754,0 -7.6913,0 -2.5719,-1e-5 -5.14379,-2e-5 -7.71568,-5e-5 -2.83441,-3e-5 -5.66882,-1.1e-4 -8.50323,2e-5 -2.48258,2.4e-4 -4.965171,6e-4 -7.447756,0.003 -2.344793,0.003 -4.689579,0.009 -7.03437,0.0119 -2.078262,-0.002 -4.161092,0.005 -6.232901,-0.18056 -2.421072,-0.28619 -4.805105,-0.78726 -7.1343,-1.51457 -2.435386,-0.72892 -4.804217,-1.67791 -7.19974,-2.52563 -2.282842,-0.92213 -4.452301,-2.05441 -6.208132,-3.81947 -1.446873,-1.39297 -3.095084,-2.44491 -4.880502,-3.37119 -2.192663,-1.39387 -4.481948,-2.64064 -6.861599,-3.68672 -4.065785,-2.03289 -1.190841,-7.78278 2.874945,-5.74989 z"
       inkscape:connector-curvature="0"
       transform="translate(0,802.36218)" />
    <path
       style="fill:#000000;fill-opacity:1;stroke:none"
       id="path3049"
       d="m 174.56112,201.14621 c 1.09897,2.1896 2.26858,4.35367 3.6858,6.3555 1.1414,1.67955 2.58647,3.02156 4.15952,4.26918 1.16737,1.05408 2.51716,1.53361 4.02261,1.87324 1.89958,0.34416 3.79904,0.68189 5.68302,1.10467 1.42482,0.34699 2.8806,0.49738 4.34144,0.57249 1.82481,0.0575 3.651,0.0456 5.47648,0.044 1.64423,0.12076 3.21479,-0.0902 4.78972,-0.52621 1.5095,-0.89515 2.76004,-2.2091 4.05633,-3.38629 1.41027,-1.20358 2.51761,-2.7303 3.46078,-4.3175 0.79197,-1.35617 1.33685,-2.75562 1.62066,-4.29402 0.3031,-2.17816 0.77739,-4.32673 1.1114,-6.50028 0.32832,-2.39508 0.44613,-4.81198 0.51294,-7.22642 0.0348,-1.57367 0.0292,-3.14783 0.0258,-4.72177 -0.004,-1.45239 -0.006,-2.90478 -0.007,-4.35718 -8.7e-4,-1.78149 -8.4e-4,-3.56298 -8.6e-4,-5.34447 1e-5,-1.71694 4e-5,-3.43387 5e-5,-5.1508 2e-5,-1.47311 2e-5,-2.94621 2e-5,-4.41932 -0.0947,-1.55638 0.0794,-3.0731 0.38737,-4.59496 0.39248,-1.89001 1.45592,-3.45212 2.57577,-4.97772 1.17281,-1.58043 2.81528,-2.55949 4.56091,-3.38339 1.43951,-0.61507 2.85837,-1.19466 4.39569,-1.52151 0.0814,-0.0312 0.16724,-0.0526 0.24406,-0.0937 0.45044,-0.24123 -0.96624,0.48161 -1.22404,0.92278 -0.34079,0.5832 -0.41336,1.29271 -0.50962,1.96129 -0.069,0.47915 0.36197,0.82759 -0.007,0.48586 -0.66811,-0.41753 -1.247,-0.96296 -2.01576,-1.18986 -1.36056,-0.13105 -2.57535,-0.73019 -3.82201,-1.23669 -1.57971,-0.46446 -0.34985,0.0485 0.0528,-0.17767 1.95718,-1.0992 1.67913,-0.97459 2.10265,-2.56529 0.50296,1.12077 1.08536,2.1958 1.6844,3.26709 0.75354,1.53012 1.47614,3.0772 2.33364,4.55364 0.71848,1.39072 1.75634,2.57321 2.61225,3.87965 0.10094,0.13122 0.20593,0.25942 0.30283,0.39365 0.79054,1.09512 0.122,0.20553 0.94204,1.44179 0.13349,0.20125 0.61625,0.74356 0.46975,0.55157 -0.0877,-0.11494 -0.19863,-0.21015 -0.29795,-0.31522 -1.74919,-0.5764 -1.55813,-0.8558 -3.478,0.22922 -0.64755,0.36596 -0.68117,1.52228 -0.60508,0.042 0.0427,-1.34895 0.0273,-2.69897 0.0216,-4.04837 -0.007,-1.44179 -0.01,-2.8836 -0.0112,-4.3254 -0.0633,-1.14007 0.0641,-2.26297 0.24514,-3.38619 0.73984,-4.48508 7.08269,-3.43878 6.34285,1.04629 l 0,0 c -0.1329,0.77874 -0.22534,1.53692 -0.15943,2.33282 0.002,1.4351 0.004,2.8702 0.0112,4.30528 0.006,1.48676 0.0241,2.9744 -0.0331,4.46043 -0.15826,2.43174 -0.71205,4.84397 -3.69089,5.27795 -0.69382,0.10108 -1.36512,-0.32071 -2.04769,-0.48106 -0.33258,-0.25072 -0.68895,-0.47268 -0.99775,-0.75216 -1.02077,-0.92384 -1.53535,-2.24488 -2.41335,-3.28309 -0.8933,-1.41432 -2.05711,-2.65115 -2.7883,-4.16844 -0.85623,-1.50374 -1.62859,-3.05449 -2.36967,-4.61721 -1.00088,-1.79046 -2.05829,-3.61245 -2.45713,-5.64738 0.061,-0.7246 -0.15844,-1.5318 0.18305,-2.17378 1.49821,-2.81648 4.01126,-2.71446 6.49271,-1.78464 0.39378,0.16356 0.89355,0.46043 1.29409,0.60364 0.75952,0.27157 1.60631,0.22094 2.34914,0.56255 1.81466,0.72744 3.46151,1.79984 4.80319,3.23453 2.391,3.23052 1.61601,5.95036 -2.28615,6.9953 -1.05321,0.1888 -1.97631,0.67902 -2.97095,1.05524 -0.77974,0.3468 -1.52545,0.68112 -2.07799,1.35406 -0.57699,0.78509 -1.21444,1.49131 -1.45614,2.44769 -0.22435,1.10793 -0.35957,2.17675 -0.25956,3.31941 0,1.47313 0,2.94626 -2e-5,4.41938 -1e-5,1.71689 -4e-5,3.43377 -5e-5,5.15066 2e-5,1.78006 -1e-5,3.56012 8.6e-4,5.34018 9.8e-4,1.44935 0.003,2.8987 0.007,4.34804 0.003,1.63825 0.009,3.27673 -0.0283,4.91468 -0.0755,2.68326 -0.21231,5.36895 -0.58597,8.02959 -0.3507,2.25488 -0.83217,4.48582 -1.15412,6.74508 -0.45523,2.26711 -1.24333,4.38708 -2.42407,6.38334 -1.28388,2.11176 -2.76702,4.13827 -4.64749,5.76131 -2.03742,1.84764 -4.01674,3.90453 -6.67632,4.82545 -2.12512,0.57848 -4.27519,0.88029 -6.48451,0.75512 -1.94064,0.002 -3.88217,0.0148 -5.82194,-0.053 -1.81996,-0.0987 -3.63379,-0.29314 -5.40987,-0.71969 -1.90853,-0.42886 -3.83501,-0.7575 -5.75696,-1.12174 -2.39219,-0.5839 -4.64647,-1.46307 -6.53571,-3.09243 -2.06372,-1.63785 -3.93128,-3.44692 -5.43809,-5.62963 -1.50003,-2.17666 -2.83476,-4.46439 -3.99329,-6.8417 -2.25529,-3.94677 3.32627,-7.13623 5.58157,-3.18947 z"
       inkscape:connector-curvature="0"
       transform="translate(0,802.36218)" />
  </g>
</svg>
