<?xml version="1.0" encoding="UTF-8" standalone="no"?>
<!-- Created with Inkscape (http://www.inkscape.org/) -->

<svg
   xmlns:dc="http://purl.org/dc/elements/1.1/"
   xmlns:cc="http://creativecommons.org/ns#"
   xmlns:rdf="http://www.w3.org/1999/02/22-rdf-syntax-ns#"
   xmlns:svg="http://www.w3.org/2000/svg"
   xmlns="http://www.w3.org/2000/svg"
   xmlns:sodipodi="http://sodipodi.sourceforge.net/DTD/sodipodi-0.dtd"
   xmlns:inkscape="http://www.inkscape.org/namespaces/inkscape"
   width="250"
   height="250"
   id="svg2"
   version="1.1"
   inkscape:version="0.48.5 r10040"
   sodipodi:docname="New document 1">
  <defs
     id="defs4" />
  <sodipodi:namedview
     id="base"
     pagecolor="#ffffff"
     bordercolor="#666666"
     borderopacity="1.0"
     inkscape:pageopacity="0.0"
     inkscape:pageshadow="2"
     inkscape:zoom="1.4"
     inkscape:cx="192.31256"
     inkscape:cy="123.11395"
     inkscape:document-units="px"
     inkscape:current-layer="layer1"
     showgrid="false"
     inkscape:window-width="1366"
     inkscape:window-height="745"
     inkscape:window-x="-8"
     inkscape:window-y="-8"
     inkscape:window-maximized="1" />
  <metadata
     id="metadata7">
    <rdf:RDF>
      <cc:Work
         rdf:about="">
        <dc:format>image/svg+xml</dc:format>
        <dc:type
           rdf:resource="http://purl.org/dc/dcmitype/StillImage" />
        <dc:title></dc:title>
      </cc:Work>
    </rdf:RDF>
  </metadata>
  <g
     inkscape:label="Layer 1"
     inkscape:groupmode="layer"
     id="layer1"
     transform="translate(0,-802.36218)">
    <path
       style="fill:#000000;fill-opacity:1;stroke:none"
       id="path3001"
       d="m 162.97334,68.214286 c -2.02872,-0.09471 -4.03249,0.06841 -6.04428,0.302057 -2.0573,0.49306 -4.17322,0.641394 -6.24924,1.012345 -2.21854,0.570069 -4.34878,1.403235 -6.56252,1.990322 -2.38292,0.620342 -4.73894,1.327126 -7.12064,1.953372 -1.92396,0.725153 -3.98007,1.070734 -5.87758,1.863306 -1.79397,0.577787 -3.53359,1.298313 -5.30785,1.930504 -1.99305,0.640919 -3.91801,1.461221 -5.90722,2.110807 -1.77462,0.479246 -3.36976,1.303813 -4.98833,2.142732 -1.46058,0.697984 -2.77081,1.586553 -3.97219,2.667969 -1.47793,1.298423 -3.02647,2.50077 -4.69072,3.548548 -1.69232,1.136086 -3.32628,2.351262 -5.06429,3.418423 -1.729636,1.039399 -3.369227,2.216769 -5.065347,3.309483 -1.59394,1.115449 -3.128198,2.286973 -4.57211,3.59283 -1.056024,1.014824 -1.747863,2.301426 -2.543962,3.510186 -0.59553,1.03616 -1.154669,2.11596 -1.579531,3.23526 -0.696977,1.81873 -1.80608,3.43031 -2.746944,5.12394 -0.901321,1.46781 -1.791212,2.94047 -2.660052,4.42788 -0.741818,1.21836 -1.61774,2.37677 -2.065051,3.74387 -0.297326,1.1313 -0.30028,2.30947 -0.322998,3.47082 -0.01635,1.55739 -0.0041,3.1149 0.0019,4.67232 -0.0992,1.37651 0.006,2.64416 0.401594,3.95099 0.444146,1.12254 1.143936,2.08706 1.825178,3.07627 0.774737,1.00724 1.225125,2.3136 2.191301,3.1645 0.682207,0.48363 1.396855,0.75095 2.212022,0.90577 1.368522,0.18331 2.755775,0.17143 4.134104,0.17838 1.665697,-0.0442 3.346967,0.15096 4.980447,-0.23605 1.998719,-0.36498 3.895152,-1.06383 5.821662,-1.68322 1.82571,-0.81314 3.71004,-1.41901 5.62213,-1.98734 1.63113,-0.29668 3.10047,-1.01609 4.6374,-1.59425 1.94087,-0.89561 3.90111,-1.74368 5.8609,-2.59753 1.95646,-0.71322 3.85837,-1.58418 5.66067,-2.62895 2.21411,-1.29617 4.51304,-2.41595 6.85287,-3.46343 2.31717,-0.90204 4.56978,-1.94829 6.85682,-2.91861 1.69884,-0.69936 3.21817,-1.64538 4.74479,-2.65262 1.88812,-1.06458 3.57756,-2.41394 5.46549,-3.47527 1.77071,-0.83605 3.30271,-2.02754 4.84473,-3.21418 1.43743,-1.27442 3.01729,-2.39736 4.42525,-3.70253 0.6401,-0.98419 1.7288,-1.68238 2.28199,-2.72208 1.06004,-1.29468 1.75271,-2.82011 2.49171,-4.30773 0.74293,-1.895123 1.68394,-3.712324 2.36611,-5.630521 0.86885,-1.926062 1.72534,-3.849 2.54798,-5.793034 0.55386,-1.232899 0.81647,-2.560445 1.17543,-3.857208 0.3357,-1.304587 0.36216,-2.65511 0.55999,-3.981468 0.34074,-1.594816 0.84698,-3.137809 1.10647,-4.752086 0.21058,-1.24092 0.22633,-2.461533 0.0564,-3.699061 -0.27142,-0.698723 -0.45554,-1.628224 -1.06676,-2.13198 -0.0482,-0.03751 -0.0931,0.05263 -0.1365,0.03479 -0.60961,-0.250433 -1.12227,-0.505547 -1.77317,-0.651597 -0.88519,-0.281074 -1.77795,-0.523143 -2.68976,-0.69792 -4.45909,-0.883054 -3.21026,-7.189159 1.24883,-6.306105 l 0,0 c 1.0088,0.203998 2.01006,0.4373 2.98744,0.764247 1.97716,0.512078 3.88362,1.280899 5.33176,2.777425 1.22722,1.593429 2.11457,3.361428 2.4703,5.3612 0.24411,1.870192 0.22672,3.729473 -0.0856,5.59483 -0.26985,1.607489 -0.69703,3.167835 -1.10441,4.739463 -0.30109,1.541266 -0.20035,3.16316 -0.71219,4.673325 -0.43834,1.565788 -0.76683,3.168736 -1.45495,4.653992 -0.78838,1.829341 -1.55632,3.662503 -2.41718,5.461129 -0.78543,2.139923 -1.78871,4.193036 -2.65329,6.301486 -0.8712,1.75245 -1.71332,3.54071 -2.94378,5.07799 -0.99025,1.36909 -2.13001,2.61145 -3.27231,3.85658 -1.56228,1.39452 -3.22932,2.67217 -4.82141,4.03324 -1.81355,1.39322 -3.63861,2.77233 -5.70736,3.7737 -1.76973,0.87552 -3.2208,2.31501 -4.99813,3.19659 -1.85113,1.20633 -3.7261,2.35074 -5.77356,3.20035 -2.24847,0.93693 -4.44792,1.98964 -6.72528,2.8615 -2.1459,0.95989 -4.25594,1.98073 -6.284,3.17416 -2.01436,1.14357 -4.11023,2.15824 -6.29054,2.94513 -2.06599,0.89783 -4.1237,1.8089 -6.18048,2.72651 -1.67538,0.61643 -3.28837,1.39638 -5.05656,1.73428 -1.86809,0.55188 -3.69242,1.17099 -5.48474,1.94496 -2.14859,0.68734 -4.271251,1.44633 -6.496926,1.86002 -2.089425,0.39534 -4.1799,0.41298 -6.302079,0.36635 -1.824498,-0.01 -3.663397,-0.003 -5.465493,-0.32483 -2.03934,-0.46819 -3.909102,-1.2775 -5.465324,-2.7157 -1.126566,-1.21702 -2.005763,-2.58976 -2.872664,-3.99761 -1.056018,-1.54154 -2.082088,-3.09768 -2.687635,-4.88296 -0.556307,-1.89468 -0.787601,-3.7833 -0.6682,-5.75826 -0.0063,-1.60943 -0.01902,-3.21898 -6.3e-4,-4.82838 0.03912,-1.85478 0.112336,-3.72518 0.69705,-5.50439 0.640082,-1.72297 1.539732,-3.30252 2.568737,-4.82421 0.849363,-1.45091 1.711855,-2.89221 2.598533,-4.3203 0.814101,-1.44879 1.760718,-2.83368 2.390344,-4.377 0.624865,-1.51804 1.327689,-3.016869 2.198346,-4.41091 1.113052,-1.636432 2.077414,-3.386893 3.586729,-4.717437 1.705278,-1.535068 3.517818,-2.915243 5.399585,-4.225631 1.741649,-1.119095 3.420679,-2.332276 5.199099,-3.39324 1.72106,-1.037555 3.302568,-2.28074 4.989028,-3.371863 1.38032,-0.865171 2.65268,-1.868333 3.87859,-2.944137 1.61155,-1.385828 3.32238,-2.620382 5.24845,-3.537736 1.93089,-0.998716 3.86263,-1.951397 5.96427,-2.550114 1.93713,-0.620027 3.80172,-1.441709 5.7424,-2.054968 1.70134,-0.596854 3.36297,-1.301518 5.08307,-1.846196 2.16178,-0.832773 4.41914,-1.361773 6.61242,-2.104638 2.38595,-0.627358 4.74693,-1.334658 7.13401,-1.956872 2.39286,-0.608915 4.66899,-1.604119 7.09369,-2.105031 2.19704,-0.368026 4.4189,-0.582388 6.59874,-1.06265 2.25651,-0.261437 4.51078,-0.436707 6.785,-0.344873 4.54569,0 4.54569,6.428572 0,6.428572 z"
       inkscape:connector-curvature="0"
       transform="translate(0,802.36218)" />
    <path
       style="fill:#000000;fill-opacity:1;stroke:none"
       id="path3005"
       d="m 89.28027,140.56211 c 1.522848,1.75519 3.099212,3.46923 4.849044,5.00221 2.211381,1.85203 4.351303,3.78037 6.566416,5.62832 2.38601,1.75671 4.68527,3.62026 6.9687,5.50641 2.3649,1.99422 4.7086,4.01606 7.11977,5.95442 1.85276,1.38596 3.42794,3.08958 5.26034,4.49925 1.83092,1.45434 3.51388,3.10303 5.39552,4.48995 2.03475,1.49569 3.92104,3.16663 5.82442,4.82127 1.45009,1.42794 3.05194,2.67559 4.53106,4.07404 1.40194,1.13716 2.77827,2.30214 4.11357,3.51696 1.4611,1.48434 2.98598,2.91618 4.39655,4.45049 1.37098,1.31769 2.69396,2.68019 4.03123,4.03051 1.11789,1.19806 2.18968,2.45214 3.4865,3.4633 1.72455,1.37637 3.42053,2.78453 5.2048,4.08394 1.99363,1.43942 4.04329,2.79845 6.05646,4.21008 1.72711,1.29375 3.41177,2.63639 5.06661,4.01958 1.03089,0.78523 1.98077,1.71437 3.15848,2.27917 1.68935,0.86042 3.35094,1.77318 5.00443,2.70046 1.78394,1.14658 3.68689,2.05911 5.59892,2.9601 1.61016,0.97385 3.40338,1.52453 5.17835,2.10504 1.69479,0.3374 3.28643,0.96708 4.86701,1.65026 1.69212,0.71976 3.32494,1.58917 5.09023,2.1201 1.59345,0.3487 3.12753,0.91226 4.70213,1.33086 1.59225,0.42385 3.07499,1.16263 4.66602,1.58322 1.4905,0.2949 2.95938,0.66622 4.46845,0.86237 0.21808,0.0209 0.43519,0.0588 0.65424,0.0628 0.75211,0.0136 0.0162,-0.0886 8.4e-4,-0.0909 -0.0477,-0.007 -0.016,-0.0952 -0.0225,-0.14305 0.15708,-0.72199 0.21785,-1.4553 0.25854,-2.19211 0.0494,-1.47615 0.0299,-2.95362 0.0235,-4.43031 -0.008,-1.55639 -0.0111,-3.11279 -0.013,-4.66919 0.0869,-1.46065 -0.21657,-2.89172 -0.40466,-4.33327 -0.37258,-1.7662 -0.82821,-3.51546 -1.2948,-5.26007 -0.72379,-2.12777 -1.22709,-4.32028 -1.76933,-6.49882 -0.38032,-2.01718 -1.02905,-3.96412 -1.53052,-5.95067 -0.72833,-1.87382 -1.06761,-3.84329 -1.26992,-5.83309 -0.12009,-1.95526 -0.42518,-3.89395 -0.82552,-5.80972 -0.51188,-2.14161 -0.49245,-4.35442 -0.77999,-6.52364 -0.16833,-1.62642 -0.51816,-3.2089 -0.87247,-4.80057 -0.16604,-1.50519 -0.57302,-2.93649 -1.01462,-4.37781 -0.44741,-1.8152 -0.97298,-3.60921 -1.43782,-5.4203 -0.61749,-1.84781 -1.31844,-3.65932 -1.81182,-5.54602 -0.56974,-1.35701 -0.79899,-2.81244 -1.27378,-4.19871 -0.63888,-1.87954 -1.50782,-3.65776 -2.11348,-5.55179 -0.29886,-1.49517 -0.99988,-2.8553 -1.61807,-4.23536 -0.95268,-1.84315 -1.58094,-3.80673 -2.24278,-5.76321 -0.43392,-1.68984 -1.12588,-3.28732 -1.68794,-4.93441 -0.3804,-1.69402 -0.96546,-3.30602 -1.66181,-4.88972 -0.67723,-1.78149 -1.29928,-3.58889 -1.69497,-5.45581 -0.38631,-1.59047 -0.97826,-3.10828 -1.35166,-4.70274 -0.45669,-1.57142 -0.75113,-3.17848 -1.1688,-4.75909 -0.54473,-1.38215 -0.91608,-2.8201 -1.35519,-4.23699 -0.42511,-1.68762 -1.24121,-3.23669 -1.85324,-4.86037 -0.5581,-1.632822 -1.19203,-3.215172 -1.54136,-4.911031 -0.35147,-1.339361 -0.86142,-2.620574 -1.21069,-3.96221 -0.32078,-1.023668 -0.46948,-2.456603 -0.92209,-3.402764 -0.60364,-1.375446 -1.25702,-2.733587 -1.83745,-4.12434 -0.59482,-1.620424 -0.93655,-3.290785 -1.56846,-4.896038 -0.66033,-1.312663 -0.62265,-2.891673 -1.2819,-4.194976 -0.0789,-0.181148 -0.15784,-0.362296 -0.23675,-0.543444 -1.81202,-4.168916 4.08372,-6.731495 5.89574,-2.562579 l 0,0 c 0.0936,0.215752 0.18719,0.431504 0.28079,0.647256 0.54749,1.407016 0.85546,2.869962 1.32451,4.300546 0.61678,1.569094 1.0283,3.174729 1.52183,4.780773 0.62427,1.507673 1.35449,2.96192 1.96971,4.470136 0.41895,1.292734 0.76855,2.618912 1.08388,3.939232 0.35718,1.456198 0.99413,2.825918 1.28735,4.301438 0.24717,1.358543 0.86546,2.587035 1.25597,3.905645 0.6452,1.742259 1.53619,3.395216 1.97284,5.210456 0.46565,1.50382 0.87554,3.02194 1.42988,4.49738 0.43746,1.65653 0.75304,3.3386 1.22455,4.98692 0.34382,1.63732 1.06944,3.16829 1.37666,4.81856 0.28187,1.43019 0.79939,2.79654 1.28377,4.1667 0.77111,1.75404 1.44827,3.5404 1.86605,5.41582 0.55369,1.65339 1.25877,3.253 1.69206,4.94664 0.59025,1.76378 1.14837,3.53169 2.01781,5.18743 0.71658,1.60477 1.51105,3.19938 1.88153,4.92938 0.57398,1.8654 1.50723,3.58495 2.08078,5.45084 0.5023,1.5356 0.81409,3.11738 1.40029,4.62773 0.47675,1.89494 1.26743,3.68437 1.81511,5.55882 0.43453,1.71381 0.94246,3.40804 1.35551,5.12705 0.48986,1.59896 0.94808,3.20055 1.1436,4.86662 0.39689,1.79012 0.77758,3.5764 0.9765,5.4027 0.23732,2.00042 0.26823,4.02722 0.69373,6.00408 0.44531,2.14129 0.78708,4.30827 0.92993,6.49243 0.15779,1.68355 0.49871,3.31328 1.10761,4.89811 0.49598,1.99298 1.15935,3.94234 1.53432,5.96593 0.53141,2.14734 1.03505,4.30453 1.74459,6.40234 0.52891,2.014 1.07878,4.02697 1.45514,6.07572 0.22215,1.71204 0.54957,3.42025 0.45841,5.15504 0.002,1.54972 0.005,3.09944 0.013,4.64915 0.007,1.61428 0.029,3.2296 -0.035,4.84304 -0.1296,2.04941 -0.42021,4.08028 -1.63954,5.80286 -1.81183,2.08402 -3.71691,2.97417 -6.51717,2.54786 -1.79575,-0.24338 -3.55113,-0.65913 -5.32187,-1.03552 -1.57528,-0.44226 -3.07194,-1.08427 -4.63166,-1.57389 -1.6538,-0.44774 -3.2717,-1.01926 -4.94367,-1.40083 -1.97712,-0.62765 -3.84688,-1.50968 -5.73619,-2.35967 -1.40628,-0.61065 -2.80186,-1.14566 -4.31512,-1.44074 -2.02455,-0.66551 -4.07301,-1.30965 -5.91933,-2.40011 -2.0463,-0.96789 -4.08723,-1.94354 -5.99922,-3.1665 -1.59739,-0.89589 -3.20173,-1.77884 -4.8346,-2.60855 -1.56004,-0.84289 -2.95203,-1.91756 -4.31242,-3.05052 -1.51285,-1.27012 -3.05963,-2.49416 -4.63505,-3.68805 -2.04113,-1.43918 -4.12911,-2.81125 -6.15104,-4.27786 -1.86117,-1.36273 -3.64322,-2.82238 -5.44178,-4.26561 -1.46424,-1.19806 -2.78089,-2.54831 -4.03725,-3.96122 -1.39112,-1.41764 -2.79263,-2.82205 -4.20785,-4.21709 -1.25406,-1.4023 -2.66781,-2.66526 -3.96869,-4.02236 -1.36519,-1.2443 -2.78948,-2.416 -4.20504,-3.60189 -1.41215,-1.33896 -2.95252,-2.52346 -4.33338,-3.89452 -1.78507,-1.55703 -3.55332,-3.12913 -5.46648,-4.53143 -1.88948,-1.44031 -3.64934,-3.04319 -5.48167,-4.55589 -1.84609,-1.4503 -3.49028,-3.12265 -5.34242,-4.56426 -2.42877,-1.95916 -4.79958,-3.98992 -7.18188,-6.00509 -2.29217,-1.89385 -4.606436,-3.7561 -6.995205,-5.52841 -2.258737,-1.88836 -4.446301,-3.85304 -6.701872,-5.74469 -2.014244,-1.79122 -3.864773,-3.7532 -5.612613,-5.80403 -2.839668,-3.54958 2.180203,-7.56548 5.01987,-4.0159 z"
       inkscape:connector-curvature="0"
       transform="translate(0,802.36218)" />
    <path
       style="fill:#000000;fill-opacity:1;stroke:none"
       id="path3007"
       d="m 138.92857,185.74504 c 0,-2.17762 0,-4.35524 0,-6.53287 0.22117,-2.78956 1.29812,-5.33423 2.60394,-7.77018 1.06373,-1.87256 2.19175,-3.85778 3.91159,-5.21966 0.40981,-0.32451 0.86829,-0.5823 1.30244,-0.87345 3.47742,-1.92615 6.99107,-0.49108 10.29168,1.05125 2.26045,1.11066 4.48931,2.27717 6.79708,3.28881 0.57666,0.17439 2.35343,0.87648 2.9066,0.57227 -0.38445,-0.12816 1.16913,-1.06122 1.4555,-1.55063 0.97554,-1.67961 1.64053,-3.52542 2.15978,-5.39091 0.57371,-2.05439 1.23459,-4.0886 2.10286,-6.03805 0.6724,-1.55489 1.61737,-2.95159 2.68953,-4.25449 1.54339,-1.7006 3.60063,-2.32667 5.80374,-2.59422 2.46166,-0.33706 4.32,0.18636 6.3713,1.54304 1.3004,0.85596 1.97753,2.44975 3.42776,3.08413 0.75246,0.17435 1.63113,0.42882 2.39859,0.2433 0.51706,-0.325 0.96505,-0.81688 1.41042,-1.28845 0.52352,-0.48573 0.91579,-1.03634 1.17752,-1.69453 1.93129,-4.11502 7.75081,-1.38377 5.81952,2.73125 l 0,0 c -0.6176,1.2507 -1.32239,2.4341 -2.34752,3.40271 -1.53181,1.59257 -3.2314,2.9068 -5.48626,3.25195 -2.07142,0.12346 -4.13336,-0.0861 -6.0323,-0.99267 -1.60353,-0.91796 -2.92255,-2.08363 -4.09855,-3.50247 -0.5681,-0.61481 -1.02996,-0.45782 -1.91987,-0.39021 -0.53632,0.0515 -1.15436,0.0503 -1.61515,0.35663 -0.74939,0.83232 -1.30931,1.78623 -1.76573,2.80638 -0.81576,1.59749 -1.19425,3.40284 -1.75274,5.09511 -0.77387,2.67671 -1.73372,5.34172 -3.32639,7.65159 -1.61006,1.87296 -3.53165,3.49603 -6.03522,3.94425 -2.0454,0.0608 -4.04415,-0.28566 -5.93363,-1.10235 -2.35521,-1.04052 -4.64349,-2.21183 -6.9481,-3.35763 -1.21753,-0.58042 -2.07066,-0.88872 -3.29626,-1.34534 -0.22904,-0.0853 -0.16731,-0.24107 -0.44276,-0.19936 -0.14901,0.0226 -0.2855,0.0966 -0.42825,0.14497 -1.46995,0.61455 -2.15203,2.45396 -2.95206,3.70236 -0.82734,1.48163 -1.4975,3.02131 -1.82049,4.6946 0,2.17763 0,4.35525 0,6.53287 0,4.54569 -6.42857,4.54569 -6.42857,0 z"
       inkscape:connector-curvature="0"
       transform="translate(0,802.36218)" />
    <path
       style="fill:#000000;fill-opacity:1;stroke:none"
       id="path3009"
       d="m 148.54611,197.56485 c 1.53297,-1.96466 3.50481,-3.51558 5.61009,-4.82001 1.83209,-1.02038 3.77035,-1.73288 5.82465,-2.13057 1.61455,-0.25907 3.25299,-0.26732 4.88373,-0.27426 1.73991,-0.0882 3.45232,0.22282 5.13754,0.61944 0.28283,0.0703 0.56492,0.14358 0.84847,0.21086 0.52497,0.12456 0.95249,0.21751 1.48207,0.307 0.73395,0.12404 1.03305,0.14981 0.99992,0.0698 -0.046,-0.11112 -0.23705,-0.0409 -0.35557,-0.0613 0.64438,-0.72937 1.24164,-1.51709 1.82888,-2.2994 0.84793,-0.96353 1.16538,-2.19855 1.70207,-3.33844 0.60867,-1.60087 1.38684,-3.0377 2.51309,-4.33603 0.87665,-0.81798 1.35172,-1.91101 1.90532,-2.95059 0.74808,-1.33641 1.79766,-2.43925 2.77859,-3.59628 1.27269,-1.45646 2.90123,-2.28931 4.73734,-2.80038 1.62706,-0.36093 3.29904,-0.37816 4.95741,-0.39376 1.63298,-0.0452 3.24525,-0.008 4.85865,0.25723 -0.54432,0.16527 3.06293,0.30532 2.32247,0.18428 0.38852,-0.11378 0.43337,-0.28056 0.67333,-0.54217 3.22897,-3.19953 7.75379,1.36692 4.52482,4.56646 l 0,0 c -0.92446,0.88662 -1.9022,1.68276 -3.14891,2.06892 -1.82127,0.49606 -3.59248,0.50219 -5.43592,0.0624 -1.23849,-0.21468 -2.47856,-0.18698 -3.73596,-0.16879 -1.13524,0.01 -2.27827,0.008 -3.4022,0.18819 -0.60894,0.12277 -1.06155,0.30505 -1.49298,0.78785 -0.68546,0.78158 -1.40011,1.53135 -1.96404,2.41067 -0.78167,1.46389 -1.5305,2.97263 -2.73193,4.15008 -0.11909,0.13569 -0.21465,0.29638 -0.35726,0.40709 -0.0315,0.0245 0.007,-0.15263 -0.014,-0.11884 -0.50977,0.8117 -0.735,1.77036 -1.19316,2.60739 -0.75071,1.50742 -1.19533,3.17751 -2.37811,4.44405 -1.37501,1.79501 -2.72704,3.65781 -4.9189,4.51021 -0.57047,0.12987 -1.13036,0.32116 -1.71141,0.38961 -1.61439,0.19018 -3.25195,-0.48233 -4.80975,-0.76928 -1.17997,-0.30227 -2.37189,-0.51127 -3.59352,-0.43777 -1.24621,0.005 -2.49816,1.8e-4 -3.73575,0.16616 -1.29699,0.22274 -2.49146,0.70158 -3.66085,1.30413 -1.48711,0.87354 -2.85501,1.98554 -3.9283,3.34193 -2.83966,3.54959 -7.85953,-0.46631 -5.01987,-4.01589 z"
       inkscape:connector-curvature="0"
       transform="translate(0,802.36218)" />
    <path
       style="fill:#000000;fill-opacity:1;stroke:none"
       id="path3011"
       d="m 87.581741,113.85379 c -1.413955,-2.73948 -2.908405,-5.43678 -4.514787,-8.06794 -2.262545,-3.48767 -4.411561,-7.044027 -6.700839,-10.513871 -1.383194,-2.168082 -3.040969,-4.134237 -4.727135,-6.068894 -0.780046,-0.86988 -1.820575,-1.227382 -2.875666,-1.621154 -1.649992,-0.717948 -3.364555,-1.301476 -5.108962,-1.74371 -1.990098,-0.367903 -3.898392,-1.051728 -5.868869,-1.502617 -1.396146,-0.305665 -2.824298,-0.372367 -4.247996,-0.405786 -1.946702,0.01591 -3.901595,-0.101587 -5.842812,0.06722 -1.501907,0.253593 -3.308524,0.307208 -4.607365,1.198497 -1.280087,0.670729 -2.336951,1.638347 -3.314994,2.687215 -1.294382,1.23987 -1.977099,2.874146 -2.659147,4.505509 -1.029798,2.103615 -1.931735,4.273086 -2.645134,6.504782 -0.374765,1.850299 -0.750116,3.704849 -0.997873,5.578279 -0.0088,1.01722 -0.386053,2.11541 -0.146691,3.13006 0.08982,0.38075 0.30466,0.72103 0.43804,1.08878 0.458685,0.85979 1.009426,1.74505 1.947344,2.11862 1.160495,0.30682 2.386894,0.27148 3.578013,0.28967 1.950727,-0.0863 3.936105,0.15941 5.877197,-0.0843 0.940074,-0.0622 1.57577,-0.71677 2.234095,-1.35062 0.767697,-0.87564 1.268792,-1.91891 1.800075,-2.94533 0.45345,-0.94717 0.813933,-1.89859 0.991254,-2.93366 0.125605,-0.95746 0.226976,-1.91101 0.02934,-2.85378 -0.05136,0.20348 -0.516292,-0.84453 0.01706,0.24851 -0.40394,0.0172 -1.136866,0.22449 -1.709006,0.42243 -0.862278,0.33313 -1.783531,0.44412 -2.664825,0.70445 -4.383225,1.2044 -6.086516,-4.994413 -1.703291,-6.198821 l 0,0 c 0.768989,-0.203637 1.550144,-0.344449 2.305956,-0.594475 1.896502,-0.633643 3.894395,-0.988376 5.859501,-0.413501 2.325275,0.912687 3.552132,2.236322 4.212583,4.644106 0.309421,1.737801 0.265022,3.477531 -0.02753,5.218721 -0.321574,1.6545 -0.85998,3.22213 -1.612822,4.73206 -0.870474,1.65618 -1.745209,3.32047 -3.093326,4.65147 -1.698922,1.57682 -3.615141,2.85179 -5.994616,3.06463 -2.202474,0.19507 -4.416643,0.10114 -6.626132,0.11587 -2.233058,-0.0382 -4.504597,-0.0739 -6.556582,-1.07636 -2.261985,-1.32164 -3.940739,-3.17476 -4.929598,-5.62928 -0.375965,-1.09299 -0.613287,-1.64447 -0.790799,-2.85188 -0.211888,-1.44122 0.09179,-2.91557 0.192983,-4.34997 0.304263,-2.252 0.732667,-4.492261 1.252654,-6.702734 0.785408,-2.409682 1.725003,-4.772158 2.847173,-7.045593 0.999972,-2.319429 2.081914,-4.637425 3.920627,-6.422888 1.470453,-1.522402 3.045726,-2.944807 4.94224,-3.923663 2.236729,-1.108559 4.64444,-1.745253 7.14066,-1.936419 2.161253,-0.152059 4.327372,-0.102024 6.49321,-0.08422 1.858122,0.04713 3.719555,0.158481 5.538791,0.569116 2.021501,0.47129 3.985761,1.148427 6.02565,1.540949 1.957717,0.51104 3.895894,1.138949 5.752263,1.946107 2.06552,0.771303 3.987929,1.736922 5.475623,3.422296 1.871579,2.151376 3.705142,4.343699 5.244944,6.750355 2.331407,3.534448 4.522773,7.155338 6.824769,10.709292 1.632639,2.68515 3.173109,5.42583 4.606317,8.22303 2.255292,3.94677 -3.326271,7.13623 -5.581563,3.18947 z"
       inkscape:connector-curvature="0"
       transform="translate(0,802.36218)" />
    <path
       style="fill:#000000;fill-opacity:1;stroke:none"
       id="path3013"
       d="m 133.29603,95.28236 c -1.8542,-3.441011 -4.09953,-6.640122 -6.21955,-9.918327 -2.71041,-4.042782 -4.7481,-8.454946 -6.50582,-12.977058 -1.39493,-3.769349 -2.45517,-7.638781 -3.4275,-11.534118 -0.78318,-2.894722 -1.64081,-5.750822 -2.11506,-8.716186 -0.51547,-2.659053 -0.81143,-5.347058 -0.97969,-8.04806 -0.12505,-2.442692 -0.12564,-4.889565 -0.12921,-7.334792 -0.23534,-2.92407 -0.516,-5.838593 -0.49215,-8.774088 0.18949,-3.054619 1.01318,-6.015972 2.18328,-8.830207 0.89873,-1.955853 2.07648,-3.73101 3.43352,-5.39327 1.74855,-2.000355 4.07496,-3.199216 6.46713,-4.2463637 3.26797,-1.4150024 6.62229,-2.6013053 10.01102,-3.6877462 2.85857,-0.9283556 5.70592,-1.8222658 8.68067,-2.2835817 3.31143,-0.5587541 5.98883,0.2552078 8.87531,1.8250721 2.73778,1.6297181 4.71857,3.4595013 6.36846,6.1906295 1.11726,2.058541 1.49347,4.33124 1.63115,6.636404 0.15697,1.854553 -0.0482,3.66117 -0.50299,5.457413 -0.68639,2.107549 -1.93354,3.960148 -3.40701,5.593152 -1.17644,1.352459 -2.50109,2.508847 -4.04241,3.422072 -1.79482,0.936518 -3.78349,1.157334 -5.77154,1.252898 -1.69906,0.04953 -3.39915,0.03191 -5.09867,0.02503 -3.21515,-0.163078 -4.86267,-1.323503 -6.40382,-4.092752 -0.96747,-2.098123 -1.18538,-4.369633 -1.10899,-6.64818 0.0849,-2.479222 1.10245,-4.697814 2.38966,-6.765224 1.52748,-2.182943 3.80786,-2.890026 6.33007,-3.164622 0.98546,-0.05782 1.94943,0.114644 2.91431,0.277875 4.48075,0.765639 3.39797,7.102367 -1.08278,6.336728 l 0,0 c -0.39466,-0.06832 -0.79367,-0.123922 -1.18306,-0.218822 -0.49834,0.044 -1.16079,-0.03719 -1.5717,0.246283 -0.74905,1.082194 -1.31398,2.285257 -1.37631,3.61595 -0.10472,1.127215 0.0408,2.280249 0.39367,3.356739 0.0465,0.123366 0.21133,0.339457 0.0878,0.385613 -0.0551,0.02061 -0.1189,-0.03863 -0.17529,-0.02171 -0.26288,0.07887 1.12864,0.490976 0.81245,0.2636 1.59403,0.0065 3.18852,0.02274 4.78222,-0.01852 0.97508,-0.04024 1.97416,-0.07483 2.89686,-0.426318 1.01917,-0.495957 1.7323,-1.418132 2.50996,-2.215234 0.81313,-0.7951 1.42076,-1.825232 1.89035,-2.850904 0.32843,-1.136777 0.39371,-2.265965 0.29886,-3.44823 -0.067,-1.289257 -0.19476,-2.581582 -0.76641,-3.761288 -0.90489,-1.671939 -2.33703,-2.816055 -3.94201,-3.811862 -1.53738,-0.889241 -2.97527,-1.4503382 -4.78678,-1.0855198 -2.63886,0.3854988 -5.14056,1.2573778 -7.67979,2.0490708 -3.18599,1.021032 -6.34037,2.132382 -9.41296,3.462691 -1.46064,0.62753 -2.93146,1.271618 -4.05981,2.429957 -0.97598,1.178395 -1.81731,2.431942 -2.48006,3.816336 -0.88153,2.032982 -1.46316,4.197695 -1.67631,6.405348 -0.0512,2.906024 0.33339,5.787855 0.49263,8.686297 0.003,2.316527 0.003,4.634606 0.11705,6.948888 0.1519,2.498595 0.43402,4.982829 0.91338,7.441827 0.43079,2.780647 1.29992,5.441873 2.00245,8.161883 0.90568,3.634306 1.88742,7.245161 3.183,10.763772 1.59535,4.116792 3.43809,8.136559 5.91122,11.812566 2.18327,3.377139 4.48847,6.677457 6.40272,10.219422 2.25529,3.946761 -3.32627,7.136225 -5.58156,3.189464 z"
       inkscape:connector-curvature="0"
       transform="translate(0,802.36218)" />
    <path
       style="fill:#000000;fill-opacity:1;stroke:none"
       id="path3015"
       d="m 85.555218,79.127462 c -1.540672,-2.665559 -2.965334,-5.394949 -4.280447,-8.179058 -1.546818,-2.734487 -2.497054,-5.715115 -3.524896,-8.664389 -0.853179,-1.887998 -1.905408,-3.659362 -3.05373,-5.379141 -0.906142,-0.99604 -1.764904,-2.027733 -2.766743,-2.929623 -1.088034,-1.186932 -2.293446,-2.229302 -3.514595,-3.270186 -1.380321,-1.057725 -2.932706,-1.867262 -4.438265,-2.729703 -1.606599,-0.972283 -3.284447,-1.76077 -5.053274,-2.376613 -2.166379,-0.850742 -4.433734,-1.393543 -6.708101,-1.864027 -1.64977,-0.338211 -3.328311,-0.46153 -5.007838,-0.515005 -1.712957,-0.03046 -3.426337,-0.01863 -5.139466,-0.01417 -1.842015,0.212636 -3.629563,0.769938 -5.383305,1.355833 -1.487072,0.681285 -2.279366,2.137555 -3.030655,3.516999 -0.75081,1.383596 -0.976986,2.896272 -1.105655,4.439447 0.03201,1.490422 -0.277111,3.056028 -0.0065,4.532485 0.02974,0.03924 0.0851,0.166776 0.08921,0.117715 0.03518,-0.419572 -0.251299,-0.584382 -0.102593,-0.56389 0.142583,0.01965 0.241616,0.158354 0.372193,0.218896 0.124124,0.05755 0.828525,0.255628 0.879469,0.270465 1.629607,0.384257 3.319714,0.381314 4.984726,0.412556 1.454878,-0.171744 3.107904,0.362448 4.505352,-0.178864 0.295307,-0.492842 1.126463,-0.605424 1.200944,-1.227379 0.200519,-0.898495 0.10713,-1.780904 0.0051,-2.682871 -0.144104,-0.499087 -0.237831,-1.525605 -0.941042,-1.495513 -0.06473,-0.0083 -0.129461,-0.01657 -0.194192,-0.02485 -4.29441,-1.490406 -2.186657,-7.563619 2.107753,-6.073212 l 0,0 c 0.375085,0.144357 0.750171,0.288715 1.125256,0.433073 2.66579,1.58545 3.794166,3.415516 4.294146,6.475025 0.232075,2.249388 0.218571,4.493961 -0.819457,6.564788 -1.23285,1.97153 -2.936768,3.422395 -5.134878,4.24584 -2.071395,0.485878 -4.152116,0.451582 -6.272029,0.391358 -2.299378,-0.04481 -4.627986,-0.08575 -6.85498,-0.728214 -2.679593,-0.916689 -5.072177,-2.361626 -5.627254,-5.384715 -0.195756,-1.947921 -0.118803,-3.911192 -0.01524,-5.864408 0.221689,-2.439931 0.693439,-4.825552 1.889217,-6.99821 1.574692,-2.799724 3.503061,-5.332436 6.626204,-6.497866 2.400111,-0.7922 4.85392,-1.535449 7.391457,-1.683037 1.788826,-0.0047 3.577946,-0.01733 5.366551,0.0176 2.048613,0.06864 4.0952,0.230985 6.10666,0.646283 2.54757,0.532447 5.087853,1.143689 7.518459,2.088771 2.141063,0.749715 4.181942,1.699457 6.130243,2.868191 1.853555,1.062816 3.760168,2.070464 5.423418,3.424589 1.261499,1.087231 2.531216,2.1554 3.653346,3.392522 1.382802,1.262319 2.622325,2.673554 3.798103,4.128328 1.44108,2.171363 2.766315,4.415105 3.772856,6.826347 0.952478,2.736426 1.815281,5.504546 3.267409,8.034567 1.179758,2.501009 2.463463,4.946011 3.815926,7.357347 2.521493,3.782239 -2.827402,7.348169 -5.348895,3.565929 z"
       inkscape:connector-curvature="0"
       transform="translate(0,802.36218)" />
    <path
       style="fill:#000000;fill-opacity:1;stroke:none"
       id="path3017"
       d="m 101.43402,63.723601 c -1.869727,-2.480936 -3.417913,-5.195326 -4.875088,-7.934035 -1.306376,-2.531953 -2.28693,-5.198017 -3.116969,-7.917504 -0.640835,-2.128366 -0.82492,-4.341479 -0.920743,-6.549967 -0.05485,-2.094758 -0.03767,-4.190634 -0.03262,-6.285886 0.0064,-2.133242 0.0088,-4.266493 0.01039,-6.399743 -0.178319,-2.451219 0.189981,-4.753702 1.046251,-7.046955 0.856631,-2.168466 2.108344,-4.090191 3.798853,-5.686273 1.571442,-1.446555 3.505623,-2.138613 5.569553,-2.503523 2.73681,-0.278694 4.94917,1.049353 6.91075,2.797818 1.79503,1.788422 2.36298,4.082241 2.61018,6.516229 0.16796,1.892848 0.14109,3.851078 -0.97487,5.488546 -0.26675,0.391413 -0.6246,0.712265 -0.9369,1.068398 -1.21331,1.068258 -2.66858,1.441392 -4.21628,1.687591 -4.49853,0.65312 -5.42218,-5.708751 -0.92366,-6.361871 l 0,0 c 0.11186,-0.01239 0.82328,-0.235401 0.62575,0.09731 -0.0322,0.101246 -0.0182,0.414817 0.025,0.317747 0.2289,-0.514473 -0.0627,-1.150483 0.002,-1.682607 -0.0727,-0.82992 -0.0732,-1.721507 -0.58441,-2.41958 -0.43421,-0.450568 -0.96263,-0.844944 -1.48305,-1.168074 -0.86901,0.125424 -1.66502,0.316399 -2.32526,0.941944 -1.05442,0.79105 -1.57103,2.133712 -2.123608,3.280915 -0.688159,1.505286 -0.652411,3.043957 -0.591619,4.677205 -0.0016,2.136808 -0.004,4.273617 -0.01041,6.410417 -0.0048,1.999226 -0.02074,3.99898 0.02685,5.997818 0.06898,1.669827 0.175363,3.347728 0.65096,4.960544 0.696829,2.328361 1.540359,4.602657 2.645499,6.771731 1.25731,2.3895 2.61348,4.748264 4.21342,6.925904 2.83966,3.549585 -2.18021,7.565482 -5.01987,4.015897 z"
       inkscape:connector-curvature="0"
       transform="translate(0,802.36218)" />
  </g>
</svg>
